Merriweather-Italic.glyphspackage
{
glyphname = exclam;
layers = (
{
layerId = "0C3FD5EE-D923-4A4A-8FDE-164881635915";
shapes = (
{
closed = 1;
nodes = (
(149,478,l),
(259,478,l),
(492,1736,l),
(303,1736,l)
);
},
{
closed = 1;
nodes = (
(39,20,o),
(74,-18,o),
(129,-18,cs),
(191,-18,o),
(250,29,o),
(259,106,cs),
(267,168,o),
(240,214,o),
(168,214,cs),
(110,214,o),
(54,162,o),
(46,89,cs)
);
}
);
width = 440;
},
{
layerId = "27298932-82AF-4578-9425-6304FDB19058";
shapes = (
{
closed = 1;
nodes = (
(187,515,l),
(382,515,l),
(633,1736,l),
(310,1736,l)
);
},
{
closed = 1;
nodes = (
(64,48,o),
(129,-20,o),
(203,-20,cs),
(314,-20,o),
(392,60,o),
(392,172,cs),
(392,261,o),
(335,330,o),
(249,330,cs),
(150,330,o),
(66,248,o),
(65,137,cs)
);
}
);
width = 591;
},
{
layerId = "9079322E-D2EB-4437-A6B9-48C6726F1892";
shapes = (
{
closed = 1;
nodes = (
(197,515,l),
(392,515,l),
(643,1736,l),
(320,1736,l)
);
},
{
closed = 1;
nodes = (
(75,47,o),
(139,-20,o),
(213,-20,cs),
(314,-20,o),
(402,42,o),
(402,174,cs),
(402,253,o),
(355,330,o),
(259,330,cs),
(160,330,o),
(76,257,o),
(75,136,cs)
);
}
);
width = 611;
},
{
layerId = "AB43ED1F-BEAA-4517-9B18-06741265F15E";
shapes = (
{
closed = 1;
nodes = (
(140,478,l),
(250,478,l),
(474,1736,l),
(285,1736,l)
);
},
{
closed = 1;
nodes = (
(30,26,o),
(69,-18,o),
(124,-18,cs),
(186,-18,o),
(241,18,o),
(250,95,cs),
(258,157,o),
(231,214,o),
(159,214,cs),
(101,214,o),
(45,168,o),
(37,95,cs)
);
}
);
width = 413;
},
{
layerId = "0E81F995-ADCA-4265-BF48-502C19DBCB17";
shapes = (
{
closed = 1;
nodes = (
(170,455,l),
(234,455,l),
(568,1780,l),
(215,1780,l)
);
},
{
closed = 1;
nodes = (
(11,33,o),
(73,-22,o),
(138,-22,cs),
(235,-22,o),
(311,47,o),
(311,174,cs),
(311,248,o),
(260,313,o),
(172,313,cs),
(82,313,o),
(11,233,o),
(11,118,cs)
);
}
);
width = 433;
},
{
layerId = "10D406F4-E64B-40B9-806E-EB589F33F511";
shapes = (
{
closed = 1;
nodes = (
(154,359,l),
(198,359,l),
(469,1798,l),
(303,1798,l)
);
},
{
closed = 1;
nodes = (
(39,10,o),
(74,-22,o),
(120,-22,cs),
(176,-22,o),
(233,27,o),
(233,96,cs),
(233,138,o),
(210,176,o),
(154,176,cs),
(97,176,o),
(39,125,o),
(39,59,cs)
);
}
);
width = 391;
},
{
layerId = "2795BD5C-FE1E-44B5-B1D3-799347E852FC";
shapes = (
{
closed = 1;
nodes = (
(195,455,l),
(259,455,l),
(593,1780,l),
(240,1780,l)
);
},
{
closed = 1;
nodes = (
(31,33,o),
(95,-22,o),
(163,-22,cs),
(254,-22,o),
(346,47,o),
(346,174,cs),
(346,261,o),
(284,313,o),
(202,313,cs),
(119,313,o),
(31,237,o),
(31,122,cs)
);
}
);
width = 483;
},
{
layerId = "95CCB04D-97EC-4126-A206-216E0B8EC505";
shapes = (
{
closed = 1;
nodes = (
(154,359,l),
(198,359,l),
(473,1798,l),
(299,1798,l)
);
},
{
closed = 1;
nodes = (
(50,10,o),
(76,-22,o),
(121,-22,cs),
(178,-22,o),
(229,27,o),
(229,96,cs),
(229,138,o),
(210,176,o),
(155,176,cs),
(97,176,o),
(50,125,o),
(50,59,cs)
);
}
);
width = 405;
},
{
layerId = "8587C386-9485-4E77-8679-63F1A494C2C0";
shapes = (
{
closed = 1;
nodes = (
(129,478,l),
(239,478,l),
(469,1736,l),
(280,1736,l)
);
},
{
closed = 1;
nodes = (
(19,26,o),
(58,-18,o),
(113,-18,cs),
(175,-18,o),
(230,18,o),
(239,95,cs),
(247,157,o),
(220,214,o),
(148,214,cs),
(90,214,o),
(34,168,o),
(26,95,cs)
);
}
);
width = 396;
},
{
layerId = "F8806197-5953-4DD8-B2B5-EF301301BB43";
shapes = (
{
closed = 1;
nodes = (
(156,515,l),
(351,515,l),
(602,1736,l),
(279,1736,l)
);
},
{
closed = 1;
nodes = (
(44,37,o),
(108,-20,o),
(182,-20,cs),
(273,-20,o),
(360,42,o),
(360,174,cs),
(360,263,o),
(309,330,o),
(213,330,cs),
(134,330,o),
(46,257,o),
(45,136,cs)
);
}
);
width = 540;
},
{
layerId = "F318CEA5-7792-49D8-B68D-92025E304353";
shapes = (
{
closed = 1;
nodes = (
(154,359,l),
(198,359,l),
(461,1798,l),
(311,1798,l)
);
},
{
closed = 1;
nodes = (
(39,10,o),
(74,-22,o),
(120,-22,cs),
(179,-22,o),
(233,27,o),
(233,96,cs),
(233,138,o),
(210,176,o),
(154,176,cs),
(96,176,o),
(39,125,o),
(39,59,cs)
);
}
);
width = 389;
},
{
layerId = "7A2136B0-3E1D-476B-B826-4714342A6FC2";
shapes = (
{
closed = 1;
nodes = (
(170,455,l),
(234,455,l),
(568,1780,l),
(215,1780,l)
);
},
{
closed = 1;
nodes = (
(17,33,o),
(74,-22,o),
(136,-22,cs),
(229,-22,o),
(305,47,o),
(305,174,cs),
(305,248,o),
(259,313,o),
(175,313,cs),
(88,313,o),
(17,233,o),
(17,118,cs)
);
}
);
width = 433;
}
);
metricRight = "=|";
unicode = 33;
userData = {
KernOnName = exclam;
KernOnSpecialSpacing = {
L = "spaced-off";
};
};
}
{
color = 1;
glyphname = quotedbl;
layers = (
{
background = {
shapes = (
{
closed = 1;
nodes = (
(258,1644,l),
(294,938,l),
(400,938,l),
(438,1644,l)
);
},
{
closed = 1;
nodes = (
(641,1644,l),
(677,938,l),
(783,938,l),
(821,1644,l)
);
}
);
};
layerId = "0C3FD5EE-D923-4A4A-8FDE-164881635915";
shapes = (
{
ref = quotesingle;
},
{
pos = (373,0);
ref = quotesingle;
}
);
width = 988;
},
{
layerId = "27298932-82AF-4578-9425-6304FDB19058";
shapes = (
{
ref = quotesingle;
},
{
pos = (423,0);
ref = quotesingle;
}
);
width = 1107;
},
{
layerId = "0E81F995-ADCA-4265-BF48-502C19DBCB17";
shapes = (
{
ref = quotesingle;
},
{
pos = (337,0);
ref = quotesingle;
}
);
width = 985;
},
{
layerId = "F8806197-5953-4DD8-B2B5-EF301301BB43";
shapes = (
{
ref = quotesingle;
},
{
pos = (423,0);
ref = quotesingle;
}
);
width = 1097;
},
{
layerId = "8587C386-9485-4E77-8679-63F1A494C2C0";
shapes = (
{
ref = quotesingle;
},
{
pos = (353,0);
ref = quotesingle;
}
);
width = 962;
},
{
layerId = "7A2136B0-3E1D-476B-B826-4714342A6FC2";
shapes = (
{
ref = quotesingle;
},
{
pos = (337,0);
ref = quotesingle;
}
);
width = 978;
},
{
layerId = "F318CEA5-7792-49D8-B68D-92025E304353";
shapes = (
{
ref = quotesingle;
},
{
pos = (245,0);
ref = quotesingle;
}
);
width = 810;
},
{
layerId = "10D406F4-E64B-40B9-806E-EB589F33F511";
shapes = (
{
ref = quotesingle;
},
{
pos = (245,0);
ref = quotesingle;
}
);
width = 810;
},
{
layerId = "2795BD5C-FE1E-44B5-B1D3-799347E852FC";
shapes = (
{
ref = quotesingle;
},
{
pos = (357,0);
ref = quotesingle;
}
);
width = 1021;
},
{
layerId = "95CCB04D-97EC-4126-A206-216E0B8EC505";
shapes = (
{
ref = quotesingle;
},
{
pos = (255,0);
ref = quotesingle;
}
);
width = 820;
},
{
layerId = "AB43ED1F-BEAA-4517-9B18-06741265F15E";
shapes = (
{
ref = quotesingle;
},
{
pos = (353,0);
ref = quotesingle;
}
);
userData = {
com.schriftgestaltung.Glyphs.lastChange = "2019-04-25 21:50:43 +0000";
};
width = 972;
},
{
layerId = "9079322E-D2EB-4437-A6B9-48C6726F1892";
shapes = (
{
ref = quotesingle;
},
{
pos = (423,0);
ref = quotesingle;
}
);
width = 1115;
}
);
metricLeft = quotesingle;
metricRight = quotesingle;
unicode = 34;
userData = {
KernOnSpecialSpacing = {
L = quotes;
R = quotes;
};
};
}
{
glyphname = dollar;
layers = (
{
layerId = "0C3FD5EE-D923-4A4A-8FDE-164881635915";
shapes = (
{
closed = 1;
nodes = (
(558,-225,l),
(593,-20,l),
(853,0,o),
(1055,161,o),
(1053,419,cs),
(1051,627,o),
(877,724,o),
(720,817,c),
(577,899,o),
(420,979,o),
(420,1146,cs),
(420,1355,o),
(610,1418,o),
(722,1418,cs),
(824,1418,o),
(915,1392,o),
(961,1360,c),
(983,1181,l),
(1077,1181,l),
(1118,1423,l),
(1074,1454,o),
(980,1490,o),
(842,1502,c),
(870,1682,l),
(734,1682,l),
(706,1504,l),
(466,1486,o),
(273,1332,o),
(275,1087,cs),
(277,870,o),
(470,773,o),
(627,678,c),
(766,596,o),
(904,517,o),
(904,351,cs),
(904,149,o),
(724,63,o),
(560,63,cs),
(466,63,o),
(350,89,o),
(288,138,c),
(278,337,l),
(178,337,l),
(135,65,l),
(173,33,o),
(304,-8,o),
(456,-20,c),
(422,-225,l)
);
}
);
width = 1205;
},
{
layerId = "27298932-82AF-4578-9425-6304FDB19058";
shapes = (
{
closed = 1;
nodes = (
(566,-245,l),
(604,-20,l),
(953,6,o),
(1101,208,o),
(1100,434,cs),
(1100,640,o),
(954,763,o),
(788,864,cs),
(599,981,o),
(507,1059,o),
(507,1202,cs),
(507,1308,o),
(575,1383,o),
(714,1383,cs),
(787,1383,o),
(840,1365,o),
(886,1333,c),
(914,1139,l),
(1097,1139,l),
(1151,1432,l),
(1099,1460,o),
(1013,1490,o),
(873,1500,c),
(909,1717,l),
(732,1717,l),
(698,1502,l),
(410,1484,o),
(202,1330,o),
(202,1067,cs),
(202,862,o),
(354,731,o),
(525,622,cs),
(706,507,o),
(786,435,o),
(786,309,cs),
(786,196,o),
(724,103,o),
(531,103,cs),
(443,103,o),
(373,131,o),
(325,169,c),
(315,383,l),
(120,383,l),
(58,74,l),
(96,42,o),
(250,-4,o),
(427,-18,c),
(391,-245,l)
);
}
);
width = 1216;
},
{
layerId = "9079322E-D2EB-4437-A6B9-48C6726F1892";
shapes = (
{
closed = 1;
nodes = (
(625,-245,l),
(663,-20,l),
(1031,6,o),
(1206,202,o),
(1206,428,cs),
(1206,649,o),
(1039,762,o),
(847,886,cs),
(693,985,o),
(571,1059,o),
(571,1199,cs),
(571,1313,o),
(653,1383,o),
(778,1383,cs),
(841,1383,o),
(897,1365,o),
(938,1333,c),
(970,1139,l),
(1197,1139,l),
(1250,1432,l),
(1193,1460,o),
(1090,1489,o),
(933,1500,c),
(968,1717,l),
(787,1717,l),
(754,1502,l),
(446,1484,o),
(222,1332,o),
(222,1075,cs),
(222,848,o),
(397,729,o),
(594,602,cs),
(733,512,o),
(848,444,o),
(848,308,cs),
(848,194,o),
(766,103,o),
(600,103,cs),
(513,103,o),
(443,128,o),
(392,169,c),
(377,383,l),
(138,383,l),
(78,74,l),
(121,42,o),
(290,-3,o),
(482,-18,c),
(446,-245,l)
);
}
);
width = 1342;
},
{
layerId = "AB43ED1F-BEAA-4517-9B18-06741265F15E";
shapes = (
{
closed = 1;
nodes = (
(599,-225,l),
(634,-20,l),
(951,1,o),
(1160,193,o),
(1145,428,cs),
(1135,586,o),
(1037,676,o),
(763,817,c),
(597,902,o),
(420,980,o),
(420,1156,cs),
(420,1334,o),
(603,1418,o),
(777,1418,cs),
(881,1418,o),
(999,1388,o),
(1042,1360,c),
(1069,1181,l),
(1163,1181,l),
(1203,1423,l),
(1153,1454,o),
(1046,1488,o),
(887,1502,c),
(915,1682,l),
(779,1682,l),
(751,1504,l),
(479,1488,o),
(257,1318,o),
(275,1079,cs),
(291,870,o),
(477,788,o),
(680,678,c),
(838,595,o),
(996,516,o),
(996,345,cs),
(996,148,o),
(787,63,o),
(603,63,cs),
(502,63,o),
(363,89,o),
(291,138,c),
(277,337,l),
(177,337,l),
(135,65,l),
(178,33,o),
(329,-8,o),
(498,-20,c),
(463,-225,l)
);
}
);
width = 1290;
},
{
layerId = "0E81F995-ADCA-4265-BF48-502C19DBCB17";
shapes = (
{
closed = 1;
nodes = (
(543,-260,l),
(582,-25,l),
(898,4,o),
(1114,193,o),
(1114,452,cs),
(1114,656,o),
(979,754,o),
(833,855,c),
(638,974,o),
(562,1063,o),
(562,1187,cs),
(562,1332,o),
(666,1446,o),
(784,1446,cs),
(835,1446,o),
(910,1423,o),
(924,1393,c),
(930,1130,l),
(1130,1130,l),
(1198,1432,l),
(1146,1436,o),
(980,1494,o),
(851,1503,c),
(889,1738,l),
(788,1738,l),
(751,1503,l),
(429,1503,o),
(217,1313,o),
(217,1032,cs),
(217,789,o),
(388,687,o),
(497,619,cs),
(661,517,o),
(743,436,o),
(743,306,cs),
(743,160,o),
(640,37,o),
(502,37,cs),
(445,37,o),
(382,58,o),
(326,105,c),
(315,382,l),
(133,382,l),
(64,65,l),
(124,61,o),
(268,-12,o),
(482,-24,c),
(442,-260,l)
);
}
);
width = 1219;
},
{
layerId = "10D406F4-E64B-40B9-806E-EB589F33F511";
shapes = (
{
closed = 1;
nodes = (
(521,-252,l),
(559,-20,l),
(846,-1,o),
(1035,186,o),
(1035,409,cs),
(1035,612,o),
(879,711,o),
(710,809,cs),
(537,909,o),
(407,977,o),
(407,1135,cs),
(407,1308,o),
(561,1451,o),
(749,1451,c),
(837,1452,o),
(935,1425,o),
(977,1391,c),
(992,1181,l),
(1071,1181,l),
(1104,1426,l),
(1056,1448,o),
(948,1493,o),
(795,1502,c),
(829,1720,l),
(744,1720,l),
(710,1500,l),
(457,1471,o),
(275,1312,o),
(275,1101,cs),
(275,889,o),
(457,772,o),
(594,697,cs),
(718,629,o),
(899,551,o),
(899,365,cs),
(899,186,o),
(733,31,o),
(519,31,cs),
(417,31,o),
(304,66,o),
(261,111,c),
(258,335,l),
(177,335,l),
(128,68,l),
(171,42,o),
(317,-9,o),
(475,-20,c),
(437,-252,l)
);
}
);
width = 1179;
},
{
layerId = "2795BD5C-FE1E-44B5-B1D3-799347E852FC";
shapes = (
{
closed = 1;
nodes = (
(604,-260,l),
(643,-25,l),
(984,6,o),
(1219,187,o),
(1219,447,cs),
(1219,652,o),
(1073,757,o),
(896,855,c),
(692,974,o),
(599,1065,o),
(599,1191,cs),
(599,1334,o),
(723,1446,o),
(851,1446,cs),
(907,1446,o),
(991,1423,o),
(1005,1393,c),
(1015,1130,l),
(1233,1130,l),
(1301,1432,l),
(1244,1436,o),
(1060,1494,o),
(916,1503,c),
(953,1738,l),
(848,1738,l),
(811,1503,l),
(469,1503,o),
(238,1319,o),
(238,1046,cs),
(238,792,o),
(437,690,o),
(561,619,cs),
(732,521,o),
(832,435,o),
(832,305,cs),
(832,157,o),
(703,37,o),
(560,37,cs),
(500,37,o),
(418,58,o),
(355,105,c),
(350,382,l),
(152,382,l),
(84,65,l),
(150,61,o),
(308,-12,o),
(540,-24,c),
(500,-260,l)
);
}
);
width = 1346;
},
{
layerId = "95CCB04D-97EC-4126-A206-216E0B8EC505";
shapes = (
{
closed = 1;
nodes = (
(553,-252,l),
(591,-20,l),
(889,-1,o),
(1084,186,o),
(1084,406,cs),
(1084,610,o),
(917,709,o),
(739,808,cs),
(559,908,o),
(422,978,o),
(422,1137,cs),
(422,1309,o),
(584,1451,o),
(780,1451,c),
(873,1452,o),
(976,1424,o),
(1023,1391,c),
(1043,1181,l),
(1119,1181,l),
(1149,1426,l),
(1099,1448,o),
(987,1491,o),
(827,1502,c),
(861,1720,l),
(774,1720,l),
(740,1500,l),
(479,1471,o),
(290,1313,o),
(290,1104,cs),
(290,889,o),
(490,770,o),
(627,699,cs),
(765,628,o),
(949,547,o),
(949,363,cs),
(949,185,o),
(774,31,o),
(551,31,cs),
(447,31,o),
(323,64,o),
(276,111,c),
(271,335,l),
(192,335,l),
(143,68,l),
(187,42,o),
(343,-9,o),
(505,-20,c),
(467,-252,l)
);
}
);
width = 1269;
},
{
layerId = "8587C386-9485-4E77-8679-63F1A494C2C0";
shapes = (
{
closed = 1;
nodes = (
(481,-225,l),
(516,-20,l),
(759,-1,o),
(926,174,o),
(926,410,cs),
(926,629,o),
(780,721,o),
(643,814,c),
(512,897,o),
(383,976,o),
(383,1151,cs),
(383,1311,o),
(494,1418,o),
(651,1418,cs),
(729,1418,o),
(811,1392,o),
(851,1360,c),
(872,1181,l),
(961,1181,l),
(999,1423,l),
(955,1454,o),
(882,1490,o),
(766,1502,c),
(794,1682,l),
(663,1682,l),
(634,1504,l),
(416,1486,o),
(242,1329,o),
(242,1093,cs),
(242,870,o),
(402,776,o),
(541,680,c),
(668,597,o),
(782,517,o),
(782,347,cs),
(782,149,o),
(629,63,o),
(479,63,cs),
(397,63,o),
(300,89,o),
(247,138,c),
(237,337,l),
(142,337,l),
(102,65,l),
(140,33,o),
(249,-7,o),
(383,-20,c),
(350,-225,l)
);
}
);
width = 1058;
},
{
layerId = "F8806197-5953-4DD8-B2B5-EF301301BB43";
shapes = (
{
closed = 1;
nodes = (
(492,-245,l),
(530,-20,l),
(852,7,o),
(977,212,o),
(977,436,cs),
(977,658,o),
(854,761,o),
(714,861,cs),
(588,951,o),
(464,1028,o),
(471,1194,cs),
(476,1308,o),
(539,1383,o),
(640,1383,cs),
(690,1383,o),
(736,1365,o),
(778,1333,c),
(801,1139,l),
(980,1139,l),
(1035,1432,l),
(988,1460,o),
(916,1490,o),
(796,1500,c),
(833,1717,l),
(658,1717,l),
(623,1501,l),
(348,1481,o),
(170,1315,o),
(170,1060,cs),
(170,841,o),
(300,732,o),
(440,626,cs),
(577,522,o),
(668,457,o),
(668,308,cs),
(668,195,o),
(615,103,o),
(462,103,cs),
(378,103,o),
(326,131,o),
(285,169,c),
(280,383,l),
(90,383,l),
(26,74,l),
(58,42,o),
(197,-2,o),
(355,-18,c),
(319,-245,l)
);
}
);
width = 1073;
},
{
layerId = "F318CEA5-7792-49D8-B68D-92025E304353";
shapes = (
{
closed = 1;
nodes = (
(478,-252,l),
(516,-20,l),
(782,-1,o),
(962,187,o),
(962,414,cs),
(962,615,o),
(821,712,o),
(669,808,cs),
(502,913,o),
(390,977,o),
(390,1131,cs),
(390,1306,o),
(534,1451,o),
(705,1451,c),
(785,1452,o),
(873,1423,o),
(909,1391,c),
(918,1181,l),
(1001,1181,l),
(1038,1426,l),
(994,1448,o),
(891,1492,o),
(752,1502,c),
(786,1720,l),
(703,1719,l),
(670,1499,l),
(432,1470,o),
(258,1309,o),
(258,1097,cs),
(258,886,o),
(430,765,o),
(546,697,cs),
(665,628,o),
(825,552,o),
(825,369,cs),
(825,189,o),
(672,31,o),
(474,31,cs),
(381,31,o),
(284,66,o),
(243,111,c),
(243,335,l),
(160,335,l),
(111,68,l),
(151,42,o),
(286,-10,o),
(434,-21,c),
(397,-253,l)
);
}
);
width = 1087;
},
{
layerId = "7A2136B0-3E1D-476B-B826-4714342A6FC2";
shapes = (
{
closed = 1;
nodes = (
(470,-260,l),
(509,-25,l),
(807,3,o),
(997,198,o),
(997,456,cs),
(997,653,o),
(885,741,o),
(756,836,c),
(566,961,o),
(511,1056,o),
(511,1176,cs),
(511,1327,o),
(598,1446,o),
(703,1446,cs),
(749,1446,o),
(811,1423,o),
(825,1393,c),
(827,1130,l),
(1013,1130,l),
(1082,1432,l),
(1035,1436,o),
(891,1494,o),
(774,1503,c),
(813,1738,l),
(716,1738,l),
(679,1503,l),
(381,1503,o),
(183,1307,o),
(183,1026,cs),
(183,795,o),
(317,707,o),
(422,637,cs),
(580,532,o),
(643,448,o),
(643,311,cs),
(643,164,o),
(571,37,o),
(434,37,cs),
(378,37,o),
(329,58,o),
(280,105,c),
(281,382,l),
(103,382,l),
(32,65,l),
(83,61,o),
(217,-12,o),
(412,-24,c),
(372,-260,l)
);
}
);
width = 1092;
}
);
unicode = 36;
userData = {
KernOnSpecialSpacing = {
L = symbols;
R = symbols;
};
};
}
{
glyphname = ampersand;
kernRight = KO_ampersand;
layers = (
{
layerId = "0C3FD5EE-D923-4A4A-8FDE-164881635915";
shapes = (
{
closed = 1;
nodes = (
(682,-16,o),
(798,12,o),
(905,68,c),
(975,8,o),
(1062,-20,o),
(1145,-20,cs),
(1187,-20,o),
(1238,-19,o),
(1314,1,c),
(1319,73,l),
(1228,65,o),
(1116,100,o),
(1036,158,c),
(1144,258,o),
(1225,396,o),
(1225,571,cs),
(1225,602,o),
(1222,630,o),
(1218,651,c),
(1243,647,o),
(1259,646,o),
(1284,646,cs),
(1317,646,o),
(1369,655,o),
(1411,675,c),
(1411,794,l),
(1372,774,o),
(1328,768,o),
(1252,768,cs),
(1158,768,o),
(1093,793,o),
(1006,793,cs),
(961,793,o),
(930,789,o),
(914,773,c),
(914,653,l),
(937,668,o),
(972,671,o),
(1000,671,cs),
(1027,671,o),
(1041,671,o),
(1062,669,c),
(1073,636,o),
(1085,593,o),
(1085,536,cs),
(1085,401,o),
(1039,291,o),
(969,213,c),
(810,354,o),
(681,547,o),
(566,756,c),
(753,853,o),
(1035,988,o),
(1035,1229,cs),
(1035,1362,o),
(943,1503,o),
(744,1503,cs),
(496,1503,o),
(309,1337,o),
(309,1098,cs),
(309,991,o),
(350,865,o),
(400,756,c),
(239,674,o),
(52,552,o),
(52,356,cs),
(52,93,o),
(292,-16,o),
(543,-16,cs)
);
},
{
closed = 1;
nodes = (
(353,72,o),
(212,173,o),
(212,361,cs),
(212,502,o),
(330,610,o),
(436,681,c),
(550,486,o),
(634,319,o),
(842,124,c),
(768,89,o),
(685,72,o),
(561,72,cs)
);
},
{
closed = 1;
nodes = (
(496,895,o),
(455,994,o),
(455,1121,cs),
(455,1286,o),
(557,1420,o),
(724,1420,cs),
(829,1420,o),
(887,1310,o),
(887,1215,cs),
(887,1015,o),
(680,909,o),
(532,822,c)
);
}
);
width = 1450;
},
{
layerId = "27298932-82AF-4578-9425-6304FDB19058";
shapes = (
{
closed = 1;
nodes = (
(694,-22,o),
(848,-13,o),
(967,41,c),
(1030,14,o),
(1106,-14,o),
(1202,-14,cs),
(1346,-14,o),
(1412,-4,o),
(1480,23,c),
(1480,157,l),
(1397,145,o),
(1297,178,o),
(1262,197,c),
(1376,289,o),
(1432,405,o),
(1432,556,cs),
(1432,564,o),
(1432,571,o),
(1432,579,c),
(1443,579,o),
(1469,578,o),
(1479,578,cs),
(1527,578,o),
(1583,584,o),
(1621,606,c),
(1621,825,l),
(1577,797,o),
(1527,795,o),
(1455,795,cs),
(1365,795,o),
(1279,811,o),
(1207,811,cs),
(1122,811,o),
(1077,802,o),
(1059,784,c),
(1059,578,l),
(1087,602,o),
(1115,596,o),
(1178,596,cs),
(1186,596,o),
(1193,596,o),
(1201,596,c),
(1203,570,o),
(1206,544,o),
(1206,501,cs),
(1206,416,o),
(1165,344,o),
(1123,288,c),
(988,410,o),
(871,567,o),
(765,760,c),
(1005,862,o),
(1249,974,o),
(1249,1228,cs),
(1249,1389,o),
(1131,1506,o),
(844,1506,cs),
(540,1506,o),
(317,1342,o),
(317,1059,cs),
(317,963,o),
(367,856,o),
(409,758,c),
(209,678,o),
(42,554,o),
(42,321,cs),
(42,108,o),
(275,-22,o),
(577,-22,cs)
);
},
{
closed = 1;
nodes = (
(479,101,o),
(347,217,o),
(347,374,cs),
(347,465,o),
(413,546,o),
(490,606,c),
(596,426,o),
(678,273,o),
(832,132,c),
(787,109,o),
(691,101,o),
(627,101,cs)
);
},
{
closed = 1;
nodes = (
(670,936,o),
(643,1023,o),
(643,1122,cs),
(643,1270,o),
(685,1387,o),
(838,1387,cs),
(926,1387,o),
(953,1304,o),
(953,1216,cs),
(953,1051,o),
(842,939,o),
(700,880,c)
);
}
);
width = 1664;
},
{
layerId = "9079322E-D2EB-4437-A6B9-48C6726F1892";
shapes = (
{
closed = 1;
nodes = (
(737,-22,o),
(945,-11,o),
(1069,44,c),
(1158,1,o),
(1220,-15,o),
(1321,-15,cs),
(1444,-15,o),
(1575,9,o),
(1611,23,c),
(1610,157,l),
(1529,147,o),
(1427,168,o),
(1360,203,c),
(1478,293,o),
(1554,402,o),
(1554,546,cs),
(1554,562,o),
(1553,565,o),
(1552,578,c),
(1566,578,o),
(1581,578,o),
(1595,578,cs),
(1644,578,o),
(1707,584,o),
(1749,606,c),
(1747,825,l),
(1703,799,o),
(1647,795,o),
(1579,795,cs),
(1442,795,o),
(1385,811,o),
(1283,811,cs),
(1206,811,o),
(1154,802,o),
(1136,784,c),
(1139,578,l),
(1169,602,o),
(1199,596,o),
(1263,596,cs),
(1275,596,o),
(1286,596,o),
(1298,596,c),
(1300,579,o),
(1308,542,o),
(1308,502,cs),
(1308,426,o),
(1276,358,o),
(1218,295,c),
(1071,410,o),
(921,588,o),
(821,770,c),
(1067,869,o),
(1325,993,o),
(1325,1229,cs),
(1325,1399,o),
(1191,1516,o),
(906,1516,cs),
(572,1516,o),
(335,1355,o),
(335,1088,cs),
(335,975,o),
(377,874,o),
(437,756,c),
(245,685,o),
(44,558,o),
(44,338,cs),
(44,108,o),
(263,-22,o),
(630,-22,cs)
);
},
{
closed = 1;
nodes = (
(480,101,o),
(393,260,o),
(393,371,cs),
(393,464,o),
(453,541,o),
(523,601,c),
(630,421,o),
(768,249,o),
(927,132,c),
(886,113,o),
(779,101,o),
(715,101,cs)
);
},
{
closed = 1;
nodes = (
(725,982,o),
(705,1064,o),
(705,1145,cs),
(705,1284,o),
(763,1397,o),
(871,1397,cs),
(964,1397,o),
(985,1312,o),
(985,1234,cs),
(985,1071,o),
(893,975,o),
(760,897,c)
);
}
);
width = 1792;
},
{
layerId = "AB43ED1F-BEAA-4517-9B18-06741265F15E";
shapes = (
{
closed = 1;
nodes = (
(698,-16,o),
(819,12,o),
(930,68,c),
(1011,3,o),
(1096,-20,o),
(1193,-20,cs),
(1221,-20,o),
(1278,-18,o),
(1353,1,c),
(1358,73,l),
(1223,68,o),
(1155,91,o),
(1061,158,c),
(1167,254,o),
(1253,391,o),
(1253,568,cs),
(1253,605,o),
(1249,633,o),
(1245,651,c),
(1264,648,o),
(1287,646,o),
(1308,646,cs),
(1353,646,o),
(1404,655,o),
(1448,675,c),
(1447,794,l),
(1412,776,o),
(1363,768,o),
(1293,768,cs),
(1170,768,o),
(1125,793,o),
(1022,793,cs),
(981,793,o),
(948,789,o),
(932,773,c),
(932,653,l),
(956,668,o),
(993,671,o),
(1021,671,cs),
(1049,671,o),
(1066,671,o),
(1089,669,c),
(1103,629,o),
(1114,576,o),
(1114,523,cs),
(1114,397,o),
(1052,271,o),
(993,213,c),
(825,354,o),
(687,550,o),
(567,756,c),
(759,853,o),
(1053,987,o),
(1053,1227,cs),
(1053,1361,o),
(962,1503,o),
(741,1503,cs),
(502,1503,o),
(304,1338,o),
(304,1103,cs),
(304,991,o),
(349,863,o),
(401,756,c),
(220,665,o),
(41,554,o),
(41,347,cs),
(41,117,o),
(264,-16,o),
(561,-16,cs)
);
},
{
closed = 1;
nodes = (
(338,72,o),
(201,182,o),
(201,351,cs),
(201,507,o),
(317,602,o),
(437,681,c),
(559,484,o),
(646,319,o),
(866,124,c),
(802,94,o),
(704,72,o),
(591,72,cs)
);
},
{
closed = 1;
nodes = (
(499,884,o),
(450,996,o),
(450,1116,cs),
(450,1317,o),
(589,1420,o),
(717,1420,cs),
(850,1420,o),
(905,1309,o),
(905,1211,cs),
(905,1015,o),
(686,909,o),
(532,822,c)
);
}
);
width = 1482;
},
{
guides = (
{
angle = 262.0565;
pos = (1023,41);
}
);
layerId = "0E81F995-ADCA-4265-BF48-502C19DBCB17";
shapes = (
{
closed = 1;
nodes = (
(817,-17,o),
(899,16,o),
(959,53,c),
(1024,22,o),
(1094,-14,o),
(1221,-14,cs),
(1301,-14,o),
(1442,2,o),
(1458,19,c),
(1464,62,l),
(1365,81,o),
(1283,162,o),
(1230,238,c),
(1349,348,o),
(1431,527,o),
(1437,648,cs),
(1439,680,o),
(1439,702,o),
(1439,715,c),
(1446,715,o),
(1460,717,o),
(1469,717,cs),
(1489,717,o),
(1532,723,o),
(1560,740,c),
(1559,788,l),
(1526,768,o),
(1456,767,o),
(1424,767,cs),
(1314,767,o),
(1282,789,o),
(1183,789,cs),
(1143,789,o),
(1111,785,o),
(1095,769,c),
(1095,718,l),
(1118,734,o),
(1153,737,o),
(1181,737,cs),
(1212,737,o),
(1239,733,o),
(1253,726,c),
(1263,711,o),
(1269,655,o),
(1269,592,cs),
(1269,465,o),
(1229,356,o),
(1173,302,c),
(1112,375,o),
(970,595,o),
(809,827,c),
(953,892,o),
(1216,997,o),
(1216,1228,cs),
(1216,1389,o),
(1107,1505,o),
(866,1505,cs),
(578,1505,o),
(332,1359,o),
(332,1065,cs),
(332,963,o),
(390,828,o),
(473,695,c),
(244,649,o),
(64,512,o),
(64,302,cs),
(64,107,o),
(246,-17,o),
(599,-17,cs)
);
},
{
closed = 1;
nodes = (
(524,42,o),
(376,167,o),
(376,394,cs),
(376,572,o),
(431,618,o),
(495,668,c),
(630,434,o),
(795,233,o),
(904,105,c),
(837,64,o),
(788,42,o),
(725,42,cs)
);
},
{
closed = 1;
nodes = (
(709,976,o),
(672,1087,o),
(672,1198,cs),
(672,1374,o),
(748,1447,o),
(852,1447,cs),
(931,1447,o),
(959,1384,o),
(959,1282,cs),
(959,1115,o),
(889,946,o),
(788,858,c)
);
}
);
width = 1589;
},
{
layerId = "10D406F4-E64B-40B9-806E-EB589F33F511";
shapes = (
{
closed = 1;
nodes = (
(669,-16,o),
(782,10,o),
(887,63,c),
(956,11,o),
(1036,-20,o),
(1118,-20,cs),
(1183,-20,o),
(1215,-12,o),
(1262,8,c),
(1265,46,l),
(1153,29,o),
(1085,34,o),
(999,141,c),
(1120,241,o),
(1216,389,o),
(1216,582,cs),
(1216,647,o),
(1212,683,o),
(1209,697,c),
(1227,694,o),
(1248,695,o),
(1267,695,cs),
(1285,695,o),
(1326,701,o),
(1362,721,c),
(1362,764,l),
(1329,744,o),
(1266,747,o),
(1234,747,cs),
(1119,747,o),
(1092,769,o),
(993,769,cs),
(953,769,o),
(921,757,o),
(905,741,c),
(905,699,l),
(928,714,o),
(963,717,o),
(991,717,cs),
(1022,717,o),
(1049,713,o),
(1063,706,c),
(1073,691,o),
(1080,652,o),
(1080,571,cs),
(1080,350,o),
(1014,273,o),
(949,197,c),
(839,328,o),
(672,580,o),
(563,764,c),
(848,916,o),
(1018,1058,o),
(1018,1235,cs),
(1018,1373,o),
(921,1504,o),
(723,1504,cs),
(491,1504,o),
(300,1337,o),
(300,1094,cs),
(300,982,o),
(341,848,o),
(414,730,c),
(231,633,o),
(53,523,o),
(53,314,cs),
(53,76,o),
(283,-16,o),
(535,-16,cs)
);
},
{
closed = 1;
nodes = (
(354,42,o),
(206,167,o),
(206,348,cs),
(206,486,o),
(284,614,o),
(433,696,c),
(599,416,o),
(691,278,o),
(831,116,c),
(759,81,o),
(670,42,o),
(555,42,cs)
);
},
{
closed = 1;
nodes = (
(487,909,o),
(445,1010,o),
(445,1137,cs),
(445,1343,o),
(559,1456,o),
(698,1456,cs),
(788,1456,o),
(877,1403,o),
(877,1239,cs),
(877,998,o),
(679,885,o),
(543,798,c)
);
}
);
width = 1364;
},
{
layerId = "2795BD5C-FE1E-44B5-B1D3-799347E852FC";
shapes = (
{
closed = 1;
nodes = (
(855,-17,o),
(941,16,o),
(1004,53,c),
(1072,22,o),
(1145,-14,o),
(1279,-14,cs),
(1363,-14,o),
(1511,2,o),
(1528,19,c),
(1534,62,l),
(1430,81,o),
(1346,160,o),
(1288,238,c),
(1413,348,o),
(1520,527,o),
(1527,648,cs),
(1529,680,o),
(1529,702,o),
(1529,715,c),
(1536,715,o),
(1548,715,o),
(1557,715,cs),
(1578,715,o),
(1617,722,o),
(1656,740,c),
(1655,784,l),
(1620,764,o),
(1547,767,o),
(1513,767,cs),
(1397,767,o),
(1364,789,o),
(1260,789,cs),
(1218,789,o),
(1184,777,o),
(1168,761,c),
(1168,718,l),
(1192,734,o),
(1228,737,o),
(1258,737,cs),
(1290,737,o),
(1319,733,o),
(1333,726,c),
(1344,711,o),
(1350,655,o),
(1350,592,cs),
(1350,465,o),
(1287,356,o),
(1228,302,c),
(1164,375,o),
(1015,595,o),
(846,827,c),
(997,892,o),
(1274,997,o),
(1274,1228,cs),
(1274,1389,o),
(1159,1505,o),
(906,1505,cs),
(604,1505,o),
(345,1359,o),
(345,1065,cs),
(345,963,o),
(406,828,o),
(493,695,c),
(253,649,o),
(64,512,o),
(64,302,cs),
(64,107,o),
(255,-17,o),
(626,-17,cs)
);
},
{
closed = 1;
nodes = (
(547,42,o),
(392,167,o),
(392,394,cs),
(392,572,o),
(449,618,o),
(517,668,c),
(658,434,o),
(832,233,o),
(946,105,c),
(876,64,o),
(824,42,o),
(758,42,cs)
);
},
{
closed = 1;
nodes = (
(741,976,o),
(702,1087,o),
(702,1198,cs),
(702,1374,o),
(782,1447,o),
(891,1447,cs),
(974,1447,o),
(1004,1384,o),
(1004,1282,cs),
(1004,1115,o),
(930,946,o),
(824,858,c)
);
}
);
width = 1666;
},
{
layerId = "95CCB04D-97EC-4126-A206-216E0B8EC505";
shapes = (
{
closed = 1;
nodes = (
(700,-16,o),
(818,10,o),
(929,63,c),
(1001,11,o),
(1085,-15,o),
(1171,-15,cs),
(1239,-15,o),
(1273,-7,o),
(1322,13,c),
(1326,51,l),
(1208,34,o),
(1138,38,o),
(1046,141,c),
(1173,241,o),
(1274,389,o),
(1274,582,cs),
(1274,647,o),
(1270,683,o),
(1267,697,c),
(1286,694,o),
(1308,695,o),
(1328,695,cs),
(1347,695,o),
(1390,701,o),
(1427,721,c),
(1427,764,l),
(1393,744,o),
(1327,747,o),
(1293,747,cs),
(1172,747,o),
(1144,769,o),
(1040,769,cs),
(998,769,o),
(964,757,o),
(948,741,c),
(948,699,l),
(972,714,o),
(1008,717,o),
(1038,717,cs),
(1070,717,o),
(1099,713,o),
(1113,706,c),
(1124,691,o),
(1131,652,o),
(1131,571,cs),
(1131,350,o),
(1062,273,o),
(994,197,c),
(878,328,o),
(712,580,o),
(597,764,c),
(897,916,o),
(1075,1058,o),
(1075,1235,cs),
(1075,1373,o),
(973,1504,o),
(765,1504,cs),
(522,1504,o),
(321,1337,o),
(321,1094,cs),
(321,982,o),
(360,857,o),
(437,739,c),
(225,662,o),
(53,523,o),
(53,314,cs),
(53,76,o),
(294,-16,o),
(559,-16,cs)
);
},
{
closed = 1;
nodes = (
(369,42,o),
(214,167,o),
(214,348,cs),
(214,486,o),
(281,643,o),
(457,705,c),
(631,425,o),
(723,278,o),
(870,116,c),
(794,81,o),
(701,42,o),
(580,42,cs)
);
},
{
closed = 1;
nodes = (
(518,909,o),
(474,1010,o),
(474,1137,cs),
(474,1343,o),
(593,1456,o),
(739,1456,cs),
(834,1456,o),
(927,1403,o),
(927,1239,cs),
(927,998,o),
(719,885,o),
(576,798,c)
);
}
);
width = 1445;
},
{
layerId = "8587C386-9485-4E77-8679-63F1A494C2C0";
shapes = (
{
closed = 1;
nodes = (
(615,-16,o),
(731,15,o),
(831,71,c),
(904,6,o),
(968,-20,o),
(1061,-20,cs),
(1093,-20,o),
(1149,-17,o),
(1209,1,c),
(1214,73,l),
(1149,66,o),
(1042,90,o),
(958,156,c),
(1061,258,o),
(1139,401,o),
(1139,577,cs),
(1139,603,o),
(1137,623,o),
(1134,651,c),
(1150,648,o),
(1167,646,o),
(1185,646,cs),
(1224,646,o),
(1270,655,o),
(1309,675,c),
(1310,794,l),
(1277,775,o),
(1230,768,o),
(1173,768,cs),
(1064,768,o),
(1026,793,o),
(932,793,cs),
(894,793,o),
(864,789,o),
(849,773,c),
(847,653,l),
(869,668,o),
(897,671,o),
(939,671,cs),
(954,671,o),
(968,671,o),
(984,669,c),
(993,634,o),
(1002,594,o),
(1002,536,cs),
(1002,419,o),
(966,300,o),
(894,213,c),
(747,354,o),
(628,552,o),
(526,756,c),
(700,851,o),
(970,988,o),
(970,1231,cs),
(970,1365,o),
(888,1503,o),
(688,1503,cs),
(465,1503,o),
(287,1332,o),
(287,1095,cs),
(287,986,o),
(325,859,o),
(367,756,c),
(140,634,o),
(41,512,o),
(41,346,cs),
(41,121,o),
(221,-16,o),
(490,-16,cs)
);
},
{
closed = 1;
nodes = (
(314,72,o),
(196,179,o),
(196,349,cs),
(196,476,o),
(261,579,o),
(401,681,c),
(505,484,o),
(585,321,o),
(769,127,c),
(713,97,o),
(628,72,o),
(526,72,cs)
);
},
{
closed = 1;
nodes = (
(472,886,o),
(428,989,o),
(428,1110,cs),
(428,1307,o),
(546,1420,o),
(665,1420,cs),
(780,1420,o),
(827,1314,o),
(827,1215,cs),
(827,1014,o),
(631,907,o),
(494,822,c)
);
}
);
width = 1333;
},
{
layerId = "F8806197-5953-4DD8-B2B5-EF301301BB43";
shapes = (
{
closed = 1;
nodes = (
(589,-22,o),
(780,-11,o),
(885,42,c),
(968,-1,o),
(1035,-16,o),
(1128,-16,cs),
(1217,-16,o),
(1304,-1,o),
(1348,23,c),
(1349,157,l),
(1285,147,o),
(1218,163,o),
(1167,194,c),
(1279,288,o),
(1346,404,o),
(1346,554,cs),
(1346,561,o),
(1347,568,o),
(1348,578,c),
(1354,578,o),
(1361,578,o),
(1367,578,cs),
(1411,578,o),
(1459,584,o),
(1492,606,c),
(1496,825,l),
(1455,797,o),
(1404,795,o),
(1362,795,cs),
(1247,795,o),
(1206,811,o),
(1116,811,cs),
(1036,811,o),
(995,798,o),
(984,784,c),
(980,578,l),
(1004,602,o),
(1030,596,o),
(1088,596,cs),
(1095,596,o),
(1101,596,o),
(1108,596,c),
(1108,590,o),
(1113,545,o),
(1113,506,cs),
(1113,418,o),
(1087,345,o),
(1036,291,c),
(899,420,o),
(788,615,o),
(720,760,c),
(935,856,o),
(1174,990,o),
(1174,1235,cs),
(1174,1402,o),
(1062,1516,o),
(812,1516,cs),
(492,1516,o),
(302,1328,o),
(302,1080,cs),
(302,961,o),
(346,853,o),
(378,758,c),
(209,687,o),
(43,554,o),
(43,326,cs),
(43,94,o),
(215,-22,o),
(501,-22,cs)
);
},
{
closed = 1;
nodes = (
(428,101,o),
(343,215,o),
(343,364,cs),
(343,466,o),
(383,544,o),
(447,606,c),
(545,411,o),
(647,244,o),
(764,133,c),
(721,113,o),
(693,101,o),
(629,101,cs)
);
},
{
closed = 1;
nodes = (
(645,945,o),
(623,1022,o),
(623,1130,cs),
(623,1293,o),
(672,1397,o),
(771,1397,cs),
(856,1397,o),
(883,1320,o),
(883,1229,cs),
(883,1080,o),
(810,953,o),
(672,880,c)
);
}
);
width = 1535;
},
{
layerId = "F318CEA5-7792-49D8-B68D-92025E304353";
shapes = (
{
closed = 1;
nodes = (
(628,-16,o),
(736,10,o),
(835,63,c),
(901,11,o),
(977,-20,o),
(1055,-20,cs),
(1117,-20,o),
(1147,-12,o),
(1192,8,c),
(1194,46,l),
(1087,28,o),
(1022,35,o),
(942,141,c),
(1057,241,o),
(1148,389,o),
(1148,582,cs),
(1148,647,o),
(1144,683,o),
(1141,697,c),
(1158,694,o),
(1178,695,o),
(1196,695,cs),
(1213,695,o),
(1252,701,o),
(1287,721,c),
(1287,764,l),
(1255,744,o),
(1195,747,o),
(1165,747,cs),
(1056,747,o),
(1030,769,o),
(936,769,cs),
(898,769,o),
(868,757,o),
(852,741,c),
(852,699,l),
(874,714,o),
(908,717,o),
(934,717,cs),
(964,717,o),
(989,713,o),
(1003,706,c),
(1012,691,o),
(1019,652,o),
(1019,571,cs),
(1019,350,o),
(956,273,o),
(894,197,c),
(790,328,o),
(631,580,o),
(528,764,c),
(798,916,o),
(960,1058,o),
(960,1235,cs),
(960,1373,o),
(868,1504,o),
(680,1504,cs),
(459,1504,o),
(278,1337,o),
(278,1094,cs),
(278,982,o),
(317,848,o),
(386,730,c),
(212,633,o),
(43,523,o),
(43,314,cs),
(43,76,o),
(262,-16,o),
(501,-16,cs)
);
},
{
closed = 1;
nodes = (
(329,42,o),
(188,167,o),
(188,348,cs),
(188,486,o),
(262,614,o),
(404,696,c),
(562,416,o),
(649,278,o),
(782,116,c),
(714,81,o),
(629,42,o),
(520,42,cs)
);
},
{
closed = 1;
nodes = (
(455,909,o),
(415,1010,o),
(415,1137,cs),
(415,1343,o),
(524,1456,o),
(656,1456,cs),
(741,1456,o),
(826,1403,o),
(826,1239,cs),
(826,998,o),
(638,885,o),
(509,798,c)
);
}
);
width = 1292;
},
{
layerId = "7A2136B0-3E1D-476B-B826-4714342A6FC2";
shapes = (
{
closed = 1;
nodes = (
(745,-17,o),
(821,16,o),
(877,53,c),
(938,22,o),
(1003,-14,o),
(1121,-14,cs),
(1196,-14,o),
(1327,2,o),
(1342,19,c),
(1347,62,l),
(1253,82,o),
(1177,166,o),
(1130,238,c),
(1240,348,o),
(1335,527,o),
(1341,648,cs),
(1343,680,o),
(1343,702,o),
(1343,715,c),
(1349,715,o),
(1360,715,o),
(1368,715,cs),
(1387,715,o),
(1421,722,o),
(1455,740,c),
(1454,784,l),
(1424,764,o),
(1359,767,o),
(1329,767,cs),
(1226,767,o),
(1197,789,o),
(1104,789,cs),
(1067,789,o),
(1037,777,o),
(1022,761,c),
(1022,718,l),
(1044,734,o),
(1076,737,o),
(1103,737,cs),
(1131,737,o),
(1157,733,o),
(1170,726,c),
(1179,711,o),
(1184,655,o),
(1184,592,cs),
(1184,465,o),
(1129,356,o),
(1076,302,c),
(1020,375,o),
(887,595,o),
(738,827,c),
(872,892,o),
(1117,997,o),
(1117,1228,cs),
(1117,1389,o),
(1015,1505,o),
(791,1505,cs),
(523,1505,o),
(294,1359,o),
(294,1065,cs),
(294,963,o),
(348,828,o),
(425,695,c),
(212,649,o),
(44,512,o),
(44,302,cs),
(44,107,o),
(213,-17,o),
(542,-17,cs)
);
},
{
closed = 1;
nodes = (
(472,42,o),
(334,167,o),
(334,394,cs),
(334,572,o),
(386,618,o),
(445,668,c),
(571,434,o),
(725,233,o),
(826,105,c),
(764,64,o),
(718,42,o),
(659,42,cs)
);
},
{
closed = 1;
nodes = (
(644,976,o),
(610,1087,o),
(610,1198,cs),
(610,1374,o),
(681,1447,o),
(778,1447,cs),
(851,1447,o),
(877,1384,o),
(877,1282,cs),
(877,1115,o),
(812,946,o),
(718,858,c)
);
}
);
width = 1391;
}
);
unicode = 38;
userData = {
KernOnSpecialSpacing = {
L = symbols;
R = symbols;
};
};
}
{
glyphname = quotesingle;
layers = (
{
layerId = "0C3FD5EE-D923-4A4A-8FDE-164881635915";
shapes = (
{
closed = 1;
nodes = (
(234,944,l),
(346,944,l),
(495,1648,l),
(320,1648,l)
);
}
);
width = 495;
},
{
layerId = "27298932-82AF-4578-9425-6304FDB19058";
shapes = (
{
closed = 1;
nodes = (
(214,944,l),
(407,944,l),
(571,1648,l),
(294,1648,l)
);
}
);
width = 586;
},
{
layerId = "9079322E-D2EB-4437-A6B9-48C6726F1892";
shapes = (
{
closed = 1;
nodes = (
(192,944,l),
(385,944,l),
(549,1648,l),
(272,1648,l)
);
}
);
width = 543;
},
{
layerId = "AB43ED1F-BEAA-4517-9B18-06741265F15E";
shapes = (
{
closed = 1;
nodes = (
(208,944,l),
(320,944,l),
(469,1648,l),
(294,1648,l)
);
}
);
width = 429;
},
{
layerId = "0E81F995-ADCA-4265-BF48-502C19DBCB17";
shapes = (
{
closed = 1;
nodes = (
(301,846,l),
(370,846,l),
(599,1682,l),
(304,1682,l)
);
}
);
width = 576;
},
{
layerId = "10D406F4-E64B-40B9-806E-EB589F33F511";
shapes = (
{
closed = 1;
nodes = (
(266,944,l),
(322,944,l),
(497,1644,l),
(348,1644,l)
);
}
);
width = 516;
},
{
layerId = "2795BD5C-FE1E-44B5-B1D3-799347E852FC";
shapes = (
{
closed = 1;
nodes = (
(301,846,l),
(370,846,l),
(599,1682,l),
(304,1682,l)
);
}
);
width = 576;
},
{
layerId = "95CCB04D-97EC-4126-A206-216E0B8EC505";
shapes = (
{
closed = 1;
nodes = (
(236,944,l),
(292,944,l),
(467,1644,l),
(318,1644,l)
);
}
);
width = 466;
},
{
layerId = "8587C386-9485-4E77-8679-63F1A494C2C0";
shapes = (
{
closed = 1;
nodes = (
(248,944,l),
(360,944,l),
(509,1648,l),
(334,1648,l)
);
}
);
width = 516;
},
{
layerId = "F8806197-5953-4DD8-B2B5-EF301301BB43";
shapes = (
{
closed = 1;
nodes = (
(182,944,l),
(355,944,l),
(519,1648,l),
(262,1648,l)
);
}
);
width = 499;
},
{
layerId = "F318CEA5-7792-49D8-B68D-92025E304353";
shapes = (
{
closed = 1;
nodes = (
(246,944,l),
(302,944,l),
(477,1644,l),
(328,1644,l)
);
}
);
width = 481;
},
{
layerId = "7A2136B0-3E1D-476B-B826-4714342A6FC2";
shapes = (
{
closed = 1;
nodes = (
(301,846,l),
(370,846,l),
(599,1682,l),
(304,1682,l)
);
}
);
width = 576;
}
);
unicode = 39;
userData = {
KernOnName = quotesingle;
KernOnSpecialSpacing = {
L = quotes;
R = quotes;
};
};
}
{
glyphname = parenleft;
kernLeft = KO_parenleft;
kernRight = KO_parenleft;
layers = (
{
layerId = "0C3FD5EE-D923-4A4A-8FDE-164881635915";
shapes = (
{
closed = 1;
nodes = (
(196,25,o),
(466,-271,o),
(538,-319,c),
(623,-270,l),
(542,-205,o),
(358,94,o),
(358,531,cs),
(358,989,o),
(565,1443,o),
(878,1646,c),
(808,1696,l),
(453,1496,o),
(196,1019,o),
(196,525,cs)
);
}
);
width = 835;
},
{
layerId = "27298932-82AF-4578-9425-6304FDB19058";
shapes = (
{
closed = 1;
nodes = (
(173,12,o),
(472,-291,o),
(544,-339,c),
(689,-261,l),
(619,-203,o),
(436,125,o),
(436,530,cs),
(436,975,o),
(543,1314,o),
(932,1644,c),
(812,1729,l),
(436,1515,o),
(173,1092,o),
(173,563,cs)
);
}
);
width = 856;
},
{
layerId = "9079322E-D2EB-4437-A6B9-48C6726F1892";
shapes = (
{
closed = 1;
nodes = (
(110,-8,o),
(434,-291,o),
(509,-339,c),
(660,-261,l),
(587,-203,o),
(363,125,o),
(389,580,cs),
(409,915,o),
(507,1284,o),
(912,1644,c),
(788,1729,l),
(385,1485,o),
(116,1052,o),
(113,543,cs)
);
}
);
width = 810;
},
{
layerId = "AB43ED1F-BEAA-4517-9B18-06741265F15E";
shapes = (
{
closed = 1;
nodes = (
(196,-5,o),
(466,-271,o),
(538,-319,c),
(623,-270,l),
(542,-205,o),
(358,64,o),
(358,551,cs),
(358,1069,o),
(578,1444,o),
(888,1646,c),
(818,1696,l),
(466,1497,o),
(196,1099,o),
(196,545,cs)
);
}
);
width = 835;
},
{
layerId = "0E81F995-ADCA-4265-BF48-502C19DBCB17";
shapes = (
{
closed = 1;
nodes = (
(164,-1,o),
(549,-203,o),
(653,-255,c),
(705,-231,l),
(635,-163,o),
(474,107,o),
(474,527,cs),
(474,1032,o),
(642,1367,o),
(975,1619,c),
(926,1652,l),
(490,1461,o),
(164,1108,o),
(164,582,cs)
);
}
);
width = 922;
},
{
layerId = "10D406F4-E64B-40B9-806E-EB589F33F511";
shapes = (
{
closed = 1;
nodes = (
(106,60,o),
(387,-200,o),
(458,-245,c),
(510,-215,l),
(431,-164,o),
(234,104,o),
(234,502,cs),
(234,912,o),
(433,1445,o),
(787,1628,c),
(751,1652,l),
(346,1455,o),
(106,992,o),
(106,527,cs)
);
}
);
width = 677;
},
{
layerId = "2795BD5C-FE1E-44B5-B1D3-799347E852FC";
shapes = (
{
closed = 1;
nodes = (
(164,-1,o),
(584,-223,o),
(693,-275,c),
(747,-251,l),
(674,-183,o),
(486,87,o),
(486,527,cs),
(486,1032,o),
(681,1427,o),
(1027,1619,c),
(976,1652,l),
(523,1521,o),
(164,1108,o),
(164,582,cs)
);
}
);
width = 960;
},
{
layerId = "95CCB04D-97EC-4126-A206-216E0B8EC505";
shapes = (
{
closed = 1;
nodes = (
(104,60,o),
(396,-200,o),
(470,-245,c),
(524,-215,l),
(442,-164,o),
(237,104,o),
(237,502,cs),
(237,882,o),
(444,1445,o),
(812,1628,c),
(775,1652,l),
(354,1455,o),
(104,962,o),
(104,527,cs)
);
}
);
width = 712;
},
{
layerId = "8587C386-9485-4E77-8679-63F1A494C2C0";
shapes = (
{
closed = 1;
nodes = (
(196,25,o),
(466,-271,o),
(538,-319,c),
(623,-270,l),
(542,-205,o),
(358,94,o),
(358,571,cs),
(358,1009,o),
(565,1443,o),
(888,1646,c),
(818,1696,l),
(453,1496,o),
(196,1039,o),
(196,565,cs)
);
}
);
width = 835;
},
{
layerId = "F8806197-5953-4DD8-B2B5-EF301301BB43";
shapes = (
{
closed = 1;
nodes = (
(173,12,o),
(447,-264,o),
(529,-339,c),
(668,-261,l),
(588,-176,o),
(425,105,o),
(425,580,cs),
(425,954,o),
(539,1384,o),
(902,1644,c),
(786,1729,l),
(437,1545,o),
(173,1111,o),
(173,593,cs)
);
}
);
width = 870;
},
{
layerId = "F318CEA5-7792-49D8-B68D-92025E304353";
shapes = (
{
closed = 1;
nodes = (
(107,60,o),
(366,-200,o),
(434,-245,c),
(484,-215,l),
(408,-164,o),
(230,104,o),
(230,502,cs),
(230,912,o),
(423,1445,o),
(763,1628,c),
(728,1652,l),
(339,1455,o),
(107,992,o),
(107,527,cs)
);
}
);
width = 670;
},
{
layerId = "7A2136B0-3E1D-476B-B826-4714342A6FC2";
shapes = (
{
closed = 1;
nodes = (
(164,-1,o),
(519,-203,o),
(623,-255,c),
(675,-231,l),
(605,-163,o),
(470,106,o),
(470,527,cs),
(470,1031,o),
(612,1397,o),
(945,1619,c),
(896,1652,l),
(460,1491,o),
(164,1108,o),
(164,582,cs)
);
}
);
width = 892;
}
);
unicode = 40;
userData = {
KernOnName = parenleft;
KernOnSpecialSpacing = {
R = parenthesis;
};
};
}
{
glyphname = asterisk;
layers = (
{
layerId = "0C3FD5EE-D923-4A4A-8FDE-164881635915";
shapes = (
{
closed = 1;
nodes = (
(236,802,l),
(525,994,l),
(629,1070,l),
(603,954,l),
(542,626,l),
(693,626,l),
(689,953,l),
(685,1071,l),
(770,994,l),
(1013,796,l),
(1103,932,l),
(821,1070,l),
(716,1117,l),
(835,1163,l),
(1150,1300,l),
(1089,1435,l),
(799,1241,l),
(694,1165,l),
(720,1285,l),
(781,1615,l),
(630,1615,l),
(632,1286,l),
(640,1165,l),
(551,1241,l),
(303,1439,l),
(213,1304,l),
(500,1163,l),
(609,1117,l),
(488,1072,l),
(175,937,l)
);
}
);
width = 1161;
},
{
layerId = "27298932-82AF-4578-9425-6304FDB19058";
shapes = (
{
closed = 1;
nodes = (
(295,765,l),
(627,998,l),
(677,1041,l),
(659,981,l),
(572,597,l),
(840,595,l),
(832,975,l),
(826,1049,l),
(871,1000,l),
(1156,767,l),
(1306,986,l),
(960,1136,l),
(904,1157,l),
(970,1179,l),
(1338,1327,l),
(1236,1548,l),
(905,1314,l),
(851,1276,l),
(870,1334,l),
(957,1717,l),
(691,1721,l),
(696,1340,l),
(703,1269,l),
(657,1312,l),
(376,1546,l),
(226,1329,l),
(568,1179,l),
(628,1159,l),
(558,1136,l),
(192,988,l)
);
}
);
width = 1367;
},
{
layerId = "9079322E-D2EB-4437-A6B9-48C6726F1892";
shapes = (
{
closed = 1;
nodes = (
(306,765,l),
(645,998,l),
(696,1041,l),
(677,981,l),
(589,597,l),
(862,595,l),
(854,975,l),
(848,1049,l),
(894,1000,l),
(1184,767,l),
(1337,986,l),
(984,1136,l),
(927,1157,l),
(995,1179,l),
(1370,1327,l),
(1266,1548,l),
(928,1314,l),
(873,1276,l),
(893,1334,l),
(981,1717,l),
(710,1721,l),
(715,1340,l),
(722,1269,l),
(675,1312,l),
(389,1546,l),
(236,1329,l),
(585,1179,l),
(646,1159,l),
(574,1136,l),
(201,988,l)
);
}
);
width = 1408;
},
{
layerId = "AB43ED1F-BEAA-4517-9B18-06741265F15E";
shapes = (
{
closed = 1;
nodes = (
(226,802,l),
(521,994,l),
(627,1070,l),
(601,954,l),
(538,626,l),
(692,626,l),
(688,953,l),
(684,1071,l),
(771,994,l),
(1019,796,l),
(1111,932,l),
(823,1070,l),
(716,1117,l),
(837,1163,l),
(1158,1300,l),
(1096,1435,l),
(800,1241,l),
(693,1165,l),
(720,1285,l),
(782,1615,l),
(628,1615,l),
(630,1286,l),
(638,1165,l),
(548,1241,l),
(295,1439,l),
(203,1304,l),
(495,1163,l),
(607,1117,l),
(483,1072,l),
(164,937,l)
);
}
);
width = 1159;
},
{
layerId = "0E81F995-ADCA-4265-BF48-502C19DBCB17";
shapes = (
{
closed = 1;
nodes = (
(248,782,l),
(529,1033,l),
(600,1098,l),
(558,1007,l),
(430,649,l),
(738,647,l),
(692,992,l),
(680,1090,l),
(736,1025,l),
(972,782,l),
(1136,1028,l),
(796,1128,l),
(718,1148,l),
(805,1167,l),
(1174,1265,l),
(1056,1532,l),
(767,1279,l),
(688,1207,l),
(734,1308,l),
(862,1665,l),
(555,1669,l),
(592,1323,l),
(610,1216,l),
(546,1288,l),
(313,1532,l),
(146,1276,l),
(486,1177,l),
(575,1158,l),
(479,1140,l),
(130,1061,l)
);
}
);
width = 1110;
},
{
layerId = "10D406F4-E64B-40B9-806E-EB589F33F511";
shapes = (
{
closed = 1;
nodes = (
(229,980,l),
(447,1124,l),
(561,1216,l),
(516,1081,l),
(462,838,l),
(583,838,l),
(591,1082,l),
(579,1216,l),
(670,1125,l),
(851,986,l),
(926,1091,l),
(716,1190,l),
(590,1232,l),
(726,1275,l),
(962,1379,l),
(915,1484,l),
(697,1340,l),
(583,1248,l),
(628,1383,l),
(681,1626,l),
(560,1626,l),
(553,1382,l),
(565,1248,l),
(474,1339,l),
(293,1478,l),
(218,1373,l),
(428,1274,l),
(553,1232,l),
(418,1189,l),
(182,1085,l)
);
}
);
width = 944;
},
{
layerId = "2795BD5C-FE1E-44B5-B1D3-799347E852FC";
shapes = (
{
closed = 1;
nodes = (
(275,782,l),
(562,1033,l),
(634,1098,l),
(591,1007,l),
(460,649,l),
(775,647,l),
(728,992,l),
(716,1090,l),
(773,1025,l),
(1014,782,l),
(1181,1028,l),
(834,1128,l),
(754,1148,l),
(843,1167,l),
(1220,1265,l),
(1099,1532,l),
(804,1279,l),
(724,1207,l),
(771,1308,l),
(901,1665,l),
(588,1669,l),
(626,1323,l),
(644,1216,l),
(579,1288,l),
(341,1532,l),
(171,1276,l),
(518,1177,l),
(608,1158,l),
(510,1140,l),
(154,1061,l)
);
}
);
width = 1181;
},
{
layerId = "95CCB04D-97EC-4126-A206-216E0B8EC505";
shapes = (
{
closed = 1;
nodes = (
(239,980,l),
(457,1124,l),
(571,1216,l),
(526,1081,l),
(472,838,l),
(593,838,l),
(601,1082,l),
(589,1216,l),
(680,1125,l),
(861,986,l),
(936,1091,l),
(726,1190,l),
(600,1232,l),
(736,1275,l),
(972,1379,l),
(925,1484,l),
(707,1340,l),
(593,1248,l),
(638,1383,l),
(691,1626,l),
(570,1626,l),
(563,1382,l),
(575,1248,l),
(484,1339,l),
(303,1478,l),
(228,1373,l),
(438,1274,l),
(563,1232,l),
(428,1189,l),
(192,1085,l)
);
}
);
width = 964;
},
{
layerId = "8587C386-9485-4E77-8679-63F1A494C2C0";
shapes = (
{
closed = 1;
nodes = (
(214,802,l),
(489,994,l),
(587,1070,l),
(563,954,l),
(505,626,l),
(648,626,l),
(644,953,l),
(641,1071,l),
(721,994,l),
(952,796,l),
(1038,932,l),
(770,1070,l),
(670,1117,l),
(783,1163,l),
(1082,1300,l),
(1024,1435,l),
(749,1241,l),
(649,1165,l),
(674,1285,l),
(732,1615,l),
(588,1615,l),
(590,1286,l),
(598,1165,l),
(513,1241,l),
(278,1439,l),
(192,1304,l),
(465,1163,l),
(568,1117,l),
(453,1072,l),
(156,937,l)
);
}
);
width = 1075;
},
{
layerId = "F8806197-5953-4DD8-B2B5-EF301301BB43";
shapes = (
{
closed = 1;
nodes = (
(272,765,l),
(587,998,l),
(635,1041,l),
(618,981,l),
(535,597,l),
(790,595,l),
(782,975,l),
(776,1049,l),
(819,1000,l),
(1090,767,l),
(1232,986,l),
(904,1136,l),
(850,1157,l),
(913,1179,l),
(1263,1327,l),
(1166,1548,l),
(851,1314,l),
(800,1276,l),
(818,1334,l),
(901,1717,l),
(648,1721,l),
(653,1340,l),
(659,1269,l),
(616,1312,l),
(349,1546,l),
(206,1329,l),
(531,1179,l),
(588,1159,l),
(522,1136,l),
(174,988,l)
);
}
);
width = 1273;
},
{
layerId = "F318CEA5-7792-49D8-B68D-92025E304353";
shapes = (
{
closed = 1;
nodes = (
(229,980,l),
(436,1124,l),
(544,1216,l),
(501,1081,l),
(450,838,l),
(565,838,l),
(573,1082,l),
(561,1216,l),
(648,1125,l),
(820,986,l),
(891,1091,l),
(691,1190,l),
(572,1232,l),
(701,1275,l),
(925,1379,l),
(880,1484,l),
(673,1340,l),
(565,1248,l),
(608,1383,l),
(658,1626,l),
(543,1626,l),
(536,1382,l),
(548,1248,l),
(461,1339,l),
(289,1478,l),
(218,1373,l),
(418,1274,l),
(536,1232,l),
(408,1189,l),
(184,1085,l)
);
}
);
width = 909;
},
{
layerId = "7A2136B0-3E1D-476B-B826-4714342A6FC2";
shapes = (
{
closed = 1;
nodes = (
(246,782,l),
(522,1033,l),
(591,1098,l),
(550,1007,l),
(424,649,l),
(727,647,l),
(681,992,l),
(670,1090,l),
(725,1025,l),
(956,782,l),
(1116,1028,l),
(783,1128,l),
(706,1148,l),
(792,1167,l),
(1154,1265,l),
(1038,1532,l),
(754,1279,l),
(678,1207,l),
(723,1308,l),
(848,1665,l),
(547,1669,l),
(583,1323,l),
(601,1216,l),
(538,1288,l),
(310,1532,l),
(146,1276,l),
(480,1177,l),
(566,1158,l),
(472,1140,l),
(130,1061,l)
);
}
);
width = 1090;
}
);
metricLeft = exclam;
metricRight = exclam;
unicode = 42;
userData = {
KernOnSpecialSpacing = {
L = quotes;
R = quotes;
};
};
}
{
glyphname = plus;
layers = (
{
layerId = "0C3FD5EE-D923-4A4A-8FDE-164881635915";
shapes = (
{
closed = 1;
nodes = (
(494,188,l),
(633,188,l),
(661,415,l),
(676,588,l),
(803,582,l),
(1053,582,l),
(1065,710,l),
(817,710,l),
(688,702,l),
(718,875,l),
(742,1099,l),
(605,1099,l),
(577,875,l),
(561,702,l),
(408,710,l),
(189,710,l),
(175,582,l),
(393,582,l),
(550,588,l),
(522,415,l)
);
}
);
width = 1217;
},
{
layerId = "27298932-82AF-4578-9425-6304FDB19058";
shapes = (
{
closed = 1;
nodes = (
(454,164,l),
(665,164,l),
(693,400,l),
(703,560,l),
(812,554,l),
(1052,554,l),
(1070,744,l),
(849,744,l),
(737,734,l),
(765,894,l),
(791,1120,l),
(579,1120,l),
(553,894,l),
(541,734,l),
(404,744,l),
(194,744,l),
(176,554,l),
(367,554,l),
(506,560,l),
(480,400,l)
);
}
);
width = 1220;
},
{
layerId = "9079322E-D2EB-4437-A6B9-48C6726F1892";
shapes = (
{
closed = 1;
nodes = (
(501,165,l),
(721,165,l),
(749,401,l),
(758,561,l),
(885,555,l),
(1156,555,l),
(1171,745,l),
(918,745,l),
(789,735,l),
(818,895,l),
(843,1121,l),
(622,1121,l),
(596,895,l),
(585,735,l),
(427,745,l),
(190,745,l),
(174,555,l),
(394,555,l),
(554,561,l),
(527,401,l)
);
}
);
width = 1320;
},
{
layerId = "AB43ED1F-BEAA-4517-9B18-06741265F15E";
shapes = (
{
closed = 1;
nodes = (
(537,182,l),
(676,182,l),
(704,418,l),
(719,591,l),
(846,585,l),
(1142,585,l),
(1154,713,l),
(860,713,l),
(731,705,l),
(761,878,l),
(785,1102,l),
(648,1102,l),
(620,878,l),
(604,705,l),
(451,713,l),
(186,713,l),
(172,585,l),
(436,585,l),
(593,591,l),
(565,418,l)
);
}
);
width = 1302;
},
{
layerId = "0E81F995-ADCA-4265-BF48-502C19DBCB17";
shapes = (
{
closed = 1;
nodes = (
(477,117,l),
(569,117,l),
(601,320,l),
(630,527,l),
(837,527,l),
(1008,527,l),
(1018,607,l),
(847,607,l),
(637,607,l),
(669,816,l),
(699,1014,l),
(607,1014,l),
(577,816,l),
(548,607,l),
(312,607,l),
(159,607,l),
(149,527,l),
(302,527,l),
(538,527,l),
(509,320,l)
);
}
);
width = 1150;
},
{
layerId = "10D406F4-E64B-40B9-806E-EB589F33F511";
shapes = (
{
closed = 1;
nodes = (
(477,117,l),
(569,117,l),
(601,320,l),
(630,527,l),
(837,527,l),
(1008,527,l),
(1018,607,l),
(847,607,l),
(637,607,l),
(669,816,l),
(699,1014,l),
(607,1014,l),
(577,816,l),
(548,607,l),
(312,607,l),
(159,607,l),
(149,527,l),
(302,527,l),
(538,527,l),
(509,320,l)
);
}
);
width = 1150;
},
{
layerId = "2795BD5C-FE1E-44B5-B1D3-799347E852FC";
shapes = (
{
closed = 1;
nodes = (
(480,117,l),
(572,117,l),
(604,320,l),
(633,527,l),
(850,527,l),
(1023,527,l),
(1033,607,l),
(860,607,l),
(640,607,l),
(672,816,l),
(702,1014,l),
(610,1014,l),
(580,816,l),
(551,607,l),
(305,607,l),
(154,607,l),
(144,527,l),
(295,527,l),
(541,527,l),
(512,320,l)
);
}
);
width = 1160;
},
{
layerId = "95CCB04D-97EC-4126-A206-216E0B8EC505";
shapes = (
{
closed = 1;
nodes = (
(480,117,l),
(572,117,l),
(604,320,l),
(633,527,l),
(850,527,l),
(1023,527,l),
(1033,607,l),
(860,607,l),
(640,607,l),
(672,816,l),
(702,1014,l),
(610,1014,l),
(580,816,l),
(551,607,l),
(305,607,l),
(154,607,l),
(144,527,l),
(295,527,l),
(541,527,l),
(512,320,l)
);
}
);
width = 1160;
},
{
layerId = "8587C386-9485-4E77-8679-63F1A494C2C0";
shapes = (
{
closed = 1;
nodes = (
(439,190,l),
(572,190,l),
(600,412,l),
(614,585,l),
(721,579,l),
(937,579,l),
(951,707,l),
(739,707,l),
(630,699,l),
(660,872,l),
(686,1096,l),
(553,1096,l),
(523,872,l),
(510,699,l),
(380,707,l),
(191,707,l),
(176,579,l),
(362,579,l),
(496,585,l),
(467,412,l)
);
}
);
width = 1104;
},
{
layerId = "F8806197-5953-4DD8-B2B5-EF301301BB43";
shapes = (
{
closed = 1;
nodes = (
(428,164,l),
(634,164,l),
(662,400,l),
(673,560,l),
(757,554,l),
(989,554,l),
(1007,744,l),
(798,744,l),
(699,734,l),
(726,894,l),
(753,1120,l),
(546,1120,l),
(519,894,l),
(507,734,l),
(399,744,l),
(196,744,l),
(178,554,l),
(358,554,l),
(479,560,l),
(454,400,l)
);
}
);
width = 1159;
},
{
layerId = "F318CEA5-7792-49D8-B68D-92025E304353";
shapes = (
{
closed = 1;
nodes = (
(460,117,l),
(552,117,l),
(584,320,l),
(613,527,l),
(800,527,l),
(971,527,l),
(981,607,l),
(810,607,l),
(620,607,l),
(652,816,l),
(682,1014,l),
(590,1014,l),
(560,816,l),
(531,607,l),
(315,607,l),
(162,607,l),
(152,527,l),
(305,527,l),
(521,527,l),
(492,320,l)
);
}
);
width = 1116;
},
{
layerId = "7A2136B0-3E1D-476B-B826-4714342A6FC2";
shapes = (
{
closed = 1;
nodes = (
(460,117,l),
(552,117,l),
(584,320,l),
(613,527,l),
(800,527,l),
(971,527,l),
(981,607,l),
(810,607,l),
(620,607,l),
(652,816,l),
(682,1014,l),
(590,1014,l),
(560,816,l),
(531,607,l),
(315,607,l),
(162,607,l),
(152,527,l),
(305,527,l),
(521,527,l),
(492,320,l)
);
}
);
width = 1116;
}
);
metricLeft = hyphen;
metricRight = hyphen;
unicode = 43;
userData = {
KernOnSpecialSpacing = {
L = math;
R = math;
};
};
}
{
glyphname = period;
layers = (
{
anchors = (
{
name = _center;
pos = (148,100);
}
);
layerId = "0C3FD5EE-D923-4A4A-8FDE-164881635915";
shapes = (
{
closed = 1;
nodes = (
(37,18,o),
(73,-22,o),
(132,-22,cs),
(205,-22,o),
(257,39,o),
(257,127,cs),
(257,179,o),
(228,222,o),
(164,222,cs),
(104,222,o),
(37,166,o),
(37,84,cs)
);
}
);
width = 418;
},
{
anchors = (
{
name = _center;
pos = (198,154);
}
);
layerId = "27298932-82AF-4578-9425-6304FDB19058";
shapes = (
{
closed = 1;
nodes = (
(39,51,o),
(102,-15,o),
(174,-15,cs),
(281,-15,o),
(357,63,o),
(357,171,cs),
(357,258,o),
(302,325,o),
(218,325,cs),
(122,325,o),
(41,245,o),
(40,138,cs)
);
}
);
width = 507;
},
{
anchors = (
{
name = _center;
pos = (199,155);
}
);
layerId = "9079322E-D2EB-4437-A6B9-48C6726F1892";
shapes = (
{
closed = 1;
nodes = (
(39,50,o),
(102,-15,o),
(174,-15,cs),
(272,-15,o),
(357,45,o),
(357,173,cs),
(357,250,o),
(312,325,o),
(218,325,cs),
(122,325,o),
(41,254,o),
(40,137,cs)
);
}
);
width = 507;
},
{
anchors = (
{
name = _center;
pos = (178,100);
}
);
layerId = "AB43ED1F-BEAA-4517-9B18-06741265F15E";
shapes = (
{
closed = 1;
nodes = (
(38,26,o),
(78,-18,o),
(133,-18,cs),
(195,-18,o),
(250,18,o),
(259,95,cs),
(266,157,o),
(240,214,o),
(168,214,cs),
(110,214,o),
(54,168,o),
(46,95,cs)
);
}
);
width = 431;
},
{
anchors = (
{
name = _center;
pos = (162,135);
}
);
layerId = "0E81F995-ADCA-4265-BF48-502C19DBCB17";
shapes = (
{
closed = 1;
nodes = (
(21,30,o),
(79,-22,o),
(140,-22,cs),
(232,-22,o),
(303,43,o),
(303,162,cs),
(303,232,o),
(255,293,o),
(172,293,cs),
(88,293,o),
(21,218,o),
(21,110,cs)
);
}
);
width = 424;
},
{
anchors = (
{
name = _center;
pos = (111,77);
}
);
layerId = "10D406F4-E64B-40B9-806E-EB589F33F511";
shapes = (
{
closed = 1;
nodes = (
(15,10,o),
(50,-22,o),
(96,-22,cs),
(152,-22,o),
(209,27,o),
(209,96,cs),
(209,138,o),
(186,176,o),
(130,176,cs),
(73,176,o),
(15,125,o),
(15,59,cs)
);
}
);
width = 341;
},
{
anchors = (
{
name = _center;
pos = (169,135);
}
);
layerId = "2795BD5C-FE1E-44B5-B1D3-799347E852FC";
shapes = (
{
closed = 1;
nodes = (
(19,30,o),
(80,-22,o),
(144,-22,cs),
(229,-22,o),
(316,43,o),
(316,162,cs),
(316,244,o),
(257,293,o),
(180,293,cs),
(102,293,o),
(19,222,o),
(19,113,cs)
);
}
);
width = 435;
},
{
anchors = (
{
name = _center;
pos = (151,78);
}
);
layerId = "95CCB04D-97EC-4126-A206-216E0B8EC505";
shapes = (
{
closed = 1;
nodes = (
(61,10,o),
(87,-22,o),
(132,-22,cs),
(189,-22,o),
(240,27,o),
(240,96,cs),
(240,138,o),
(221,176,o),
(166,176,cs),
(108,176,o),
(61,125,o),
(61,59,cs)
);
}
);
width = 417;
},
{
anchors = (
{
name = _center;
pos = (142,99);
}
);
layerId = "8587C386-9485-4E77-8679-63F1A494C2C0";
shapes = (
{
closed = 1;
nodes = (
(29,26,o),
(69,-18,o),
(124,-18,cs),
(186,-18,o),
(241,18,o),
(250,95,cs),
(257,157,o),
(231,214,o),
(159,214,cs),
(101,214,o),
(45,168,o),
(37,95,cs)
);
}
);
width = 413;
},
{
anchors = (
{
name = _center;
pos = (193,156);
}
);
layerId = "F8806197-5953-4DD8-B2B5-EF301301BB43";
shapes = (
{
closed = 1;
nodes = (
(39,41,o),
(101,-15,o),
(173,-15,cs),
(261,-15,o),
(345,45,o),
(345,173,cs),
(345,260,o),
(296,325,o),
(203,325,cs),
(126,325,o),
(41,254,o),
(40,137,cs)
);
}
);
width = 495;
},
{
anchors = (
{
name = _center;
pos = (122,76);
}
);
layerId = "F318CEA5-7792-49D8-B68D-92025E304353";
shapes = (
{
closed = 1;
nodes = (
(25,10,o),
(60,-22,o),
(106,-22,cs),
(165,-22,o),
(219,27,o),
(219,96,cs),
(219,138,o),
(196,176,o),
(140,176,cs),
(82,176,o),
(25,125,o),
(25,59,cs)
);
}
);
width = 361;
},
{
anchors = (
{
name = _center;
pos = (139,137);
}
);
layerId = "7A2136B0-3E1D-476B-B826-4714342A6FC2";
shapes = (
{
closed = 1;
nodes = (
(4,30,o),
(56,-22,o),
(115,-22,cs),
(202,-22,o),
(274,43,o),
(274,162,cs),
(274,232,o),
(231,293,o),
(152,293,cs),
(70,293,o),
(4,218,o),
(4,110,cs)
);
}
);
width = 378;
}
);
unicode = 46;
userData = {
KernOnName = period;
KernOnSpecialSpacing = {
L = period;
R = period;
};
};
}
{
glyphname = slash;
kernLeft = KO_slash;
kernRight = KO_slash;
layers = (
{
layerId = "0C3FD5EE-D923-4A4A-8FDE-164881635915";
shapes = (
{
closed = 1;
nodes = (
(20,-354,l),
(862,1560,l),
(727,1560,l),
(-115,-354,l)
);
}
);
width = 794;
},
{
layerId = "27298932-82AF-4578-9425-6304FDB19058";
shapes = (
{
closed = 1;
nodes = (
(105,-354,l),
(947,1560,l),
(722,1560,l),
(-120,-354,l)
);
}
);
width = 834;
},
{
layerId = "9079322E-D2EB-4437-A6B9-48C6726F1892";
shapes = (
{
closed = 1;
nodes = (
(105,-354,l),
(947,1560,l),
(722,1560,l),
(-120,-354,l)
);
}
);
width = 834;
},
{
layerId = "AB43ED1F-BEAA-4517-9B18-06741265F15E";
shapes = (
{
closed = 1;
nodes = (
(20,-354,l),
(862,1560,l),
(727,1560,l),
(-115,-354,l)
);
}
);
width = 794;
},
{
layerId = "0E81F995-ADCA-4265-BF48-502C19DBCB17";
shapes = (
{
closed = 1;
nodes = (
(-25,-354,l),
(745,1562,l),
(674,1562,l),
(-98,-354,l)
);
}
);
width = 681;
},
{
layerId = "10D406F4-E64B-40B9-806E-EB589F33F511";
shapes = (
{
closed = 1;
nodes = (
(-10,-354,l),
(865,1560,l),
(765,1560,l),
(-112,-354,l)
);
}
);
width = 814;
},
{
layerId = "2795BD5C-FE1E-44B5-B1D3-799347E852FC";
shapes = (
{
closed = 1;
nodes = (
(-25,-354,l),
(745,1562,l),
(674,1562,l),
(-98,-354,l)
);
}
);
width = 681;
},
{
layerId = "95CCB04D-97EC-4126-A206-216E0B8EC505";
shapes = (
{
closed = 1;
nodes = (
(-12,-354,l),
(831,1560,l),
(730,1560,l),
(-112,-354,l)
);
}
);
width = 780;
},
{
layerId = "8587C386-9485-4E77-8679-63F1A494C2C0";
shapes = (
{
closed = 1;
nodes = (
(20,-354,l),
(862,1560,l),
(727,1560,l),
(-115,-354,l)
);
}
);
width = 794;
},
{
layerId = "F8806197-5953-4DD8-B2B5-EF301301BB43";
shapes = (
{
closed = 1;
nodes = (
(105,-354,l),
(947,1560,l),
(722,1560,l),
(-120,-354,l)
);
}
);
width = 834;
},
{
layerId = "F318CEA5-7792-49D8-B68D-92025E304353";
shapes = (
{
closed = 1;
nodes = (
(-12,-354,l),
(830,1560,l),
(730,1560,l),
(-112,-354,l)
);
}
);
width = 765;
},
{
layerId = "7A2136B0-3E1D-476B-B826-4714342A6FC2";
shapes = (
{
closed = 1;
nodes = (
(-25,-354,l),
(745,1562,l),
(674,1562,l),
(-98,-354,l)
);
}
);
width = 681;
}
);
unicode = 47;
userData = {
KernOnSpecialSpacing = {
L = slash;
R = slash;
};
};
}
{
glyphname = one;
kernLeft = KO_one;
kernRight = KO_one;
layers = (
{
anchors = (
{
name = top;
pos = (477,1660);
}
);
layerId = "0C3FD5EE-D923-4A4A-8FDE-164881635915";
shapes = (
{
closed = 1;
nodes = (
(81,0,l),
(719,0,l),
(727,72,l),
(487,94,l),
(667,1486,l),
(597,1504,l),
(490,1428,o),
(325,1338,o),
(187,1308,c),
(199,1228,l),
(305,1248,o),
(411,1284,o),
(483,1308,c),
(325,92,l),
(91,72,l)
);
}
);
width = 868;
},
{
anchors = (
{
name = top;
pos = (476,1660);
}
);
layerId = "27298932-82AF-4578-9425-6304FDB19058";
shapes = (
{
closed = 1;
nodes = (
(24,0,l),
(772,0,l),
(787,116,l),
(573,144,l),
(755,1470,l),
(587,1506,l),
(483,1432,o),
(271,1342,o),
(135,1312,c),
(163,1162,l),
(247,1176,o),
(323,1188,o),
(399,1206,c),
(253,144,l),
(41,116,l)
);
}
);
width = 884;
},
{
anchors = (
{
name = top;
pos = (490,1660);
}
);
layerId = "9079322E-D2EB-4437-A6B9-48C6726F1892";
shapes = (
{
closed = 1;
nodes = (
(38,0,l),
(801,0,l),
(816,116,l),
(599,144,l),
(781,1470,l),
(601,1506,l),
(497,1428,o),
(280,1341,o),
(144,1311,c),
(172,1161,l),
(256,1175,o),
(337,1188,o),
(413,1206,c),
(267,144,l),
(55,116,l)
);
}
);
width = 908;
},
{
anchors = (
{
name = top;
pos = (626,1446);
}
);
layerId = "AB43ED1F-BEAA-4517-9B18-06741265F15E";
shapes = (
{
closed = 1;
nodes = (
(61,0,l),
(699,0,l),
(707,72,l),
(472,94,l),
(652,1486,l),
(577,1504,l),
(470,1428,o),
(305,1338,o),
(167,1308,c),
(179,1228,l),
(285,1248,o),
(391,1284,o),
(463,1308,c),
(305,92,l),
(71,72,l)
);
}
);
width = 848;
},
{
anchors = (
{
name = top;
pos = (453,1660);
}
);
layerId = "0E81F995-ADCA-4265-BF48-502C19DBCB17";
shapes = (
{
closed = 1;
nodes = (
(-7,0,l),
(717,0,l),
(721,39,l),
(543,72,l),
(733,1460,l),
(555,1506,l),
(451,1404,o),
(313,1306,o),
(116,1247,c),
(127,1195,l),
(201,1200,o),
(317,1223,o),
(359,1234,c),
(200,72,l),
(-3,39,l)
);
}
);
width = 816;
},
{
anchors = (
{
name = top;
pos = (394,1660);
}
);
guides = (
{
angle = 262.632;
pos = (464,67);
},
{
angle = 90;
pos = (477,1326);
}
);
layerId = "10D406F4-E64B-40B9-806E-EB589F33F511";
shapes = (
{
closed = 1;
nodes = (
(27,0,l),
(651,0,l),
(655,36,l),
(418,67,l),
(601,1480,l),
(506,1504,l),
(412,1417,o),
(283,1341,o),
(136,1290,c),
(143,1241,l),
(256,1261,o),
(354,1292,o),
(428,1326,c),
(264,67,l),
(32,36,l)
);
}
);
width = 743;
},
{
anchors = (
{
name = top;
pos = (503,1660);
}
);
layerId = "2795BD5C-FE1E-44B5-B1D3-799347E852FC";
shapes = (
{
closed = 1;
nodes = (
(12,0,l),
(745,0,l),
(750,39,l),
(585,72,l),
(781,1450,l),
(561,1505,l),
(486,1429,o),
(310,1286,o),
(114,1247,c),
(122,1198,l),
(196,1203,o),
(307,1212,o),
(360,1234,c),
(192,72,l),
(17,39,l)
);
}
);
width = 842;
},
{
anchors = (
{
name = top;
pos = (466,1660);
}
);
layerId = "95CCB04D-97EC-4126-A206-216E0B8EC505";
shapes = (
{
closed = 1;
nodes = (
(43,0,l),
(681,0,l),
(685,36,l),
(451,67,l),
(634,1480,l),
(544,1504,l),
(450,1417,o),
(309,1341,o),
(142,1290,c),
(149,1241,l),
(282,1261,o),
(389,1292,o),
(463,1326,c),
(299,67,l),
(48,36,l)
);
}
);
width = 782;
},
{
anchors = (
{
name = top;
pos = (419,1660);
}
);
layerId = "8587C386-9485-4E77-8679-63F1A494C2C0";
shapes = (
{
closed = 1;
nodes = (
(35,0,l),
(673,0,l),
(681,72,l),
(441,94,l),
(621,1486,l),
(551,1504,l),
(447,1434,o),
(279,1338,o),
(141,1308,c),
(153,1228,l),
(259,1248,o),
(365,1284,o),
(437,1308,c),
(279,92,l),
(45,72,l)
);
}
);
width = 778;
},
{
anchors = (
{
name = top;
pos = (496,1660);
}
);
layerId = "F8806197-5953-4DD8-B2B5-EF301301BB43";
shapes = (
{
closed = 1;
nodes = (
(27,0,l),
(759,0,l),
(774,116,l),
(566,144,l),
(752,1470,l),
(606,1506,l),
(481,1429,o),
(270,1342,o),
(134,1312,c),
(162,1162,l),
(246,1176,o),
(332,1188,o),
(408,1206,c),
(258,144,l),
(44,116,l)
);
}
);
width = 862;
},
{
anchors = (
{
name = top;
pos = (421,1660);
}
);
guides = (
{
angle = 82.137;
pos = (371,30);
}
);
layerId = "F318CEA5-7792-49D8-B68D-92025E304353";
shapes = (
{
closed = 1;
nodes = (
(11,0,l),
(563,0,l),
(568,36,l),
(375,67,l),
(569,1489,l),
(476,1508,l),
(387,1414,o),
(277,1341,o),
(139,1290,c),
(144,1241,l),
(250,1261,o),
(323,1292,o),
(393,1326,c),
(223,67,l),
(16,36,l)
);
}
);
width = 652;
},
{
anchors = (
{
name = top;
pos = (427,1660);
}
);
layerId = "7A2136B0-3E1D-476B-B826-4714342A6FC2";
shapes = (
{
closed = 1;
nodes = (
(-5,0,l),
(719,0,l),
(723,39,l),
(545,72,l),
(735,1460,l),
(557,1506,l),
(453,1404,o),
(315,1306,o),
(118,1247,c),
(129,1194,l),
(203,1199,o),
(319,1223,o),
(361,1234,c),
(202,72,l),
(-1,39,l)
);
}
);
width = 820;
}
);
unicode = 49;
}
{
glyphname = four;
kernLeft = KO_four;
kernRight = KO_four;
layers = (
{
layerId = "0C3FD5EE-D923-4A4A-8FDE-164881635915";
shapes = (
{
closed = 1;
nodes = (
(816,0,l),
(872,363,l),
(1106,363,l),
(1123,493,l),
(892,481,l),
(954,879,l),
(804,832,l),
(734,476,l),
(184,450,l),
(227,504,o),
(274,556,o),
(311,606,cs),
(502,880,o),
(683,1167,o),
(809,1413,c),
(689,1487,l),
(652,1487,l),
(410,998,o),
(219,669,o),
(49,441,c),
(81,363,l),
(718,363,l),
(660,0,l)
);
}
);
width = 1172;
},
{
layerId = "27298932-82AF-4578-9425-6304FDB19058";
shapes = (
{
closed = 1;
nodes = (
(908,0,l),
(954,322,l),
(1134,321,l),
(1159,538,l),
(983,528,l),
(1031,879,l),
(773,832,l),
(691,509,l),
(253,486,l),
(305,534,o),
(349,590,o),
(391,638,cs),
(489,760,o),
(761,1192,o),
(871,1382,c),
(623,1507,l),
(565,1507,l),
(437,1205,o),
(228,753,o),
(26,451,c),
(87,321,l),
(661,322,l),
(611,0,l)
);
}
);
width = 1203;
},
{
layerId = "9079322E-D2EB-4437-A6B9-48C6726F1892";
shapes = (
{
closed = 1;
nodes = (
(989,0,l),
(1034,319,l),
(1209,317,l),
(1240,529,l),
(1062,519,l),
(1111,879,l),
(819,832,l),
(734,500,l),
(307,476,l),
(345,524,o),
(392,588,o),
(435,641,c),
(550,747,o),
(772,1235,o),
(867,1379,c),
(608,1509,l),
(549,1509,l),
(409,1223,o),
(199,694,o),
(35,442,c),
(118,317,l),
(707,319,l),
(657,0,l)
);
}
);
width = 1284;
},
{
layerId = "AB43ED1F-BEAA-4517-9B18-06741265F15E";
shapes = (
{
closed = 1;
nodes = (
(834,0,l),
(884,363,l),
(1126,363,l),
(1143,493,l),
(902,481,l),
(958,879,l),
(804,832,l),
(742,476,l),
(164,450,l),
(207,504,o),
(254,556,o),
(291,606,cs),
(482,880,o),
(703,1167,o),
(829,1413,c),
(709,1487,l),
(672,1487,l),
(410,998,o),
(199,669,o),
(29,441,c),
(61,363,l),
(725,363,l),
(675,0,l)
);
}
);
width = 1192;
},
{
guides = (
{
angle = 255.6354;
pos = (609,449);
},
{
angle = 261.5157;
pos = (1289,395);
},
{
angle = 183.2095;
pos = (81,421);
}
);
layerId = "0E81F995-ADCA-4265-BF48-502C19DBCB17";
shapes = (
{
closed = 1;
nodes = (
(910,0,l),
(955,321,l),
(1136,321,l),
(1158,489,l),
(978,472,l),
(1034,880,l),
(703,832,l),
(625,449,l),
(127,402,l),
(189,459,o),
(257,510,o),
(306,565,c),
(411,669,o),
(753,1164,o),
(882,1388,c),
(589,1507,l),
(502,1507,l),
(392,1205,o),
(191,694,o),
(19,442,c),
(97,321,l),
(598,321,l),
(551,0,l)
);
}
);
width = 1168;
},
{
guides = (
{
angle = 2.7213;
pos = (-79,426);
}
);
layerId = "10D406F4-E64B-40B9-806E-EB589F33F511";
shapes = (
{
closed = 1;
nodes = (
(804,0,l),
(851,363,l),
(1062,363,l),
(1077,473,l),
(866,461,l),
(923,879,l),
(769,832,l),
(706,452,l),
(100,416,l),
(145,463,o),
(188,516,o),
(254,593,c),
(403,804,o),
(623,1165,o),
(752,1411,c),
(629,1487,l),
(598,1487,l),
(373,998,o),
(195,683,o),
(34,430,c),
(62,363,l),
(695,363,l),
(647,0,l)
);
}
);
width = 1111;
},
{
layerId = "2795BD5C-FE1E-44B5-B1D3-799347E852FC";
shapes = (
{
closed = 1;
nodes = (
(999,0,l),
(1047,318,l),
(1217,318,l),
(1240,489,l),
(1074,473,l),
(1137,879,l),
(790,831,l),
(710,448,l),
(182,402,l),
(225,436,o),
(293,490,o),
(334,530,cs),
(436,624,o),
(825,1164,o),
(955,1386,c),
(688,1509,l),
(581,1509,l),
(455,1227,o),
(219,697,o),
(35,444,c),
(118,318,l),
(692,318,l),
(640,0,l)
);
}
);
width = 1252;
},
{
layerId = "95CCB04D-97EC-4126-A206-216E0B8EC505";
shapes = (
{
closed = 1;
nodes = (
(843,0,l),
(894,353,l),
(1127,353,l),
(1145,486,l),
(903,466,l),
(960,878,l),
(814,833,l),
(753,458,l),
(95,405,l),
(144,451,o),
(214,535,o),
(272,604,cs),
(451,817,o),
(684,1164,o),
(824,1414,c),
(716,1487,l),
(677,1487,l),
(435,1029,o),
(199,653,o),
(43,419,c),
(69,353,l),
(745,353,l),
(697,0,l)
);
}
);
width = 1187;
},
{
layerId = "8587C386-9485-4E77-8679-63F1A494C2C0";
shapes = (
{
closed = 1;
nodes = (
(758,0,l),
(814,363,l),
(1013,363,l),
(1031,493,l),
(832,483,l),
(895,879,l),
(746,832,l),
(674,476,l),
(167,450,l),
(205,504,o),
(247,556,o),
(279,606,c),
(436,874,o),
(601,1169,o),
(708,1413,c),
(586,1487,l),
(552,1487,l),
(357,1005,o),
(185,666,o),
(35,441,c),
(71,363,l),
(658,363,l),
(602,0,l)
);
}
);
width = 1074;
},
{
layerId = "F8806197-5953-4DD8-B2B5-EF301301BB43";
shapes = (
{
closed = 1;
nodes = (
(852,0,l),
(900,322,l),
(1050,321,l),
(1078,538,l),
(930,528,l),
(980,879,l),
(726,832,l),
(645,510,l),
(256,486,l),
(301,540,o),
(332,581,o),
(377,638,c),
(454,760,o),
(715,1189,o),
(816,1382,c),
(572,1507,l),
(496,1507,l),
(410,1207,o),
(162,695,o),
(24,442,c),
(92,321,l),
(610,322,l),
(558,0,l)
);
}
);
width = 1122;
},
{
layerId = "F318CEA5-7792-49D8-B68D-92025E304353";
shapes = (
{
closed = 1;
nodes = (
(741,0,l),
(790,353,l),
(969,353,l),
(982,486,l),
(801,466,l),
(858,879,l),
(719,832,l),
(652,458,l),
(82,405,l),
(125,449,o),
(183,516,o),
(242,593,cs),
(403,804,o),
(597,1175,o),
(723,1421,c),
(613,1487,l),
(584,1487,l),
(342,998,o),
(203,672,o),
(33,419,c),
(59,353,l),
(642,353,l),
(594,0,l)
);
}
);
width = 1019;
},
{
layerId = "7A2136B0-3E1D-476B-B826-4714342A6FC2";
shapes = (
{
closed = 1;
nodes = (
(900,0,l),
(944,321,l),
(1100,321,l),
(1120,486,l),
(966,472,l),
(1025,879,l),
(719,832,l),
(634,449,l),
(133,402,l),
(197,457,o),
(241,503,o),
(276,535,cs),
(381,639,o),
(742,1164,o),
(856,1388,c),
(594,1507,l),
(502,1507,l),
(396,1205,o),
(184,694,o),
(19,442,c),
(94,321,l),
(613,321,l),
(569,0,l)
);
}
);
width = 1130;
}
);
unicode = 52;
userData = {
KernOnName = four;
};
}
{
glyphname = five;
kernLeft = KO_five;
kernRight = KO_five;
layers = (
{
layerId = "0C3FD5EE-D923-4A4A-8FDE-164881635915";
shapes = (
{
closed = 1;
nodes = (
(78,2,l),
(116,-8,o),
(174,-14,o),
(208,-14,cs),
(636,-14,o),
(1001,249,o),
(1001,565,cs),
(1001,805,o),
(858,932,o),
(618,932,cs),
(512,932,o),
(394,908,o),
(332,882,c),
(454,1350,l),
(1024,1350,l),
(1072,1512,l),
(958,1512,l),
(926,1486,l),
(346,1486,l),
(184,800,l),
(222,770,l),
(300,800,o),
(389,834,o),
(519,834,cs),
(732,834,o),
(827,729,o),
(827,581,cs),
(827,249,o),
(494,76,o),
(178,76,cs),
(148,76,o),
(120,80,o),
(86,86,c)
);
}
);
width = 1100;
},
{
layerId = "27298932-82AF-4578-9425-6304FDB19058";
shapes = (
{
closed = 1;
nodes = (
(70,-14,l),
(96,-20,o),
(206,-38,o),
(268,-38,cs),
(738,-38,o),
(1044,223,o),
(1044,571,cs),
(1044,749,o),
(932,928,o),
(686,928,cs),
(528,928,o),
(449,898,o),
(373,860,c),
(529,1262,l),
(1041,1260,l),
(1097,1514,l),
(945,1514,l),
(921,1486,l),
(299,1486,l),
(136,744,l),
(196,698,l),
(242,722,o),
(354,756,o),
(454,756,cs),
(616,756,o),
(730,668,o),
(730,524,cs),
(730,324,o),
(582,110,o),
(200,110,cs),
(164,110,o),
(114,120,o),
(94,126,c)
);
}
);
width = 1127;
},
{
layerId = "9079322E-D2EB-4437-A6B9-48C6726F1892";
shapes = (
{
closed = 1;
nodes = (
(40,-14,l),
(68,-20,o),
(188,-38,o),
(256,-38,cs),
(715,-38,o),
(1102,223,o),
(1102,571,cs),
(1102,749,o),
(983,928,o),
(714,928,cs),
(525,928,o),
(390,888,o),
(351,860,c),
(519,1262,l),
(1109,1260,l),
(1173,1514,l),
(984,1514,l),
(958,1486,l),
(288,1486,l),
(112,744,l),
(178,698,l),
(228,722,o),
(366,756,o),
(485,756,cs),
(652,756,o),
(749,668,o),
(749,524,cs),
(749,324,o),
(544,110,o),
(182,110,cs),
(143,110,o),
(88,120,o),
(66,126,c)
);
}
);
width = 1164;
},
{
layerId = "AB43ED1F-BEAA-4517-9B18-06741265F15E";
shapes = (
{
closed = 1;
nodes = (
(58,2,l),
(98,-8,o),
(160,-14,o),
(266,-14,cs),
(691,-14,o),
(1014,254,o),
(1014,560,cs),
(1014,800,o),
(884,932,o),
(630,932,cs),
(518,932,o),
(393,908,o),
(327,882,c),
(447,1350,l),
(1051,1350,l),
(1102,1512,l),
(981,1512,l),
(947,1486,l),
(332,1486,l),
(170,800,l),
(211,770,l),
(293,800,o),
(418,834,o),
(530,834,cs),
(751,834,o),
(830,724,o),
(830,576,cs),
(830,254,o),
(551,76,o),
(234,76,cs),
(132,76,o),
(103,80,o),
(66,86,c)
);
}
);
width = 1114;
},
{
guides = (
{
pos = (-20,-36);
},
{
pos = (-72,40);
}
);
layerId = "0E81F995-ADCA-4265-BF48-502C19DBCB17";
shapes = (
{
closed = 1;
nodes = (
(18,40,l),
(93,1,o),
(184,-20,o),
(276,-20,cs),
(642,-20,o),
(994,202,o),
(994,541,cs),
(994,794,o),
(836,907,o),
(649,907,cs),
(484,907,o),
(314,829,o),
(176,726,c),
(347,1175,l),
(976,1175,l),
(1053,1514,l),
(968,1514,l),
(943,1486,l),
(265,1486,l),
(105,720,l),
(169,680,l),
(250,724,o),
(303,763,o),
(445,763,cs),
(578,763,o),
(633,656,o),
(633,488,cs),
(633,225,o),
(465,56,o),
(233,56,cs),
(149,56,o),
(84,73,o),
(27,93,c)
);
}
);
width = 1033;
},
{
layerId = "10D406F4-E64B-40B9-806E-EB589F33F511";
shapes = (
{
closed = 1;
nodes = (
(52,1,l),
(89,-8,o),
(136,-14,o),
(188,-14,cs),
(625,-14,o),
(923,240,o),
(923,565,cs),
(923,813,o),
(772,932,o),
(554,932,cs),
(425,932,o),
(278,877,o),
(171,800,c),
(376,1360,l),
(958,1360,l),
(1006,1512,l),
(948,1512,l),
(916,1486,l),
(270,1486,l),
(116,801,l),
(174,754,l),
(295,817,o),
(389,847,o),
(478,847,cs),
(659,847,o),
(767,741,o),
(757,543,cs),
(742,247,o),
(505,42,o),
(175,42,cs),
(133,42,o),
(89,47,o),
(57,53,c)
);
}
);
width = 989;
},
{
layerId = "2795BD5C-FE1E-44B5-B1D3-799347E852FC";
shapes = (
{
closed = 1;
nodes = (
(-11,40,l),
(73,1,o),
(174,-20,o),
(326,-20,cs),
(714,-20,o),
(1097,202,o),
(1097,574,cs),
(1097,794,o),
(931,907,o),
(713,907,cs),
(529,907,o),
(329,829,o),
(175,726,c),
(375,1175,l),
(1096,1175,l),
(1181,1514,l),
(1087,1514,l),
(1059,1486,l),
(284,1486,l),
(96,720,l),
(167,680,l),
(257,724,o),
(316,763,o),
(474,763,cs),
(623,763,o),
(705,656,o),
(705,518,cs),
(705,195,o),
(429,56,o),
(258,56,cs),
(115,56,o),
(62,73,o),
(-1,93,c)
);
}
);
width = 1132;
},
{
layerId = "95CCB04D-97EC-4126-A206-216E0B8EC505";
shapes = (
{
closed = 1;
nodes = (
(54,1,l),
(91,-8,o),
(148,-14,o),
(200,-14,cs),
(637,-14,o),
(945,240,o),
(945,565,cs),
(945,813,o),
(770,932,o),
(562,932,cs),
(423,932,o),
(300,883,o),
(173,800,c),
(378,1360,l),
(1000,1360,l),
(1048,1512,l),
(990,1512,l),
(958,1486,l),
(282,1486,l),
(118,801,l),
(176,754,l),
(297,817,o),
(397,847,o),
(486,847,cs),
(657,847,o),
(789,741,o),
(779,543,cs),
(764,247,o),
(517,42,o),
(187,42,cs),
(145,42,o),
(91,47,o),
(59,53,c)
);
}
);
width = 1021;
},
{
layerId = "8587C386-9485-4E77-8679-63F1A494C2C0";
shapes = (
{
closed = 1;
nodes = (
(59,2,l),
(92,-8,o),
(146,-14,o),
(182,-14,cs),
(567,-14,o),
(885,254,o),
(885,568,cs),
(885,801,o),
(762,932,o),
(559,932,cs),
(466,932,o),
(360,907,o),
(308,882,c),
(424,1348,l),
(936,1348,l),
(982,1512,l),
(876,1512,l),
(847,1486,l),
(317,1486,l),
(161,798,l),
(197,768,l),
(260,796,o),
(367,832,o),
(457,832,cs),
(645,832,o),
(713,725,o),
(713,580,cs),
(713,258,o),
(438,76,o),
(153,76,cs),
(126,76,o),
(97,81,o),
(69,86,c)
);
}
);
width = 983;
},
{
layerId = "F8806197-5953-4DD8-B2B5-EF301301BB43";
shapes = (
{
closed = 1;
nodes = (
(55,-14,l),
(79,-20,o),
(181,-38,o),
(239,-38,cs),
(630,-38,o),
(967,219,o),
(967,577,cs),
(967,755,o),
(865,928,o),
(624,928,cs),
(505,928,o),
(373,888,o),
(340,860,c),
(483,1262,l),
(978,1260,l),
(1038,1514,l),
(883,1514,l),
(861,1486,l),
(269,1486,l),
(119,744,l),
(175,698,l),
(218,722,o),
(292,756,o),
(402,756,cs),
(553,756,o),
(663,674,o),
(663,530,cs),
(663,320,o),
(495,110,o),
(176,110,cs),
(142,110,o),
(96,120,o),
(77,126,c)
);
}
);
width = 1029;
},
{
layerId = "F318CEA5-7792-49D8-B68D-92025E304353";
shapes = (
{
closed = 1;
nodes = (
(68,1,l),
(103,-8,o),
(148,-14,o),
(197,-14,cs),
(612,-14,o),
(885,270,o),
(885,565,cs),
(885,813,o),
(751,932,o),
(544,932,cs),
(421,932,o),
(283,877,o),
(181,800,c),
(376,1360,l),
(919,1360,l),
(964,1512,l),
(909,1512,l),
(879,1486,l),
(275,1486,l),
(129,801,l),
(184,754,l),
(299,817,o),
(378,847,o),
(463,847,cs),
(635,847,o),
(738,741,o),
(728,543,cs),
(715,277,o),
(498,42,o),
(185,42,cs),
(145,42,o),
(103,47,o),
(73,53,c)
);
}
);
width = 946;
},
{
layerId = "7A2136B0-3E1D-476B-B826-4714342A6FC2";
shapes = (
{
closed = 1;
nodes = (
(-12,40,l),
(59,1,o),
(144,-20,o),
(261,-20,cs),
(625,-20,o),
(930,226,o),
(930,545,cs),
(930,798,o),
(776,907,o),
(571,907,cs),
(415,907,o),
(266,829,o),
(137,726,c),
(307,1175,l),
(939,1175,l),
(1011,1514,l),
(931,1514,l),
(908,1486,l),
(230,1486,l),
(70,720,l),
(130,680,l),
(206,724,o),
(256,763,o),
(389,763,cs),
(514,763,o),
(585,660,o),
(585,492,cs),
(585,229,o),
(399,56,o),
(181,56,cs),
(102,56,o),
(50,73,o),
(-4,93,c)
);
}
);
width = 974;
}
);
unicode = 53;
}
{
glyphname = seven;
kernLeft = KO_seven;
kernRight = KO_seven;
layers = (
{
layerId = "0C3FD5EE-D923-4A4A-8FDE-164881635915";
shapes = (
{
closed = 1;
nodes = (
(291,0,l),
(485,0,l),
(1117,1449,l),
(1091,1486,l),
(216,1486,l),
(153,1159,l),
(267,1134,l),
(352,1363,l),
(975,1362,l)
);
}
);
width = 1070;
},
{
layerId = "27298932-82AF-4578-9425-6304FDB19058";
shapes = (
{
closed = 1;
nodes = (
(214,0,l),
(581,-2,l),
(1175,1436,l),
(1141,1486,l),
(172,1486,l),
(106,1075,l),
(292,1045,l),
(419,1260,l),
(936,1260,l)
);
}
);
width = 1076;
},
{
layerId = "9079322E-D2EB-4437-A6B9-48C6726F1892";
shapes = (
{
closed = 1;
nodes = (
(247,0,l),
(616,-2,l),
(1276,1435,l),
(1238,1486,l),
(195,1486,l),
(120,1068,l),
(335,1037,l),
(444,1260,l),
(1014,1260,l)
);
}
);
width = 1202;
},
{
layerId = "AB43ED1F-BEAA-4517-9B18-06741265F15E";
shapes = (
{
closed = 1;
nodes = (
(325,0,l),
(528,0,l),
(1173,1448,l),
(1144,1486,l),
(207,1486,l),
(143,1157,l),
(261,1132,l),
(350,1362,l),
(1026,1361,l)
);
}
);
width = 1139;
},
{
layerId = "0E81F995-ADCA-4265-BF48-502C19DBCB17";
shapes = (
{
closed = 1;
nodes = (
(243,0,l),
(601,-2,l),
(1156,1436,l),
(1118,1486,l),
(206,1486,l),
(134,982,l),
(207,971,l),
(303,1185,l),
(1004,1185,l)
);
}
);
width = 1077;
},
{
layerId = "10D406F4-E64B-40B9-806E-EB589F33F511";
shapes = (
{
closed = 1;
nodes = (
(289,4,l),
(458,0,l),
(1051,1449,l),
(1025,1486,l),
(191,1486,l),
(122,1159,l),
(171,1146,l),
(277,1371,l),
(951,1371,l)
);
}
);
width = 981;
},
{
layerId = "2795BD5C-FE1E-44B5-B1D3-799347E852FC";
shapes = (
{
closed = 1;
nodes = (
(257,0,l),
(654,-2,l),
(1203,1436,l),
(1162,1486,l),
(224,1486,l),
(132,970,l),
(210,959,l),
(312,1185,l),
(1054,1185,l)
);
}
);
width = 1124;
},
{
layerId = "95CCB04D-97EC-4126-A206-216E0B8EC505";
shapes = (
{
closed = 1;
nodes = (
(342,4,l),
(531,0,l),
(1125,1442,l),
(1102,1486,l),
(232,1486,l),
(159,1138,l),
(209,1130,l),
(308,1371,l),
(1034,1371,l)
);
}
);
width = 1048;
},
{
layerId = "8587C386-9485-4E77-8679-63F1A494C2C0";
shapes = (
{
closed = 1;
nodes = (
(264,0,l),
(457,0,l),
(1022,1449,l),
(998,1486,l),
(179,1486,l),
(117,1157,l),
(218,1132,l),
(310,1361,l),
(883,1360,l)
);
}
);
width = 981;
},
{
layerId = "F8806197-5953-4DD8-B2B5-EF301301BB43";
shapes = (
{
closed = 1;
nodes = (
(213,0,l),
(559,-2,l),
(1099,1436,l),
(1068,1486,l),
(186,1486,l),
(121,1074,l),
(302,1044,l),
(411,1260,l),
(865,1260,l)
);
}
);
width = 1025;
},
{
layerId = "F318CEA5-7792-49D8-B68D-92025E304353";
shapes = (
{
closed = 1;
nodes = (
(254,4,l),
(423,0,l),
(1027,1442,l),
(1004,1486,l),
(214,1486,l),
(140,1138,l),
(190,1130,l),
(290,1371,l),
(936,1371,l)
);
}
);
width = 939;
},
{
layerId = "7A2136B0-3E1D-476B-B826-4714342A6FC2";
shapes = (
{
closed = 1;
nodes = (
(211,0,l),
(565,-2,l),
(1132,1436,l),
(1094,1486,l),
(205,1486,l),
(133,977,l),
(197,967,l),
(287,1185,l),
(986,1185,l)
);
}
);
width = 1053;
}
);
unicode = 55;
userData = {
KernOnName = seven;
};
}
{
glyphname = less;
layers = (
{
layerId = "0C3FD5EE-D923-4A4A-8FDE-164881635915";
shapes = (
{
closed = 1;
nodes = (
(126,595,l),
(992,86,l),
(1010,215,l),
(270,643,l),
(1122,1058,l),
(1141,1206,l),
(138,699,l)
);
}
);
width = 1225;
},
{
layerId = "27298932-82AF-4578-9425-6304FDB19058";
shapes = (
{
closed = 1;
nodes = (
(123,581,l),
(993,83,l),
(1017,317,l),
(423,641,l),
(1093,952,l),
(1125,1203,l),
(139,705,l)
);
}
);
width = 1226;
},
{
layerId = "9079322E-D2EB-4437-A6B9-48C6726F1892";
shapes = (
{
closed = 1;
nodes = (
(120,581,l),
(1102,83,l),
(1123,317,l),
(424,641,l),
(1202,952,l),
(1231,1203,l),
(135,705,l)
);
}
);
width = 1331;
},
{
layerId = "AB43ED1F-BEAA-4517-9B18-06741265F15E";
shapes = (
{
closed = 1;
nodes = (
(122,595,l),
(1048,86,l),
(1066,215,l),
(266,643,l),
(1178,1058,l),
(1197,1206,l),
(134,699,l)
);
}
);
width = 1277;
},
{
layerId = "0E81F995-ADCA-4265-BF48-502C19DBCB17";
shapes = (
{
closed = 1;
nodes = (
(98,525,l),
(914,96,l),
(927,189,l),
(213,555,l),
(1034,927,l),
(1047,1030,l),
(108,596,l)
);
}
);
width = 1121;
},
{
layerId = "10D406F4-E64B-40B9-806E-EB589F33F511";
shapes = (
{
closed = 1;
nodes = (
(98,525,l),
(914,96,l),
(927,189,l),
(213,555,l),
(1034,927,l),
(1047,1030,l),
(108,596,l)
);
}
);
width = 1121;
},
{
layerId = "2795BD5C-FE1E-44B5-B1D3-799347E852FC";
shapes = (
{
closed = 1;
nodes = (
(93,525,l),
(899,96,l),
(912,189,l),
(208,555,l),
(1019,927,l),
(1032,1030,l),
(103,596,l)
);
}
);
width = 1101;
},
{
layerId = "95CCB04D-97EC-4126-A206-216E0B8EC505";
shapes = (
{
closed = 1;
nodes = (
(93,525,l),
(899,96,l),
(912,189,l),
(208,555,l),
(1019,927,l),
(1032,1030,l),
(103,596,l)
);
}
);
width = 1101;
},
{
layerId = "8587C386-9485-4E77-8679-63F1A494C2C0";
shapes = (
{
closed = 1;
nodes = (
(128,595,l),
(904,86,l),
(922,215,l),
(272,643,l),
(1034,1058,l),
(1053,1206,l),
(140,699,l)
);
}
);
width = 1139;
},
{
layerId = "F8806197-5953-4DD8-B2B5-EF301301BB43";
shapes = (
{
closed = 1;
nodes = (
(124,581,l),
(885,83,l),
(909,317,l),
(418,641,l),
(985,952,l),
(1017,1203,l),
(141,705,l)
);
}
);
width = 1120;
},
{
layerId = "F318CEA5-7792-49D8-B68D-92025E304353";
shapes = (
{
closed = 1;
nodes = (
(101,525,l),
(847,96,l),
(860,189,l),
(216,555,l),
(967,927,l),
(980,1030,l),
(111,596,l)
);
}
);
width = 1057;
},
{
layerId = "7A2136B0-3E1D-476B-B826-4714342A6FC2";
shapes = (
{
closed = 1;
nodes = (
(101,525,l),
(847,96,l),
(860,189,l),
(216,555,l),
(967,927,l),
(980,1030,l),
(111,596,l)
);
}
);
width = 1057;
}
);
metricLeft = "=hyphen-50";
metricRight = hyphen;
unicode = 60;
userData = {
KernOnSpecialSpacing = {
L = math;
R = math;
};
};
}
{
glyphname = equal;
layers = (
{
layerId = "0C3FD5EE-D923-4A4A-8FDE-164881635915";
shapes = (
{
closed = 1;
nodes = (
(312,830,l),
(1106,830,l),
(1120,957,l),
(324,957,l)
);
},
{
closed = 1;
nodes = (
(244,331,l),
(1038,331,l),
(1052,458,l),
(256,458,l)
);
}
);
width = 1338;
},
{
layerId = "27298932-82AF-4578-9425-6304FDB19058";
shapes = (
{
closed = 1;
nodes = (
(303,811,l),
(1104,811,l),
(1130,1001,l),
(329,1001,l)
);
},
{
closed = 1;
nodes = (
(232,284,l),
(1033,284,l),
(1059,474,l),
(257,474,l)
);
}
);
width = 1338;
},
{
layerId = "9079322E-D2EB-4437-A6B9-48C6726F1892";
shapes = (
{
closed = 1;
nodes = (
(263,811,l),
(1144,811,l),
(1170,1001,l),
(289,1001,l)
);
},
{
closed = 1;
nodes = (
(193,284,l),
(1073,284,l),
(1099,474,l),
(217,474,l)
);
}
);
width = 1338;
},
{
layerId = "AB43ED1F-BEAA-4517-9B18-06741265F15E";
shapes = (
{
closed = 1;
nodes = (
(292,830,l),
(1126,830,l),
(1140,957,l),
(304,957,l)
);
},
{
closed = 1;
nodes = (
(224,330,l),
(1058,330,l),
(1072,457,l),
(236,457,l)
);
}
);
width = 1338;
},
{
layerId = "0E81F995-ADCA-4265-BF48-502C19DBCB17";
shapes = (
{
closed = 1;
nodes = (
(283,778,l),
(1130,778,l),
(1142,862,l),
(295,862,l)
);
},
{
closed = 1;
nodes = (
(213,267,l),
(1060,267,l),
(1072,351,l),
(225,351,l)
);
}
);
width = 1338;
},
{
layerId = "10D406F4-E64B-40B9-806E-EB589F33F511";
shapes = (
{
closed = 1;
nodes = (
(283,778,l),
(1130,778,l),
(1142,862,l),
(295,862,l)
);
},
{
closed = 1;
nodes = (
(213,267,l),
(1060,267,l),
(1072,351,l),
(225,351,l)
);
}
);
width = 1338;
},
{
layerId = "2795BD5C-FE1E-44B5-B1D3-799347E852FC";
shapes = (
{
closed = 1;
nodes = (
(263,778,l),
(1150,778,l),
(1162,862,l),
(275,862,l)
);
},
{
closed = 1;
nodes = (
(193,267,l),
(1080,267,l),
(1092,351,l),
(205,351,l)
);
}
);
width = 1338;
},
{
layerId = "95CCB04D-97EC-4126-A206-216E0B8EC505";
shapes = (
{
closed = 1;
nodes = (
(263,778,l),
(1150,778,l),
(1162,862,l),
(275,862,l)
);
},
{
closed = 1;
nodes = (
(193,267,l),
(1080,267,l),
(1092,351,l),
(205,351,l)
);
}
);
width = 1338;
},
{
layerId = "8587C386-9485-4E77-8679-63F1A494C2C0";
shapes = (
{
closed = 1;
nodes = (
(327,830,l),
(1091,830,l),
(1105,957,l),
(339,957,l)
);
},
{
closed = 1;
nodes = (
(259,330,l),
(1023,330,l),
(1037,457,l),
(271,457,l)
);
}
);
width = 1338;
},
{
layerId = "F8806197-5953-4DD8-B2B5-EF301301BB43";
shapes = (
{
closed = 1;
nodes = (
(350,811,l),
(1061,811,l),
(1083,1001,l),
(372,1001,l)
);
},
{
closed = 1;
nodes = (
(279,284,l),
(990,284,l),
(1012,474,l),
(300,474,l)
);
}
);
width = 1338;
},
{
layerId = "F318CEA5-7792-49D8-B68D-92025E304353";
shapes = (
{
closed = 1;
nodes = (
(328,778,l),
(1085,778,l),
(1097,862,l),
(340,862,l)
);
},
{
closed = 1;
nodes = (
(258,267,l),
(1015,267,l),
(1027,351,l),
(270,351,l)
);
}
);
width = 1338;
},
{
layerId = "7A2136B0-3E1D-476B-B826-4714342A6FC2";
shapes = (
{
closed = 1;
nodes = (
(328,778,l),
(1085,778,l),
(1097,862,l),
(340,862,l)
);
},
{
closed = 1;
nodes = (
(258,267,l),
(1015,267,l),
(1027,351,l),
(270,351,l)
);
}
);
width = 1338;
}
);
unicode = 61;
userData = {
KernOnSpecialSpacing = {
L = math;
R = math;
};
};
}
{
glyphname = question;
kernLeft = KO_question;
layers = (
{
layerId = "0C3FD5EE-D923-4A4A-8FDE-164881635915";
shapes = (
{
closed = 1;
nodes = (
(286,454,l),
(392,454,l),
(380,494,o),
(369,603,o),
(373,671,cs),
(380,776,o),
(433,832,o),
(546,896,cs),
(654,955,o),
(779,1022,o),
(855,1141,cs),
(895,1199,o),
(922,1276,o),
(926,1362,cs),
(937,1564,o),
(856,1771,o),
(499,1771,cs),
(409,1771,o),
(304,1747,o),
(271,1717,c),
(244,1604,l),
(295,1628,o),
(374,1640,o),
(448,1640,cs),
(680,1640,o),
(801,1504,o),
(790,1291,cs),
(787,1253,o),
(773,1209,o),
(755,1175,c),
(688,1077,o),
(603,1034,o),
(490,980,cs),
(321,895,o),
(242,820,o),
(235,696,cs),
(231,604,o),
(247,504,o),
(274,456,c)
);
},
{
closed = 1;
nodes = (
(240,20,o),
(276,-18,o),
(331,-18,cs),
(393,-18,o),
(452,29,o),
(461,106,cs),
(468,168,o),
(442,214,o),
(370,214,cs),
(312,214,o),
(256,162,o),
(248,89,cs)
);
}
);
width = 847;
},
{
layerId = "27298932-82AF-4578-9425-6304FDB19058";
shapes = (
{
closed = 1;
nodes = (
(364,512,l),
(530,512,l),
(520,547,o),
(524,618,o),
(530,684,cs),
(536,753,o),
(594,828,o),
(660,864,cs),
(772,926,o),
(849,966,o),
(940,1088,cs),
(989,1157,o),
(1023,1247,o),
(1023,1370,cs),
(1023,1562,o),
(935,1789,o),
(558,1789,cs),
(413,1789,o),
(288,1727,o),
(266,1708,c),
(221,1511,l),
(278,1541,o),
(378,1553,o),
(450,1553,cs),
(660,1553,o),
(784,1442,o),
(777,1275,cs),
(775,1238,o),
(769,1191,o),
(756,1164,c),
(720,1124,o),
(630,1065,o),
(520,1003,cs),
(403,937,o),
(301,847,o),
(301,702,cs),
(301,627,o),
(318,558,o),
(350,514,c)
);
},
{
closed = 1;
nodes = (
(304,48,o),
(369,-20,o),
(443,-20,cs),
(554,-20,o),
(632,60,o),
(632,172,cs),
(632,261,o),
(575,330,o),
(489,330,cs),
(390,330,o),
(306,248,o),
(305,137,cs)
);
}
);
width = 962;
},
{
background = {
shapes = (
{
closed = 1;
nodes = (
(364,512,l),
(530,512,l),
(520,547,o),
(524,618,o),
(530,684,cs),
(536,753,o),
(594,828,o),
(660,864,cs),
(772,926,o),
(849,966,o),
(940,1088,cs),
(989,1157,o),
(1023,1247,o),
(1023,1370,cs),
(1023,1562,o),
(935,1789,o),
(558,1789,cs),
(413,1789,o),
(288,1727,o),
(266,1708,c),
(221,1511,l),
(278,1541,o),
(378,1553,o),
(450,1553,cs),
(660,1553,o),
(784,1442,o),
(777,1275,cs),
(775,1238,o),
(769,1191,o),
(756,1164,c),
(720,1124,o),
(630,1065,o),
(520,1003,cs),
(403,937,o),
(301,847,o),
(301,702,cs),
(301,627,o),
(318,558,o),
(350,514,c)
);
},
{
closed = 1;
nodes = (
(304,48,o),
(369,-20,o),
(443,-20,cs),
(554,-20,o),
(632,60,o),
(632,172,cs),
(632,261,o),
(575,330,o),
(489,330,cs),
(390,330,o),
(306,248,o),
(305,137,cs)
);
}
);
};
layerId = "9079322E-D2EB-4437-A6B9-48C6726F1892";
shapes = (
{
closed = 1;
nodes = (
(364,512,l),
(534,512,l),
(524,547,o),
(524,618,o),
(530,684,cs),
(536,753,o),
(594,828,o),
(660,864,cs),
(772,926,o),
(849,966,o),
(940,1088,cs),
(989,1157,o),
(1023,1247,o),
(1023,1370,cs),
(1023,1562,o),
(935,1789,o),
(558,1789,cs),
(413,1789,o),
(288,1727,o),
(266,1708,c),
(221,1511,l),
(278,1541,o),
(378,1553,o),
(450,1553,cs),
(660,1553,o),
(784,1442,o),
(777,1275,cs),
(775,1238,o),
(769,1191,o),
(756,1164,c),
(720,1124,o),
(630,1065,o),
(520,1003,cs),
(403,937,o),
(301,847,o),
(301,702,cs),
(301,627,o),
(318,558,o),
(350,514,c)
);
},
{
closed = 1;
nodes = (
(320,48,o),
(385,-20,o),
(459,-20,cs),
(570,-20,o),
(648,60,o),
(648,172,cs),
(648,261,o),
(591,330,o),
(505,330,cs),
(406,330,o),
(322,248,o),
(321,137,cs)
);
}
);
width = 952;
},
{
background = {
shapes = (
{
closed = 1;
nodes = (
(201,448,l),
(305,479,l),
(291,519,o),
(276,603,o),
(276,671,cs),
(277,776,o),
(388,832,o),
(497,896,cs),
(602,955,o),
(724,1022,o),
(793,1141,cs),
(830,1199,o),
(853,1276,o),
(853,1362,cs),
(853,1564,o),
(761,1771,o),
(404,1771,cs),
(314,1771,o),
(211,1747,o),
(179,1717,c),
(158,1604,l),
(208,1628,o),
(286,1640,o),
(360,1640,cs),
(592,1640,o),
(720,1504,o),
(720,1291,cs),
(719,1253,o),
(708,1209,o),
(692,1175,c),
(630,1077,o),
(547,1034,o),
(437,980,cs),
(272,895,o),
(137,820,o),
(137,696,cs),
(137,604,o),
(159,498,o),
(189,450,c)
);
},
{
closed = 1;
nodes = (
(174,26,o),
(214,-18,o),
(269,-18,cs),
(331,-18,o),
(386,18,o),
(395,95,cs),
(402,157,o),
(376,214,o),
(304,214,cs),
(246,214,o),
(190,168,o),
(182,95,cs)
);
},
{
closed = 1;
nodes = (
(276,454,l),
(382,454,l),
(370,494,o),
(359,603,o),
(363,671,cs),
(370,776,o),
(423,832,o),
(536,896,cs),
(644,955,o),
(769,1022,o),
(845,1141,cs),
(885,1199,o),
(912,1276,o),
(916,1362,cs),
(927,1564,o),
(846,1771,o),
(489,1771,cs),
(399,1771,o),
(294,1747,o),
(261,1717,c),
(234,1604,l),
(285,1628,o),
(364,1640,o),
(438,1640,cs),
(670,1640,o),
(791,1504,o),
(780,1291,cs),
(777,1253,o),
(763,1209,o),
(745,1175,c),
(678,1077,o),
(593,1034,o),
(480,980,cs),
(311,895,o),
(232,820,o),
(225,696,cs),
(221,604,o),
(237,504,o),
(264,456,c)
);
},
{
closed = 1;
nodes = (
(230,20,o),
(266,-18,o),
(321,-18,cs),
(383,-18,o),
(442,29,o),
(451,106,cs),
(458,168,o),
(432,214,o),
(360,214,cs),
(302,214,o),
(246,162,o),
(238,89,cs)
);
}
);
};
layerId = "AB43ED1F-BEAA-4517-9B18-06741265F15E";
shapes = (
{
closed = 1;
nodes = (
(276,454,l),
(382,454,l),
(370,494,o),
(359,603,o),
(363,671,cs),
(370,776,o),
(423,832,o),
(536,896,cs),
(644,955,o),
(775,1022,o),
(851,1141,cs),
(891,1199,o),
(918,1276,o),
(922,1362,cs),
(933,1564,o),
(852,1771,o),
(489,1771,cs),
(399,1771,o),
(294,1747,o),
(261,1717,c),
(234,1604,l),
(285,1628,o),
(364,1640,o),
(438,1640,cs),
(676,1640,o),
(797,1504,o),
(786,1291,cs),
(783,1253,o),
(769,1209,o),
(751,1175,c),
(684,1077,o),
(593,1034,o),
(480,980,cs),
(311,895,o),
(232,820,o),
(225,696,cs),
(221,604,o),
(237,504,o),
(264,456,c)
);
},
{
closed = 1;
nodes = (
(230,20,o),
(266,-18,o),
(321,-18,cs),
(383,-18,o),
(442,29,o),
(451,106,cs),
(458,168,o),
(432,214,o),
(360,214,cs),
(302,214,o),
(246,162,o),
(238,89,cs)
);
}
);
width = 883;
},
{
layerId = "0E81F995-ADCA-4265-BF48-502C19DBCB17";
shapes = (
{
closed = 1;
nodes = (
(320,436,l),
(369,452,l),
(357,487,o),
(355,562,o),
(356,639,cs),
(358,741,o),
(410,775,o),
(499,829,cs),
(620,902,o),
(705,971,o),
(775,1036,cs),
(873,1128,o),
(941,1248,o),
(941,1395,cs),
(941,1544,o),
(844,1735,o),
(552,1735,cs),
(310,1735,o),
(193,1633,o),
(169,1614,c),
(154,1544,l),
(170,1554,o),
(253,1606,o),
(375,1606,cs),
(504,1606,o),
(592,1544,o),
(592,1308,cs),
(592,1211,o),
(569,1133,o),
(538,1087,cs),
(502,1034,o),
(464,991,o),
(408,942,cs),
(344,886,o),
(254,795,o),
(252,690,cs),
(250,597,o),
(295,482,o),
(308,438,c)
);
},
{
closed = 1;
nodes = (
(234,33,o),
(296,-22,o),
(361,-22,cs),
(458,-22,o),
(534,47,o),
(534,174,cs),
(534,248,o),
(483,313,o),
(395,313,cs),
(305,313,o),
(234,233,o),
(234,118,cs)
);
}
);
width = 856;
},
{
layerId = "10D406F4-E64B-40B9-806E-EB589F33F511";
shapes = (
{
closed = 1;
nodes = (
(355,388,l),
(415,417,l),
(401,457,o),
(395,519,o),
(395,619,cs),
(395,746,o),
(461,814,o),
(595,901,cs),
(689,962,o),
(783,1032,o),
(852,1151,cs),
(887,1211,o),
(912,1276,o),
(912,1362,cs),
(912,1564,o),
(820,1771,o),
(463,1771,cs),
(373,1771,o),
(270,1747,o),
(238,1717,c),
(217,1654,l),
(267,1678,o),
(345,1690,o),
(419,1690,cs),
(651,1690,o),
(769,1540,o),
(769,1353,cs),
(769,1315,o),
(757,1219,o),
(741,1185,c),
(679,1087,o),
(612,1016,o),
(532,965,cs),
(375,865,o),
(296,762,o),
(296,601,cs),
(296,509,o),
(323,448,o),
(343,390,c)
);
},
{
closed = 1;
nodes = (
(326,10,o),
(361,-22,o),
(407,-22,cs),
(463,-22,o),
(520,27,o),
(520,96,cs),
(520,138,o),
(497,176,o),
(441,176,cs),
(384,176,o),
(326,125,o),
(326,59,cs)
);
}
);
width = 912;
},
{
layerId = "2795BD5C-FE1E-44B5-B1D3-799347E852FC";
shapes = (
{
closed = 1;
nodes = (
(344,436,l),
(393,452,l),
(381,487,o),
(379,562,o),
(380,639,cs),
(381,741,o),
(436,772,o),
(523,829,cs),
(634,902,o),
(739,971,o),
(809,1036,cs),
(908,1127,o),
(999,1248,o),
(999,1395,cs),
(999,1544,o),
(896,1735,o),
(586,1735,cs),
(329,1735,o),
(205,1633,o),
(180,1614,c),
(164,1544,l),
(181,1554,o),
(269,1606,o),
(398,1606,cs),
(535,1606,o),
(629,1544,o),
(629,1308,cs),
(629,1211,o),
(603,1134,o),
(572,1087,cs),
(526,1017,o),
(488,981,o),
(422,932,cs),
(333,866,o),
(278,795,o),
(276,690,cs),
(274,597,o),
(319,482,o),
(332,438,c)
);
},
{
closed = 1;
nodes = (
(253,33,o),
(317,-22,o),
(385,-22,cs),
(476,-22,o),
(568,47,o),
(568,174,cs),
(568,261,o),
(506,313,o),
(424,313,cs),
(341,313,o),
(253,237,o),
(253,122,cs)
);
}
);
width = 906;
},
{
layerId = "95CCB04D-97EC-4126-A206-216E0B8EC505";
shapes = (
{
closed = 1;
nodes = (
(364,388,l),
(427,417,l),
(412,457,o),
(400,519,o),
(400,587,cs),
(400,746,o),
(552,837,o),
(626,901,cs),
(720,982,o),
(811,1022,o),
(884,1141,cs),
(920,1201,o),
(947,1276,o),
(947,1362,cs),
(947,1564,o),
(850,1771,o),
(475,1771,cs),
(381,1771,o),
(273,1747,o),
(239,1717,c),
(217,1654,l),
(269,1678,o),
(351,1690,o),
(429,1690,cs),
(673,1690,o),
(797,1540,o),
(797,1353,cs),
(797,1315,o),
(784,1219,o),
(767,1185,c),
(702,1087,o),
(634,1020,o),
(558,960,cs),
(432,860,o),
(296,762,o),
(296,601,cs),
(296,509,o),
(330,448,o),
(351,390,c)
);
},
{
closed = 1;
nodes = (
(366,10,o),
(392,-22,o),
(437,-22,cs),
(494,-22,o),
(545,27,o),
(545,96,cs),
(545,138,o),
(526,176,o),
(471,176,cs),
(413,176,o),
(366,125,o),
(366,59,cs)
);
}
);
width = 947;
},
{
background = {
shapes = (
{
closed = 1;
nodes = (
(375,454,l),
(481,454,l),
(469,494,o),
(458,603,o),
(462,671,cs),
(469,776,o),
(522,832,o),
(635,896,cs),
(743,955,o),
(868,1022,o),
(944,1141,cs),
(984,1199,o),
(1011,1276,o),
(1015,1362,cs),
(1026,1564,o),
(945,1771,o),
(588,1771,cs),
(498,1771,o),
(393,1747,o),
(360,1717,c),
(333,1604,l),
(384,1628,o),
(463,1640,o),
(537,1640,cs),
(769,1640,o),
(890,1504,o),
(879,1291,cs),
(876,1253,o),
(862,1209,o),
(844,1175,c),
(777,1077,o),
(692,1034,o),
(579,980,cs),
(410,895,o),
(331,820,o),
(324,696,cs),
(320,604,o),
(336,504,o),
(363,456,c)
);
},
{
closed = 1;
nodes = (
(329,20,o),
(365,-18,o),
(420,-18,cs),
(482,-18,o),
(541,29,o),
(550,106,cs),
(557,168,o),
(531,214,o),
(459,214,cs),
(401,214,o),
(345,162,o),
(337,89,cs)
);
}
);
};
layerId = "8587C386-9485-4E77-8679-63F1A494C2C0";
shapes = (
{
closed = 1;
nodes = (
(300,454,l),
(404,454,l),
(390,494,o),
(375,603,o),
(375,671,cs),
(376,776,o),
(487,832,o),
(596,896,cs),
(701,955,o),
(823,1022,o),
(892,1141,cs),
(929,1199,o),
(952,1276,o),
(952,1362,cs),
(952,1564,o),
(860,1771,o),
(503,1771,cs),
(413,1771,o),
(310,1747,o),
(278,1717,c),
(257,1604,l),
(307,1628,o),
(385,1640,o),
(459,1640,cs),
(691,1640,o),
(819,1504,o),
(819,1291,cs),
(818,1253,o),
(807,1209,o),
(791,1175,c),
(729,1077,o),
(646,1034,o),
(536,980,cs),
(371,895,o),
(236,820,o),
(236,696,cs),
(236,604,o),
(258,504,o),
(288,456,c)
);
},
{
closed = 1;
nodes = (
(278,26,o),
(318,-18,o),
(373,-18,cs),
(435,-18,o),
(490,18,o),
(499,95,cs),
(506,157,o),
(480,214,o),
(408,214,cs),
(350,214,o),
(294,168,o),
(286,95,cs)
);
}
);
width = 982;
},
{
background = {
shapes = (
{
closed = 1;
nodes = (
(374,512,l),
(540,512,l),
(530,547,o),
(534,618,o),
(540,684,cs),
(546,753,o),
(604,828,o),
(670,864,cs),
(782,926,o),
(859,966,o),
(950,1088,cs),
(999,1157,o),
(1033,1247,o),
(1033,1370,cs),
(1033,1562,o),
(945,1789,o),
(568,1789,cs),
(423,1789,o),
(298,1727,o),
(276,1708,c),
(231,1511,l),
(288,1541,o),
(388,1553,o),
(460,1553,cs),
(670,1553,o),
(794,1442,o),
(787,1275,cs),
(785,1238,o),
(779,1191,o),
(766,1164,c),
(730,1124,o),
(640,1065,o),
(530,1003,cs),
(413,937,o),
(311,847,o),
(311,702,cs),
(311,627,o),
(328,558,o),
(360,514,c)
);
},
{
closed = 1;
nodes = (
(314,48,o),
(379,-20,o),
(453,-20,cs),
(564,-20,o),
(642,60,o),
(642,172,cs),
(642,261,o),
(585,330,o),
(499,330,cs),
(400,330,o),
(316,248,o),
(315,137,cs)
);
}
);
};
layerId = "F8806197-5953-4DD8-B2B5-EF301301BB43";
shapes = (
{
closed = 1;
nodes = (
(374,512,l),
(543,512,l),
(536,547,o),
(534,618,o),
(540,684,cs),
(546,753,o),
(597,804,o),
(659,847,cs),
(761,917,o),
(849,966,o),
(940,1088,cs),
(989,1157,o),
(1023,1247,o),
(1023,1370,cs),
(1023,1562,o),
(935,1789,o),
(558,1789,cs),
(413,1789,o),
(288,1727,o),
(266,1708,c),
(221,1511,l),
(278,1541,o),
(378,1553,o),
(450,1553,cs),
(660,1553,o),
(784,1442,o),
(777,1275,cs),
(775,1238,o),
(769,1191,o),
(756,1164,c),
(720,1124,o),
(626,1057,o),
(544,999,cs),
(405,901,o),
(311,847,o),
(311,702,cs),
(311,627,o),
(328,558,o),
(360,514,c)
);
},
{
closed = 1;
nodes = (
(326,37,o),
(390,-20,o),
(464,-20,cs),
(555,-20,o),
(642,42,o),
(642,174,cs),
(642,263,o),
(591,330,o),
(495,330,cs),
(416,330,o),
(328,257,o),
(327,136,cs)
);
}
);
width = 962;
},
{
layerId = "F318CEA5-7792-49D8-B68D-92025E304353";
shapes = (
{
closed = 1;
nodes = (
(286,388,l),
(343,417,l),
(330,457,o),
(320,519,o),
(320,587,cs),
(320,746,o),
(456,837,o),
(560,901,cs),
(659,962,o),
(755,1022,o),
(820,1141,cs),
(854,1201,o),
(877,1276,o),
(877,1362,cs),
(877,1564,o),
(790,1771,o),
(451,1771,cs),
(365,1771,o),
(267,1747,o),
(237,1717,c),
(217,1654,l),
(265,1678,o),
(339,1690,o),
(409,1690,cs),
(629,1690,o),
(741,1540,o),
(741,1353,cs),
(741,1315,o),
(730,1219,o),
(715,1185,c),
(656,1087,o),
(591,1010,o),
(516,960,cs),
(366,860,o),
(226,762,o),
(226,601,cs),
(226,509,o),
(256,448,o),
(275,390,c)
);
},
{
closed = 1;
nodes = (
(265,10,o),
(300,-22,o),
(346,-22,cs),
(405,-22,o),
(459,27,o),
(459,96,cs),
(459,138,o),
(436,176,o),
(380,176,cs),
(322,176,o),
(265,125,o),
(265,59,cs)
);
}
);
width = 878;
},
{
layerId = "7A2136B0-3E1D-476B-B826-4714342A6FC2";
shapes = (
{
closed = 1;
nodes = (
(280,436,l),
(328,452,l),
(323,487,o),
(320,563,o),
(320,640,cs),
(320,742,o),
(370,775,o),
(456,829,cs),
(573,902,o),
(665,971,o),
(766,1068,cs),
(829,1128,o),
(898,1237,o),
(898,1373,cs),
(898,1570,o),
(773,1735,o),
(532,1735,cs),
(305,1735,o),
(164,1643,o),
(141,1624,c),
(125,1554,l),
(141,1564,o),
(214,1606,o),
(360,1606,cs),
(493,1606,o),
(562,1505,o),
(562,1307,cs),
(562,1228,o),
(549,1134,o),
(517,1087,cs),
(472,1020,o),
(424,971,o),
(360,922,cs),
(273,855,o),
(216,795,o),
(216,690,cs),
(216,597,o),
(245,482,o),
(269,438,c)
);
},
{
closed = 1;
nodes = (
(195,33,o),
(252,-22,o),
(314,-22,cs),
(407,-22,o),
(483,47,o),
(483,174,cs),
(483,248,o),
(437,313,o),
(353,313,cs),
(266,313,o),
(195,233,o),
(195,118,cs)
);
}
);
width = 816;
}
);
unicode = 63;
userData = {
KernOnName = question;
KernOnSpecialSpacing = {
L = "spaced-off";
};
};
}
{
glyphname = A;
kernLeft = KO_A;
kernRight = KO_A;
layers = (
{
anchors = (
{
name = bottom;
pos = (568,0);
},
{
name = center;
pos = (678,727);
},
{
name = ogonek;
pos = (1070,0);
},
{
name = top;
pos = (800,1486);
}
);
layerId = "0C3FD5EE-D923-4A4A-8FDE-164881635915";
shapes = (
{
closed = 1;
nodes = (
(345,0,l),
(351,70,l),
(171,94,l),
(336,447,l),
(907,447,l),
(965,92,l),
(789,70,l),
(785,0,l),
(1288,0,l),
(1292,70,l),
(1129,96,l),
(886,1498,l),
(713,1498,l),
(24,92,l),
(-112,70,l),
(-120,0,l)
);
},
{
closed = 1;
nodes = (
(716,1257,l),
(765,1364,l),
(777,1246,l),
(891,545,l),
(382,545,l)
);
}
);
width = 1322;
},
{
anchors = (
{
name = bottom;
pos = (541,0);
},
{
name = center;
pos = (658,727);
},
{
name = ogonek;
pos = (1070,0);
},
{
name = top;
pos = (798,1486);
}
);
layerId = "27298932-82AF-4578-9425-6304FDB19058";
shapes = (
{
closed = 1;
nodes = (
(387,0,l),
(395,103,l),
(211,131,l),
(328,407,l),
(806,407,l),
(846,131,l),
(691,103,l),
(687,0,l),
(1354,0,l),
(1360,103,l),
(1204,133,l),
(961,1490,l),
(629,1490,l),
(-13,131,l),
(-149,103,l),
(-157,0,l)
);
},
{
closed = 1;
nodes = (
(625,1103,l),
(700,1281,l),
(708,1095,l),
(785,554,l),
(391,554,l)
);
}
);
width = 1320;
},
{
anchors = (
{
name = bottom;
pos = (619,0);
},
{
name = center;
pos = (728,727);
},
{
name = ogonek;
pos = (1150,0);
},
{
name = top;
pos = (888,1486);
}
);
color = 4;
layerId = "9079322E-D2EB-4437-A6B9-48C6726F1892";
shapes = (
{
closed = 1;
nodes = (
(426,0,l),
(437,103,l),
(231,131,l),
(370,407,l),
(926,407,l),
(972,131,l),
(793,103,l),
(786,0,l),
(1510,0,l),
(1519,103,l),
(1343,133,l),
(1077,1490,l),
(734,1490,l),
(2,131,l),
(-151,103,l),
(-163,0,l)
);
},
{
closed = 1;
nodes = (
(730,1121,l),
(792,1253,l),
(810,1095,l),
(901,554,l),
(444,554,l)
);
}
);
width = 1482;
},
{
anchors = (
{
name = bottom;
pos = (624,0);
},
{
name = center;
pos = (708,727);
},
{
name = ogonek;
pos = (1170,0);
},
{
name = top;
pos = (854,1486);
}
);
color = 4;
layerId = "AB43ED1F-BEAA-4517-9B18-06741265F15E";
shapes = (
{
closed = 1;
nodes = (
(364,0,l),
(370,80,l),
(168,104,l),
(344,447,l),
(988,447,l),
(1056,102,l),
(855,80,l),
(851,0,l),
(1398,0,l),
(1402,80,l),
(1222,106,l),
(928,1498,l),
(778,1498,l),
(29,102,l),
(-123,80,l),
(-131,0,l)
);
},
{
closed = 1;
nodes = (
(766,1267,l),
(815,1368,l),
(832,1246,l),
(969,545,l),
(395,545,l)
);
}
);
width = 1420;
},
{
anchors = (
{
name = bottom;
pos = (450,0);
},
{
name = center;
pos = (558,727);
},
{
name = ogonek;
pos = (940,0);
},
{
name = top;
pos = (745,1486);
}
);
color = 4;
layerId = "0E81F995-ADCA-4265-BF48-502C19DBCB17";
shapes = (
{
closed = 1;
nodes = (
(270,0,l),
(275,39,l),
(68,69,l),
(240,485,l),
(660,485,l),
(709,72,l),
(557,39,l),
(552,0,l),
(1221,0,l),
(1225,39,l),
(1108,72,l),
(901,1490,l),
(588,1488,l),
(-34,72,l),
(-173,39,l),
(-175,0,l)
);
},
{
closed = 1;
nodes = (
(520,1165,l),
(565,1298,l),
(588,1095,l),
(653,548,l),
(266,548,l)
);
}
);
width = 1200;
},
{
anchors = (
{
name = bottom;
pos = (507,0);
},
{
name = center;
pos = (608,727);
},
{
name = ogonek;
pos = (990,0);
},
{
name = top;
pos = (745,1486);
}
);
color = 4;
layerId = "10D406F4-E64B-40B9-806E-EB589F33F511";
shapes = (
{
closed = 1;
nodes = (
(249,0,l),
(253,36,l),
(97,58,l),
(292,489,l),
(831,489,l),
(897,58,l),
(743,36,l),
(735,0,l),
(1195,0,l),
(1199,36,l),
(1060,58,l),
(809,1498,l),
(682,1498,l),
(-12,58,l),
(-117,36,l),
(-122,0,l)
);
},
{
closed = 1;
nodes = (
(655,1292,l),
(696,1380,l),
(707,1292,l),
(820,555,l),
(322,555,l)
);
}
);
width = 1229;
},
{
anchors = (
{
name = bottom;
pos = (441,0);
},
{
name = center;
pos = (538,727);
},
{
name = ogonek;
pos = (960,0);
},
{
name = top;
pos = (734,1486);
}
);
color = 4;
layerId = "2795BD5C-FE1E-44B5-B1D3-799347E852FC";
shapes = (
{
closed = 1;
nodes = (
(217,0,l),
(222,36,l),
(16,72,l),
(196,485,l),
(664,485,l),
(719,72,l),
(568,38,l),
(563,0,l),
(1251,0,l),
(1255,38,l),
(1139,72,l),
(910,1490,l),
(558,1488,l),
(-86,75,l),
(-226,36,l),
(-228,0,l)
);
},
{
closed = 1;
nodes = (
(462,1096,l),
(556,1326,l),
(584,1095,l),
(656,548,l),
(223,548,l)
);
}
);
width = 1216;
},
{
anchors = (
{
name = bottom;
pos = (544,0);
},
{
name = center;
pos = (658,727);
},
{
name = ogonek;
pos = (1090,0);
},
{
name = top;
pos = (783,1486);
}
);
layerId = "95CCB04D-97EC-4126-A206-216E0B8EC505";
shapes = (
{
closed = 1;
nodes = (
(282,0,l),
(286,36,l),
(114,58,l),
(313,489,l),
(902,489,l),
(990,58,l),
(842,36,l),
(834,0,l),
(1272,0,l),
(1276,36,l),
(1154,58,l),
(841,1498,l),
(715,1499,l),
(0,58,l),
(-116,36,l),
(-122,0,l)
);
},
{
closed = 1;
nodes = (
(667,1254,l),
(732,1391,l),
(747,1254,l),
(889,555,l),
(344,555,l)
);
}
);
width = 1306;
},
{
anchors = (
{
name = bottom;
pos = (482,0);
},
{
name = center;
pos = (578,727);
},
{
name = ogonek;
pos = (930,0);
},
{
name = top;
pos = (706,1486);
}
);
color = 4;
layerId = "8587C386-9485-4E77-8679-63F1A494C2C0";
shapes = (
{
closed = 1;
nodes = (
(287,0,l),
(293,78,l),
(138,102,l),
(284,449,l),
(772,449,l),
(812,100,l),
(659,78,l),
(652,0,l),
(1103,0,l),
(1110,78,l),
(970,104,l),
(781,1498,l),
(625,1498,l),
(7,100,l),
(-111,78,l),
(-120,0,l)
);
},
{
closed = 1;
nodes = (
(627,1265,l),
(670,1375,l),
(678,1255,l),
(760,545,l),
(324,545,l)
);
}
);
width = 1137;
},
{
anchors = (
{
name = bottom;
pos = (476,0);
},
{
name = center;
pos = (578,727);
},
{
name = ogonek;
pos = (940,0);
},
{
name = top;
pos = (717,1486);
}
);
color = 4;
layerId = "F8806197-5953-4DD8-B2B5-EF301301BB43";
shapes = (
{
closed = 1;
nodes = (
(317,0,l),
(327,101,l),
(168,129,l),
(281,410,l),
(705,410,l),
(738,129,l),
(607,101,l),
(602,0,l),
(1191,0,l),
(1199,101,l),
(1066,131,l),
(877,1491,l),
(567,1491,l),
(-31,129,l),
(-149,101,l),
(-158,0,l)
);
},
{
closed = 1;
nodes = (
(570,1130,l),
(614,1252,l),
(624,1105,l),
(688,553,l),
(338,553,l)
);
}
);
width = 1157;
},
{
anchors = (
{
name = bottom;
pos = (474,0);
},
{
name = center;
pos = (578,727);
},
{
name = ogonek;
pos = (950,0);
},
{
name = top;
pos = (710,1486);
}
);
color = 4;
layerId = "F318CEA5-7792-49D8-B68D-92025E304353";
shapes = (
{
closed = 1;
nodes = (
(241,0,l),
(246,36,l),
(100,63,l),
(282,489,l),
(783,489,l),
(849,58,l),
(726,36,l),
(721,0,l),
(1122,0,l),
(1127,36,l),
(1010,58,l),
(775,1497,l),
(645,1497,l),
(6,61,l),
(-117,36,l),
(-122,0,l)
);
},
{
closed = 1;
nodes = (
(618,1276,l),
(656,1368,l),
(668,1233,l),
(772,555,l),
(310,555,l)
);
}
);
width = 1156;
},
{
anchors = (
{
name = bottom;
pos = (456,0);
},
{
name = center;
pos = (537,731);
},
{
name = ogonek;
pos = (951,0);
},
{
name = top;
pos = (730,1486);
}
);
color = 4;
layerId = "7A2136B0-3E1D-476B-B826-4714342A6FC2";
shapes = (
{
closed = 1;
nodes = (
(264,0,l),
(269,36,l),
(86,72,l),
(246,485,l),
(654,485,l),
(708,72,l),
(556,38,l),
(551,0,l),
(1200,0,l),
(1204,38,l),
(1089,72,l),
(880,1490,l),
(574,1488,l),
(-13,75,l),
(-154,36,l),
(-156,0,l)
);
},
{
closed = 1;
nodes = (
(507,1162,l),
(551,1292,l),
(574,1095,l),
(646,548,l),
(270,548,l)
);
}
);
width = 1139;
}
);
unicode = 65;
userData = {
KernOnName = A;
};
}
{
glyphname = C;
kernLeft = KO_O;
kernRight = KO_C;
layers = (
{
anchors = (
{
name = bottom;
pos = (655,0);
},
{
name = center;
pos = (724,744);
},
{
name = hook;
pos = (1179,1086);
},
{
name = stroke;
pos = (296,755);
},
{
name = top;
pos = (831,1486);
}
);
layerId = "0C3FD5EE-D923-4A4A-8FDE-164881635915";
shapes = (
{
closed = 1;
nodes = (
(846,-16,o),
(1006,46,o),
(1082,72,c),
(1122,393,l),
(1024,393,l),
(1004,321,o),
(982,246,o),
(961,176,c),
(907,112,o),
(768,82,o),
(670,82,cs),
(401,82,o),
(300,361,o),
(296,629,cs),
(288,968,o),
(459,1406,o),
(835,1406,cs),
(971,1406,o),
(1031,1381,o),
(1074,1356,c),
(1082,1086,l),
(1179,1086,l),
(1239,1442,l),
(1175,1452,o),
(1038,1502,o),
(854,1502,cs),
(457,1502,o),
(117,1150,o),
(127,613,cs),
(130,308,o),
(274,-16,o),
(640,-16,cs)
);
}
);
width = 1262;
},
{
anchors = (
{
name = bottom;
pos = (703,0);
},
{
name = center;
pos = (773,744);
},
{
name = hook;
pos = (1285,1086);
},
{
name = stroke;
pos = (476,755);
},
{
name = top;
pos = (855,1486);
}
);
layerId = "27298932-82AF-4578-9425-6304FDB19058";
shapes = (
{
closed = 1;
nodes = (
(990,-16,o),
(1123,71,o),
(1197,130,c),
(1239,409,l),
(1046,409,l),
(1026,334,o),
(1002,254,o),
(968,213,c),
(895,141,o),
(797,140,o),
(754,140,cs),
(565,140,o),
(486,314,o),
(476,642,cs),
(468,968,o),
(598,1379,o),
(912,1379,cs),
(949,1379,o),
(980,1372,o),
(1008,1362,c),
(1046,1059,l),
(1289,1059,l),
(1349,1450,l),
(1277,1457,o),
(1127,1504,o),
(965,1504,cs),
(445,1504,o),
(101,1179,o),
(101,622,cs),
(101,281,o),
(263,-16,o),
(702,-16,cs)
);
}
);
width = 1321;
},
{
anchors = (
{
name = bottom;
pos = (659,0);
},
{
name = center;
pos = (741,744);
},
{
name = hook;
pos = (1366,1059);
},
{
name = stroke;
pos = (443,749);
},
{
name = top;
pos = (911,1486);
}
);
color = 4;
layerId = "9079322E-D2EB-4437-A6B9-48C6726F1892";
shapes = (
{
closed = 1;
nodes = (
(1040,-16,o),
(1194,71,o),
(1276,130,c),
(1319,409,l),
(1119,409,l),
(1097,334,o),
(1072,254,o),
(1037,213,c),
(959,141,o),
(841,140,o),
(783,140,cs),
(527,140,o),
(443,378,o),
(443,685,cs),
(443,1003,o),
(593,1379,o),
(942,1379,cs),
(1002,1379,o),
(1052,1372,o),
(1087,1362,c),
(1129,1059,l),
(1366,1059,l),
(1427,1450,l),
(1347,1457,o),
(1180,1504,o),
(994,1504,cs),
(448,1504,o),
(70,1188,o),
(70,645,cs),
(70,295,o),
(249,-16,o),
(731,-16,cs)
);
}
);
width = 1401;
},
{
anchors = (
{
name = bottom;
pos = (697,0);
},
{
name = center;
pos = (805,744);
},
{
name = hook;
pos = (1264,1086);
},
{
name = stroke;
pos = (278,755);
},
{
name = top;
pos = (854,1486);
}
);
color = 4;
layerId = "AB43ED1F-BEAA-4517-9B18-06741265F15E";
shapes = (
{
closed = 1;
nodes = (
(902,-16,o),
(1063,36,o),
(1168,72,c),
(1208,413,l),
(1107,413,l),
(1086,341,o),
(1062,246,o),
(1041,176,c),
(983,112,o),
(824,82,o),
(709,82,cs),
(400,82,o),
(278,361,o),
(278,629,cs),
(278,1038,o),
(495,1406,o),
(878,1406,cs),
(1040,1406,o),
(1110,1381,o),
(1160,1356,c),
(1169,1086,l),
(1264,1086,l),
(1327,1442,l),
(1256,1452,o),
(1103,1502,o),
(895,1502,cs),
(462,1502,o),
(105,1150,o),
(105,613,cs),
(105,308,o),
(256,-16,o),
(689,-16,cs)
);
}
);
width = 1352;
},
{
anchors = (
{
name = bottom;
pos = (651,0);
},
{
name = center;
pos = (691,744);
},
{
name = hook;
pos = (1245,1086);
},
{
name = stroke;
pos = (448,755);
},
{
name = top;
pos = (825,1486);
}
);
color = 4;
layerId = "0E81F995-ADCA-4265-BF48-502C19DBCB17";
shapes = (
{
closed = 1;
nodes = (
(918,-23,o),
(1022,58,o),
(1111,58,c),
(1192,463,l),
(1003,463,l),
(983,388,o),
(910,180,o),
(885,139,c),
(854,72,o),
(762,34,o),
(682,34,cs),
(489,34,o),
(448,352,o),
(448,546,cs),
(448,1023,o),
(586,1447,o),
(827,1447,cs),
(885,1447,o),
(947,1441,o),
(980,1410,c),
(1001,1006,l),
(1233,1006,l),
(1302,1450,l),
(1175,1450,o),
(1095,1506,o),
(836,1506,cs),
(307,1506,o),
(59,1049,o),
(59,596,cs),
(59,290,o),
(175,-23,o),
(604,-23,cs)
);
}
);
width = 1235;
},
{
anchors = (
{
name = bottom;
pos = (616,0);
},
{
name = center;
pos = (692,744);
},
{
name = hook;
pos = (1148,1086);
},
{
name = stroke;
pos = (257,755);
},
{
name = top;
pos = (792,1486);
}
);
color = 4;
layerId = "10D406F4-E64B-40B9-806E-EB589F33F511";
shapes = (
{
closed = 1;
nodes = (
(827,-16,o),
(967,46,o),
(1043,72,c),
(1083,393,l),
(1015,393,l),
(995,321,o),
(972,228,o),
(948,158,c),
(907,90,o),
(759,38,o),
(671,38,cs),
(352,38,o),
(257,321,o),
(257,629,cs),
(257,1005,o),
(440,1449,o),
(816,1449,cs),
(962,1449,o),
(1031,1404,o),
(1075,1376,c),
(1083,1086,l),
(1150,1086,l),
(1210,1442,l),
(1146,1452,o),
(1019,1502,o),
(835,1502,cs),
(438,1502,o),
(92,1150,o),
(92,613,cs),
(92,308,o),
(219,-16,o),
(641,-16,cs)
);
}
);
width = 1192;
},
{
anchors = (
{
name = bottom;
pos = (651,0);
},
{
name = center;
pos = (802,744);
},
{
name = hook;
pos = (1365,1086);
},
{
name = stroke;
pos = (495,755);
},
{
name = top;
pos = (877,1486);
}
);
color = 4;
layerId = "2795BD5C-FE1E-44B5-B1D3-799347E852FC";
shapes = (
{
closed = 1;
nodes = (
(1073,-23,o),
(1137,58,o),
(1226,58,c),
(1299,463,l),
(1110,463,l),
(1098,388,o),
(1010,184,o),
(990,147,cs),
(961,95,o),
(896,34,o),
(761,34,cs),
(593,34,o),
(495,191,o),
(495,570,cs),
(495,1015,o),
(628,1447,o),
(928,1447,cs),
(1037,1447,o),
(1080,1406,o),
(1100,1373,c),
(1131,1006,l),
(1356,1006,l),
(1427,1450,l),
(1299,1450,o),
(1172,1506,o),
(913,1506,cs),
(335,1506,o),
(74,1069,o),
(74,614,cs),
(74,309,o),
(218,-23,o),
(752,-23,cs)
);
}
);
width = 1403;
},
{
anchors = (
{
name = bottom;
pos = (647,0);
},
{
name = center;
pos = (751,744);
},
{
name = hook;
pos = (1216,1090);
},
{
name = stroke;
pos = (250,755);
},
{
name = top;
pos = (808,1486);
}
);
layerId = "95CCB04D-97EC-4126-A206-216E0B8EC505";
shapes = (
{
closed = 1;
nodes = (
(889,-22,o),
(1045,45,o),
(1127,73,c),
(1164,390,l),
(1096,390,l),
(1077,318,o),
(1056,227,o),
(1034,156,c),
(989,88,o),
(818,29,o),
(721,29,cs),
(431,29,o),
(250,244,o),
(250,633,cs),
(250,1026,o),
(429,1451,o),
(849,1451,cs),
(1013,1451,o),
(1077,1402,o),
(1126,1374,c),
(1145,1090,l),
(1216,1090,l),
(1277,1442,l),
(1210,1452,o),
(1067,1502,o),
(869,1502,cs),
(441,1502,o),
(82,1155,o),
(81,614,cs),
(80,214,o),
(315,-22,o),
(692,-22,cs)
);
}
);
width = 1276;
},
{
anchors = (
{
name = bottom;
pos = (562,0);
},
{
name = center;
pos = (641,744);
},
{
name = hook;
pos = (1037,1088);
},
{
name = stroke;
pos = (283,755);
},
{
name = top;
pos = (758,1486);
}
);
color = 4;
layerId = "8587C386-9485-4E77-8679-63F1A494C2C0";
shapes = (
{
closed = 1;
nodes = (
(728,-16,o),
(866,45,o),
(932,69,c),
(973,392,l),
(879,392,l),
(861,320,o),
(840,246,o),
(819,166,c),
(765,110,o),
(665,79,o),
(578,79,cs),
(372,79,o),
(279,294,o),
(279,626,cs),
(279,1070,o),
(471,1408,o),
(749,1408,cs),
(851,1408,o),
(900,1382,o),
(935,1356,c),
(939,1088,l),
(1037,1088,l),
(1096,1442,l),
(1040,1452,o),
(922,1502,o),
(771,1502,cs),
(376,1502,o),
(112,1110,o),
(112,604,cs),
(112,256,o),
(244,-16,o),
(558,-16,cs)
);
}
);
width = 1117;
},
{
anchors = (
{
name = bottom;
pos = (717,0);
},
{
name = center;
pos = (656,744);
},
{
name = hook;
pos = (1147,1061);
},
{
name = stroke;
pos = (488,745);
},
{
name = top;
pos = (784,1486);
}
);
color = 4;
layerId = "F8806197-5953-4DD8-B2B5-EF301301BB43";
shapes = (
{
closed = 1;
nodes = (
(880,-16,o),
(987,69,o),
(1052,126,c),
(1095,408,l),
(918,408,l),
(899,333,o),
(876,243,o),
(843,201,c),
(775,129,o),
(697,126,o),
(669,126,cs),
(519,126,o),
(455,307,o),
(455,641,cs),
(455,986,o),
(571,1381,o),
(832,1381,cs),
(848,1381,o),
(876,1377,o),
(897,1366,c),
(928,1061,l),
(1147,1061,l),
(1207,1449,l),
(1144,1457,o),
(1023,1504,o),
(886,1504,cs),
(422,1504,o),
(103,1172,o),
(103,621,cs),
(103,283,o),
(251,-16,o),
(637,-16,cs)
);
}
);
width = 1172;
},
{
anchors = (
{
name = bottom;
pos = (572,0);
},
{
name = center;
pos = (631,744);
},
{
name = hook;
pos = (1058,1079);
},
{
name = stroke;
pos = (293,755);
},
{
name = top;
pos = (742,1486);
}
);
color = 4;
layerId = "F318CEA5-7792-49D8-B68D-92025E304353";
shapes = (
{
closed = 1;
nodes = (
(770,-17,o),
(866,47,o),
(943,71,c),
(987,399,l),
(919,399,l),
(902,327,o),
(865,218,o),
(845,150,c),
(806,82,o),
(695,34,o),
(615,34,cs),
(340,34,o),
(251,324,o),
(267,622,cs),
(287,1005,o),
(442,1452,o),
(768,1452,cs),
(875,1452,o),
(935,1410,o),
(973,1382,c),
(980,1079,l),
(1058,1079,l),
(1117,1443,l),
(1055,1452,o),
(946,1502,o),
(785,1502,cs),
(424,1502,o),
(107,1141,o),
(107,612,cs),
(107,306,o),
(211,-17,o),
(584,-17,cs)
);
}
);
width = 1124;
},
{
anchors = (
{
name = bottom;
pos = (620,0);
},
{
name = center;
pos = (672,744);
},
{
name = hook;
pos = (1155,1086);
},
{
name = stroke;
pos = (474,745);
},
{
name = top;
pos = (786,1486);
}
);
color = 4;
layerId = "7A2136B0-3E1D-476B-B826-4714342A6FC2";
shapes = (
{
closed = 1;
nodes = (
(846,-24,o),
(939,59,o),
(1019,57,c),
(1100,462,l),
(925,462,l),
(906,387,o),
(830,176,o),
(806,137,c),
(779,70,o),
(702,34,o),
(631,34,cs),
(472,34,o),
(451,355,o),
(451,539,cs),
(451,1015,o),
(581,1449,o),
(802,1449,cs),
(851,1449,o),
(881,1439,o),
(909,1415,c),
(933,1006,l),
(1142,1006,l),
(1211,1451,l),
(1093,1450,o),
(1026,1506,o),
(790,1506,cs),
(310,1506,o),
(84,1026,o),
(84,595,cs),
(84,288,o),
(176,-24,o),
(587,-24,cs)
);
}
);
width = 1142;
}
);
metricLeft = O;
unicode = 67;
userData = {
KernOnName = C;
};
}
{
glyphname = D;
layers = (
{
anchors = (
{
name = bar;
pos = (324,748);
},
{
name = bottom;
pos = (552,0);
},
{
name = center;
pos = (807,744);
},
{
name = top;
pos = (742,1484);
}
);
layerId = "0C3FD5EE-D923-4A4A-8FDE-164881635915";
shapes = (
{
closed = 1;
nodes = (
(206,1406,l),
(328,1386,l),
(154,94,l),
(6,70,l),
(-2,0,l),
(228,0,ls),
(339,0,o),
(443,-16,o),
(594,-16,cs),
(1024,-16,o),
(1312,382,o),
(1312,900,cs),
(1312,1260,o),
(1148,1502,o),
(744,1502,cs),
(652,1502,o),
(558,1488,o),
(464,1486,c),
(214,1486,l)
);
},
{
closed = 1;
nodes = (
(498,1463,l),
(454,1385,l),
(506,1393,o),
(625,1408,o),
(710,1408,cs),
(1024,1408,o),
(1148,1254,o),
(1148,886,cs),
(1148,494,o),
(963,80,o),
(573,80,cs),
(492,80,o),
(348,94,o),
(274,116,c),
(304,33,l)
);
}
);
width = 1368;
},
{
anchors = (
{
name = bar;
pos = (369,748);
},
{
name = bottom;
pos = (602,0);
},
{
name = center;
pos = (809,744);
},
{
name = top;
pos = (836,1486);
}
);
layerId = "27298932-82AF-4578-9425-6304FDB19058";
shapes = (
{
closed = 1;
nodes = (
(173,1378,l),
(311,1356,l),
(143,130,l),
(-9,102,l),
(-21,0,l),
(335,0,l),
(419,0,o),
(541,-16,o),
(595,-16,cs),
(1213,-16,o),
(1473,362,o),
(1473,900,cs),
(1473,1242,o),
(1307,1504,o),
(837,1502,cs),
(721,1502,o),
(599,1488,o),
(491,1486,c),
(183,1486,l)
);
},
{
closed = 1;
nodes = (
(654,1397,l),
(636,1343,l),
(662,1360,o),
(704,1378,o),
(805,1378,cs),
(1015,1378,o),
(1111,1236,o),
(1111,866,cs),
(1111,532,o),
(979,108,o),
(619,108,cs),
(553,108,o),
(432,141,o),
(446,152,c),
(466,63,l)
);
}
);
width = 1489;
},
{
anchors = (
{
name = bar;
pos = (406,748);
},
{
name = bottom;
pos = (588,0);
},
{
name = center;
pos = (805,744);
},
{
name = top;
pos = (822,1486);
}
);
color = 1;
layerId = "9079322E-D2EB-4437-A6B9-48C6726F1892";
shapes = (
{
closed = 1;
nodes = (
(165,1380,l),
(317,1354,l),
(150,132,l),
(-2,106,l),
(-14,0,l),
(347,0,ls),
(446,0,o),
(581,-16,o),
(659,-16,cs),
(1298,-16,o),
(1581,346,o),
(1581,880,cs),
(1581,1236,o),
(1385,1504,o),
(890,1502,cs),
(764,1501,o),
(650,1486,o),
(513,1486,cs),
(177,1486,l)
);
},
{
closed = 1;
nodes = (
(671,1397,l),
(650,1343,l),
(684,1360,o),
(745,1378,o),
(856,1378,cs),
(1089,1378,o),
(1211,1224,o),
(1211,866,cs),
(1211,524,o),
(1065,108,o),
(676,108,cs),
(599,108,o),
(492,133,o),
(458,152,c),
(489,70,l)
);
}
);
width = 1596;
},
{
anchors = (
{
name = bar;
pos = (332,748);
},
{
name = bottom;
pos = (575,0);
},
{
name = center;
pos = (805,744);
},
{
name = top;
pos = (765,1484);
}
);
color = 4;
layerId = "AB43ED1F-BEAA-4517-9B18-06741265F15E";
shapes = (
{
closed = 1;
nodes = (
(188,1406,l),
(336,1386,l),
(165,104,l),
(8,80,l),
(-2,0,l),
(237,0,ls),
(410,0,o),
(453,-16,o),
(637,-16,cs),
(1121,-16,o),
(1442,382,o),
(1435,900,cs),
(1430,1260,o),
(1244,1502,o),
(798,1502,cs),
(697,1502,o),
(595,1488,o),
(491,1486,cs),
(198,1486,l)
);
},
{
closed = 1;
nodes = (
(507,1463,l),
(466,1385,l),
(527,1393,o),
(667,1408,o),
(761,1408,cs),
(1122,1408,o),
(1266,1254,o),
(1270,886,cs),
(1274,488,o),
(1068,80,o),
(628,80,cs),
(536,80,o),
(373,94,o),
(281,116,c),
(317,33,l)
);
}
);
width = 1493;
},
{
anchors = (
{
name = bar;
pos = (374,748);
},
{
name = bottom;
pos = (579,0);
},
{
name = center;
pos = (817,744);
},
{
name = top;
pos = (793,1486);
}
);
color = 4;
layerId = "0E81F995-ADCA-4265-BF48-502C19DBCB17";
shapes = (
{
closed = 1;
nodes = (
(156,1450,l),
(274,1413,l),
(90,72,l),
(-40,38,l),
(-45,0,l),
(256,0,l),
(341,0,o),
(498,-23,o),
(608,-23,cs),
(1160,-23,o),
(1429,404,o),
(1429,923,cs),
(1429,1221,o),
(1295,1502,o),
(860,1502,cs),
(744,1502,o),
(614,1486,o),
(471,1486,c),
(161,1486,l)
);
},
{
closed = 1;
nodes = (
(654,1458,l),
(618,1410,l),
(646,1424,o),
(685,1447,o),
(786,1447,cs),
(993,1447,o),
(1050,1262,o),
(1050,941,cs),
(1050,573,o),
(956,34,o),
(596,34,cs),
(477,34,o),
(479,67,o),
(367,79,c),
(458,29,l)
);
}
);
width = 1420;
},
{
anchors = (
{
name = bar;
pos = (301,748);
},
{
name = bottom;
pos = (531,0);
},
{
name = center;
pos = (814,744);
},
{
name = top;
pos = (721,1484);
}
);
color = 4;
layerId = "10D406F4-E64B-40B9-806E-EB589F33F511";
shapes = (
{
closed = 1;
nodes = (
(176,1450,l),
(312,1420,l),
(126,67,l),
(-20,36,l),
(-25,0,l),
(207,0,ls),
(371,0,o),
(418,-16,o),
(562,-16,cs),
(1019,-16,o),
(1297,415,o),
(1297,881,cs),
(1297,1255,o),
(1127,1502,o),
(723,1502,cs),
(631,1502,o),
(537,1488,o),
(443,1486,c),
(181,1486,l)
);
},
{
closed = 1;
nodes = (
(473,1456,l),
(435,1411,l),
(491,1427,o),
(603,1449,o),
(689,1449,cs),
(1013,1449,o),
(1132,1245,o),
(1132,867,cs),
(1132,462,o),
(927,37,o),
(563,37,cs),
(436,37,o),
(331,62,o),
(245,87,c),
(277,31,l)
);
}
);
width = 1320;
},
{
anchors = (
{
name = bar;
pos = (370,748);
},
{
name = bottom;
pos = (630,0);
},
{
name = center;
pos = (807,744);
},
{
name = top;
pos = (864,1486);
}
);
color = 4;
layerId = "2795BD5C-FE1E-44B5-B1D3-799347E852FC";
shapes = (
{
closed = 1;
nodes = (
(148,1450,l),
(266,1413,l),
(82,72,l),
(-48,38,l),
(-53,0,l),
(268,0,ls),
(357,0,o),
(545,-23,o),
(621,-23,cs),
(1245,-23,o),
(1515,425,o),
(1515,880,cs),
(1515,1187,o),
(1368,1505,o),
(872,1505,cs),
(777,1505,o),
(635,1486,o),
(483,1486,cs),
(153,1486,l)
);
},
{
closed = 1;
nodes = (
(666,1472,l),
(625,1399,l),
(656,1422,o),
(729,1447,o),
(807,1447,cs),
(1035,1447,o),
(1100,1231,o),
(1100,900,cs),
(1100,622,o),
(1032,34,o),
(608,34,cs),
(546,34,o),
(464,57,o),
(446,68,c),
(467,20,l)
);
}
);
width = 1501;
},
{
anchors = (
{
name = bar;
pos = (304,748);
},
{
name = bottom;
pos = (556,0);
},
{
name = center;
pos = (805,744);
},
{
name = top;
pos = (744,1484);
}
);
layerId = "95CCB04D-97EC-4126-A206-216E0B8EC505";
shapes = (
{
closed = 1;
nodes = (
(159,1450,l),
(285,1420,l),
(99,67,l),
(-37,36,l),
(-42,0,l),
(182,0,ls),
(364,0,o),
(388,-16,o),
(546,-16,cs),
(1047,-16,o),
(1348,403,o),
(1348,899,cs),
(1348,1262,o),
(1144,1502,o),
(724,1502,cs),
(626,1502,o),
(522,1488,o),
(423,1486,c),
(164,1486,l)
);
},
{
closed = 1;
nodes = (
(446,1456,l),
(406,1411,l),
(468,1427,o),
(598,1449,o),
(690,1449,cs),
(1017,1449,o),
(1179,1252,o),
(1179,883,cs),
(1179,455,o),
(934,37,o),
(533,37,cs),
(395,37,o),
(310,62,o),
(218,87,c),
(250,28,l)
);
}
);
width = 1360;
},
{
anchors = (
{
name = bar;
pos = (307,748);
},
{
name = bottom;
pos = (548,0);
},
{
name = center;
pos = (805,744);
},
{
name = top;
pos = (782,1486);
}
);
color = 4;
layerId = "8587C386-9485-4E77-8679-63F1A494C2C0";
shapes = (
{
closed = 1;
nodes = (
(194,1408,l),
(314,1388,l),
(140,98,l),
(14,78,l),
(5,0,l),
(213,0,ls),
(306,0,o),
(397,-16,o),
(519,-16,cs),
(927,-16,o),
(1183,383,o),
(1183,900,cs),
(1183,1261,o),
(1034,1502,o),
(690,1502,cs),
(608,1502,o),
(524,1488,o),
(441,1486,c),
(202,1486,l)
);
},
{
closed = 1;
nodes = (
(479,1467,l),
(445,1383,l),
(488,1393,o),
(574,1410,o),
(659,1410,cs),
(920,1410,o),
(1014,1255,o),
(1014,887,cs),
(1014,497,o),
(841,76,o),
(507,76,cs),
(438,76,o),
(316,89,o),
(261,112,c),
(285,31,l)
);
}
);
width = 1242;
},
{
anchors = (
{
name = bar;
pos = (374,748);
},
{
name = bottom;
pos = (604,0);
},
{
name = center;
pos = (805,744);
},
{
name = top;
pos = (838,1486);
}
);
color = 4;
layerId = "F8806197-5953-4DD8-B2B5-EF301301BB43";
shapes = (
{
closed = 1;
nodes = (
(171,1384,l),
(295,1357,l),
(125,128,l),
(9,102,l),
(-3,0,l),
(288,0,ls),
(366,0,o),
(472,-16,o),
(535,-16,cs),
(1060,-16,o),
(1321,383,o),
(1321,910,cs),
(1321,1243,o),
(1170,1504,o),
(773,1502,cs),
(668,1501,o),
(558,1488,o),
(462,1486,cs),
(183,1486,l)
);
},
{
closed = 1;
nodes = (
(623,1401,l),
(570,1336,l),
(604,1362,o),
(658,1380,o),
(733,1380,cs),
(907,1380,o),
(974,1251,o),
(974,877,cs),
(974,530,o),
(852,106,o),
(546,106,cs),
(491,106,o),
(438,118,o),
(418,140,c),
(439,61,l)
);
}
);
width = 1335;
},
{
anchors = (
{
name = bar;
pos = (306,748);
},
{
name = bottom;
pos = (539,0);
},
{
name = center;
pos = (810,744);
},
{
name = top;
pos = (702,1486);
}
);
color = 4;
layerId = "F318CEA5-7792-49D8-B68D-92025E304353";
shapes = (
{
closed = 1;
nodes = (
(194,1450,l),
(315,1420,l),
(129,67,l),
(-2,36,l),
(-7,0,l),
(206,0,ls),
(346,0,o),
(400,-17,o),
(526,-17,cs),
(919,-17,o),
(1209,382,o),
(1216,911,cs),
(1221,1266,o),
(1035,1502,o),
(695,1502,cs),
(611,1502,o),
(524,1486,o),
(436,1486,cs),
(199,1486,l)
);
},
{
closed = 1;
nodes = (
(470,1456,l),
(431,1413,l),
(479,1429,o),
(583,1451,o),
(661,1451,cs),
(913,1451,o),
(1056,1264,o),
(1056,900,cs),
(1056,450,o),
(820,35,o),
(524,35,cs),
(411,35,o),
(318,60,o),
(238,84,c),
(276,44,l)
);
}
);
width = 1231;
},
{
anchors = (
{
name = bar;
pos = (328,748);
},
{
name = bottom;
pos = (600,0);
},
{
name = center;
pos = (805,744);
},
{
name = top;
pos = (834,1486);
}
);
color = 4;
layerId = "7A2136B0-3E1D-476B-B826-4714342A6FC2";
shapes = (
{
closed = 1;
nodes = (
(152,1450,l),
(280,1413,l),
(96,72,l),
(-44,38,l),
(-49,0,l),
(269,0,ls),
(318,0,o),
(469,-23,o),
(540,-23,cs),
(1060,-23,o),
(1335,377,o),
(1335,906,cs),
(1335,1205,o),
(1202,1504,o),
(763,1504,cs),
(656,1504,o),
(555,1486,o),
(444,1486,cs),
(157,1486,l)
);
},
{
closed = 1;
nodes = (
(635,1470,l),
(577,1384,l),
(612,1426,o),
(643,1447,o),
(711,1447,cs),
(941,1447,o),
(967,1204,o),
(967,902,cs),
(967,467,o),
(853,34,o),
(539,34,cs),
(447,34,o),
(427,76,o),
(394,94,c),
(434,0,l)
);
}
);
width = 1319;
}
);
metricLeft = H;
unicode = 68;
userData = {
KernOnName = D;
};
}
{
glyphname = E;
layers = (
{
anchors = (
{
name = bottom;
pos = (588,0);
},
{
name = center;
pos = (634,767);
},
{
name = ogonek;
pos = (868,0);
},
{
name = top;
pos = (704,1486);
},
{
name = topleft;
pos = (150,1486);
}
);
layerId = "0C3FD5EE-D923-4A4A-8FDE-164881635915";
shapes = (
{
closed = 1;
nodes = (
(1028,0,l),
(1112,316,l),
(1026,342,l),
(918,114,l),
(320,96,l),
(403,719,l),
(872,702,l),
(880,830,l),
(412,819,l),
(488,1400,l),
(978,1388,l),
(1010,1180,l),
(1100,1180,l),
(1108,1486,l),
(200,1486,l),
(190,1406,l),
(324,1386,l),
(162,92,l),
(14,70,l),
(8,0,l)
);
}
);
width = 1192;
},
{
anchors = (
{
name = bottom;
pos = (643,0);
},
{
name = center;
pos = (796,767);
},
{
name = ogonek;
pos = (960,0);
},
{
name = top;
pos = (781,1486);
},
{
name = topleft;
pos = (152,1486);
}
);
layerId = "27298932-82AF-4578-9425-6304FDB19058";
shapes = (
{
closed = 1;
nodes = (
(1189,0,l),
(1260,440,l),
(1090,454,l),
(949,180,l),
(488,146,l),
(561,708,l),
(994,679,l),
(1030,902,l),
(581,859,l),
(649,1371,l),
(992,1345,l),
(1066,1128,l),
(1232,1128,l),
(1265,1486,l),
(181,1486,l),
(169,1379,l),
(311,1355,l),
(144,130,l),
(-5,103,l),
(-19,0,l)
);
}
);
width = 1332;
},
{
anchors = (
{
name = bottom;
pos = (669,0);
},
{
name = center;
pos = (803,769);
},
{
name = ogonek;
pos = (1006,0);
},
{
name = top;
pos = (844,1486);
},
{
name = topleft;
pos = (147,1486);
}
);
color = 4;
layerId = "9079322E-D2EB-4437-A6B9-48C6726F1892";
shapes = (
{
closed = 1;
nodes = (
(1267,0,l),
(1332,440,l),
(1156,454,l),
(1017,180,l),
(500,146,l),
(577,708,l),
(1053,679,l),
(1085,902,l),
(597,859,l),
(667,1371,l),
(1060,1345,l),
(1139,1117,l),
(1312,1117,l),
(1339,1486,l),
(177,1486,l),
(165,1380,l),
(317,1354,l),
(150,132,l),
(-2,106,l),
(-14,0,l)
);
}
);
width = 1414;
},
{
anchors = (
{
name = bottom;
pos = (632,0);
},
{
name = center;
pos = (672,764);
},
{
name = ogonek;
pos = (956,0);
},
{
name = top;
pos = (755,1486);
},
{
name = topleft;
pos = (173,1486);
}
);
color = 4;
layerId = "AB43ED1F-BEAA-4517-9B18-06741265F15E";
shapes = (
{
closed = 1;
nodes = (
(1118,0,l),
(1200,336,l),
(1111,362,l),
(1006,114,l),
(325,96,l),
(408,719,l),
(939,702,l),
(943,830,l),
(422,820,l),
(499,1400,l),
(1059,1388,l),
(1093,1170,l),
(1187,1170,l),
(1190,1486,l),
(198,1486,l),
(188,1406,l),
(336,1386,l),
(165,104,l),
(8,80,l),
(-2,0,l)
);
}
);
width = 1266;
},
{
anchors = (
{
name = bottom;
pos = (586,0);
},
{
name = center;
pos = (784,767);
},
{
name = ogonek;
pos = (868,0);
},
{
name = top;
pos = (745,1486);
},
{
name = topleft;
pos = (149,1486);
}
);
color = 4;
layerId = "0E81F995-ADCA-4265-BF48-502C19DBCB17";
shapes = (
{
closed = 1;
nodes = (
(1085,0,l),
(1210,458,l),
(1037,477,l),
(837,92,l),
(462,53,l),
(554,727,l),
(931,706,l),
(952,826,l),
(563,792,l),
(651,1434,l),
(960,1401,l),
(1039,1108,l),
(1180,1108,l),
(1202,1486,l),
(161,1486,l),
(156,1450,l),
(274,1413,l),
(90,72,l),
(-39,39,l),
(-45,0,l)
);
}
);
width = 1216;
},
{
anchors = (
{
name = bottom;
pos = (571,0);
},
{
name = center;
pos = (681,767);
},
{
name = ogonek;
pos = (845,0);
},
{
name = top;
pos = (687,1486);
},
{
name = topleft;
pos = (164,1486);
}
);
color = 4;
layerId = "10D406F4-E64B-40B9-806E-EB589F33F511";
shapes = (
{
closed = 1;
nodes = (
(997,0,l),
(1081,316,l),
(1017,333,l),
(904,94,l),
(282,67,l),
(374,733,l),
(843,719,l),
(856,811,l),
(382,795,l),
(468,1421,l),
(984,1400,l),
(1027,1180,l),
(1079,1180,l),
(1087,1486,l),
(181,1486,l),
(176,1450,l),
(312,1420,l),
(126,67,l),
(-20,36,l),
(-25,0,l)
);
}
);
width = 1171;
},
{
anchors = (
{
name = bottom;
pos = (661,0);
},
{
name = center;
pos = (782,764);
},
{
name = ogonek;
pos = (948,0);
},
{
name = top;
pos = (805,1486);
},
{
name = topleft;
pos = (157,1486);
}
);
background = {
shapes = (
{
closed = 1;
nodes = (
(1010,0,l),
(1132,471,l),
(980,490,l),
(774,90,l),
(472,53,l),
(566,733,l),
(929,704,l),
(951,825,l),
(574,795,l),
(662,1434,l),
(918,1402,l),
(1004,1102,l),
(1134,1102,l),
(1156,1486,l),
(189,1486,l),
(184,1450,l),
(312,1413,l),
(128,72,l),
(-12,38,l),
(-17,0,l)
);
}
);
};
color = 4;
layerId = "2795BD5C-FE1E-44B5-B1D3-799347E852FC";
shapes = (
{
closed = 1;
nodes = (
(1166,0,l),
(1291,448,l),
(1108,467,l),
(905,120,l),
(471,53,l),
(565,734,l),
(1019,696,l),
(1044,836,l),
(572,794,l),
(661,1434,l),
(1041,1393,l),
(1120,1108,l),
(1271,1108,l),
(1293,1486,l),
(153,1486,l),
(148,1450,l),
(266,1413,l),
(82,72,l),
(-48,38,l),
(-53,0,l)
);
}
);
width = 1329;
},
{
anchors = (
{
name = bottom;
pos = (561,0);
},
{
name = center;
pos = (651,764);
},
{
name = ogonek;
pos = (876,0);
},
{
name = top;
pos = (715,1486);
},
{
name = topleft;
pos = (134,1486);
}
);
layerId = "95CCB04D-97EC-4126-A206-216E0B8EC505";
shapes = (
{
closed = 1;
nodes = (
(1048,0,l),
(1133,308,l),
(1067,327,l),
(954,95,l),
(254,68,l),
(346,733,l),
(870,716,l),
(882,816,l),
(355,796,l),
(441,1423,l),
(1016,1400,l),
(1062,1184,l),
(1116,1184,l),
(1120,1486,l),
(164,1486,l),
(159,1450,l),
(285,1420,l),
(99,67,l),
(-37,36,l),
(-42,0,l)
);
}
);
width = 1214;
},
{
anchors = (
{
name = bottom;
pos = (520,0);
},
{
name = center;
pos = (579,767);
},
{
name = ogonek;
pos = (766,0);
},
{
name = top;
pos = (640,1486);
},
{
name = topleft;
pos = (173,1486);
}
);
color = 4;
layerId = "8587C386-9485-4E77-8679-63F1A494C2C0";
shapes = (
{
closed = 1;
nodes = (
(905,0,l),
(983,309,l),
(901,335,l),
(799,110,l),
(294,98,l),
(377,718,l),
(781,703,l),
(793,824,l),
(391,816,l),
(470,1402,l),
(877,1391,l),
(905,1183,l),
(990,1183,l),
(1005,1486,l),
(202,1486,l),
(194,1408,l),
(314,1388,l),
(140,98,l),
(14,78,l),
(5,0,l)
);
}
);
width = 1057;
},
{
anchors = (
{
name = bottom;
pos = (560,0);
},
{
name = center;
pos = (703,769);
},
{
name = ogonek;
pos = (816,0);
},
{
name = top;
pos = (709,1486);
},
{
name = topleft;
pos = (174,1486);
}
);
color = 4;
layerId = "F8806197-5953-4DD8-B2B5-EF301301BB43";
shapes = (
{
closed = 1;
nodes = (
(1015,0,l),
(1084,432,l),
(924,447,l),
(790,166,l),
(448,133,l),
(528,709,l),
(885,680,l),
(926,897,l),
(548,857,l),
(619,1373,l),
(880,1348,l),
(947,1131,l),
(1103,1131,l),
(1143,1486,l),
(183,1486,l),
(171,1384,l),
(295,1357,l),
(125,128,l),
(9,102,l),
(-3,0,l)
);
}
);
width = 1161;
},
{
anchors = (
{
name = bottom;
pos = (516,0);
},
{
name = center;
pos = (597,767);
},
{
name = ogonek;
pos = (751,0);
},
{
name = top;
pos = (646,1486);
},
{
name = topleft;
pos = (171,1486);
}
);
color = 4;
layerId = "F318CEA5-7792-49D8-B68D-92025E304353";
shapes = (
{
closed = 1;
nodes = (
(907,0,l),
(989,328,l),
(926,345,l),
(815,93,l),
(279,64,l),
(370,732,l),
(775,718,l),
(789,815,l),
(379,797,l),
(465,1424,l),
(904,1401,l),
(942,1174,l),
(994,1174,l),
(1006,1486,l),
(199,1486,l),
(194,1450,l),
(315,1420,l),
(129,67,l),
(-2,36,l),
(-7,0,l)
);
}
);
width = 1067;
},
{
anchors = (
{
name = bottom;
pos = (585,0);
},
{
name = center;
pos = (715,762);
},
{
name = ogonek;
pos = (770,0);
},
{
name = top;
pos = (698,1486);
},
{
name = topleft;
pos = (159,1486);
}
);
color = 4;
layerId = "7A2136B0-3E1D-476B-B826-4714342A6FC2";
shapes = (
{
closed = 1;
nodes = (
(980,0,l),
(1102,461,l),
(950,480,l),
(734,90,l),
(442,53,l),
(536,733,l),
(899,704,l),
(921,825,l),
(544,795,l),
(632,1434,l),
(898,1402,l),
(974,1102,l),
(1104,1102,l),
(1126,1486,l),
(159,1486,l),
(154,1450,l),
(282,1413,l),
(98,72,l),
(-42,38,l),
(-47,0,l)
);
}
);
width = 1121;
}
);
metricLeft = H;
unicode = 69;
userData = {
KernOnName = E;
};
}
{
glyphname = F;
layers = (
{
anchors = (
{
name = top;
pos = (716,1486);
}
);
layerId = "0C3FD5EE-D923-4A4A-8FDE-164881635915";
shapes = (
{
closed = 1;
nodes = (
(538,0,l),
(546,70,l),
(310,96,l),
(402,712,l),
(894,698,l),
(908,828,l),
(412,820,l),
(492,1398,l),
(1014,1384,l),
(1032,1180,l),
(1130,1180,l),
(1154,1486,l),
(210,1486,l),
(198,1406,l),
(332,1386,l),
(152,94,l),
(6,70,l),
(-2,0,l)
);
}
);
width = 1128;
},
{
anchors = (
{
name = top;
pos = (785,1486);
}
);
layerId = "27298932-82AF-4578-9425-6304FDB19058";
shapes = (
{
closed = 1;
nodes = (
(742,0,l),
(750,102,l),
(482,130,l),
(557,685,l),
(1016,648,l),
(1048,865,l),
(577,837,l),
(649,1369,l),
(1003,1345,l),
(1050,1094,l),
(1243,1094,l),
(1282,1486,l),
(181,1486,l),
(167,1379,l),
(309,1355,l),
(142,130,l),
(8,102,l),
(-4,0,l)
);
}
);
width = 1235;
},
{
anchors = (
{
name = top;
pos = (825,1486);
}
);
color = 1;
layerId = "9079322E-D2EB-4437-A6B9-48C6726F1892";
shapes = (
{
closed = 1;
nodes = (
(789,0,l),
(798,106,l),
(499,134,l),
(574,685,l),
(1102,648,l),
(1131,865,l),
(595,837,l),
(667,1369,l),
(1100,1345,l),
(1152,1114,l),
(1351,1114,l),
(1386,1486,l),
(177,1486,l),
(165,1380,l),
(317,1354,l),
(150,132,l),
(-2,106,l),
(-14,0,l)
);
}
);
width = 1362;
},
{
anchors = (
{
name = top;
pos = (752,1486);
}
);
color = 4;
layerId = "AB43ED1F-BEAA-4517-9B18-06741265F15E";
shapes = (
{
closed = 1;
nodes = (
(606,0,l),
(615,80,l),
(325,96,l),
(408,716,l),
(960,698,l),
(973,828,l),
(422,822,l),
(499,1400,l),
(1089,1384,l),
(1111,1180,l),
(1210,1180,l),
(1231,1486,l),
(198,1486,l),
(188,1406,l),
(336,1386,l),
(165,104,l),
(8,80,l),
(-2,0,l)
);
}
);
width = 1208;
},
{
anchors = (
{
name = top;
pos = (731,1486);
}
);
color = 4;
layerId = "0E81F995-ADCA-4265-BF48-502C19DBCB17";
shapes = (
{
closed = 1;
nodes = (
(750,0,l),
(754,39,l),
(467,93,l),
(554,727,l),
(961,713,l),
(982,821,l),
(563,792,l),
(651,1434,l),
(965,1408,l),
(1054,1108,l),
(1195,1108,l),
(1217,1486,l),
(161,1486,l),
(156,1450,l),
(274,1413,l),
(90,72,l),
(-40,38,l),
(-45,0,l)
);
}
);
width = 1138;
},
{
anchors = (
{
name = top;
pos = (684,1486);
}
);
color = 4;
layerId = "10D406F4-E64B-40B9-806E-EB589F33F511";
shapes = (
{
closed = 1;
nodes = (
(507,0,l),
(512,36,l),
(282,67,l),
(374,733,l),
(823,719,l),
(836,809,l),
(382,798,l),
(468,1420,l),
(975,1399,l),
(1020,1180,l),
(1072,1180,l),
(1080,1486,l),
(181,1486,l),
(176,1450,l),
(312,1420,l),
(126,67,l),
(-20,36,l),
(-25,0,l)
);
}
);
width = 1056;
},
{
anchors = (
{
name = top;
pos = (793,1486);
}
);
color = 4;
layerId = "2795BD5C-FE1E-44B5-B1D3-799347E852FC";
shapes = (
{
closed = 1;
nodes = (
(707,0,l),
(711,39,l),
(477,93,l),
(565,737,l),
(1019,698,l),
(1044,836,l),
(572,787,l),
(661,1434,l),
(1031,1398,l),
(1120,1108,l),
(1271,1108,l),
(1293,1486,l),
(153,1486,l),
(148,1450,l),
(266,1413,l),
(82,72,l),
(-48,38,l),
(-53,0,l)
);
}
);
width = 1244;
},
{
anchors = (
{
name = top;
pos = (680,1486);
}
);
layerId = "95CCB04D-97EC-4126-A206-216E0B8EC505";
shapes = (
{
closed = 1;
nodes = (
(495,0,l),
(500,36,l),
(255,66,l),
(347,733,l),
(835,719,l),
(848,808,l),
(356,798,l),
(441,1419,l),
(986,1399,l),
(1035,1184,l),
(1086,1184,l),
(1090,1486,l),
(164,1486,l),
(159,1450,l),
(285,1420,l),
(99,67,l),
(-37,36,l),
(-42,0,l)
);
}
);
width = 1064;
},
{
anchors = (
{
name = top;
pos = (619,1486);
}
);
color = 4;
layerId = "8587C386-9485-4E77-8679-63F1A494C2C0";
shapes = (
{
closed = 1;
nodes = (
(524,0,l),
(534,78,l),
(292,98,l),
(375,716,l),
(779,703,l),
(791,824,l),
(389,818,l),
(468,1402,l),
(875,1391,l),
(903,1183,l),
(987,1183,l),
(1003,1486,l),
(202,1486,l),
(192,1408,l),
(312,1388,l),
(138,98,l),
(12,78,l),
(1,0,l)
);
}
);
width = 935;
},
{
anchors = (
{
name = top;
pos = (684,1486);
}
);
color = 4;
layerId = "F8806197-5953-4DD8-B2B5-EF301301BB43";
shapes = (
{
closed = 1;
nodes = (
(677,0,l),
(688,104,l),
(448,130,l),
(525,687,l),
(915,651,l),
(950,863,l),
(545,836,l),
(619,1371,l),
(897,1347,l),
(917,1118,l),
(1120,1118,l),
(1164,1486,l),
(183,1486,l),
(171,1384,l),
(295,1357,l),
(125,128,l),
(9,102,l),
(-3,0,l)
);
}
);
width = 1112;
},
{
anchors = (
{
name = top;
pos = (616,1486);
}
);
color = 4;
layerId = "F318CEA5-7792-49D8-B68D-92025E304353";
shapes = (
{
closed = 1;
nodes = (
(490,0,l),
(495,36,l),
(279,68,l),
(371,732,l),
(775,718,l),
(788,810,l),
(380,797,l),
(465,1421,l),
(898,1400,l),
(938,1174,l),
(992,1174,l),
(1004,1486,l),
(199,1486,l),
(194,1450,l),
(315,1420,l),
(129,67,l),
(-2,36,l),
(-7,0,l)
);
}
);
width = 962;
},
{
anchors = (
{
name = top;
pos = (700,1486);
}
);
color = 4;
layerId = "7A2136B0-3E1D-476B-B826-4714342A6FC2";
shapes = (
{
closed = 1;
nodes = (
(688,0,l),
(692,38,l),
(445,88,l),
(534,733,l),
(894,712,l),
(925,825,l),
(542,795,l),
(630,1434,l),
(896,1409,l),
(964,1102,l),
(1098,1102,l),
(1130,1486,l),
(157,1486,l),
(152,1450,l),
(280,1413,l),
(96,72,l),
(-44,38,l),
(-49,0,l)
);
}
);
width = 1048;
}
);
metricLeft = H;
unicode = 70;
userData = {
KernOnName = F;
};
}
{
glyphname = G;
layers = (
{
anchors = (
{
name = bottom;
pos = (667,0);
},
{
name = hook;
pos = (1193,1086);
},
{
name = strokebar;
pos = (1044,385);
},
{
name = top;
pos = (824,1486);
}
);
layerId = "0C3FD5EE-D923-4A4A-8FDE-164881635915";
shapes = (
{
closed = 1;
nodes = (
(790,-16,o),
(900,29,o),
(998,59,cs),
(1052,75,o),
(1087,91,o),
(1125,91,c),
(1213,708,l),
(776,708,l),
(766,615,l),
(1035,600,l),
(976,173,l),
(903,110,o),
(761,79,o),
(648,79,cs),
(381,79,o),
(272,362,o),
(268,631,cs),
(266,980,o),
(440,1408,o),
(811,1408,cs),
(973,1408,o),
(1044,1379,o),
(1096,1344,c),
(1100,1146,l),
(1203,1146,l),
(1259,1436,l),
(1246,1440,o),
(1233,1444,o),
(1220,1448,cs),
(1149,1468,o),
(1028,1502,o),
(828,1502,cs),
(434,1502,o),
(96,1154,o),
(102,612,cs),
(106,308,o),
(262,-16,o),
(615,-16,cs)
);
}
);
width = 1338;
},
{
anchors = (
{
name = bottom;
pos = (649,0);
},
{
name = hook;
pos = (1302,1086);
},
{
name = strokebar;
pos = (1144,377);
},
{
name = top;
pos = (882,1486);
}
);
layerId = "27298932-82AF-4578-9425-6304FDB19058";
shapes = (
{
closed = 1;
nodes = (
(820,-16,o),
(939,20,o),
(1052,50,cs),
(1110,66,o),
(1194,82,o),
(1236,82,c),
(1324,735,l),
(784,735,l),
(766,593,l),
(966,577,l),
(914,160,l),
(856,137,o),
(785,130,o),
(694,130,cs),
(508,130,o),
(425,358,o),
(425,642,cs),
(425,1038,o),
(525,1379,o),
(888,1379,cs),
(958,1379,o),
(1015,1363,o),
(1063,1336,c),
(1073,1113,l),
(1303,1113,l),
(1366,1436,l),
(1346,1440,o),
(1327,1444,o),
(1307,1448,cs),
(1222,1468,o),
(1127,1504,o),
(884,1504,cs),
(341,1504,o),
(57,1148,o),
(67,612,cs),
(73,281,o),
(243,-16,o),
(639,-16,cs)
);
}
);
width = 1400;
},
{
anchors = (
{
name = bottom;
pos = (723,0);
},
{
name = hook;
pos = (1436,1113);
},
{
name = strokebar;
pos = (1254,377);
},
{
name = top;
pos = (966,1486);
}
);
color = 1;
layerId = "9079322E-D2EB-4437-A6B9-48C6726F1892";
shapes = (
{
closed = 1;
nodes = (
(914,-16,o),
(1062,19,o),
(1186,50,cs),
(1250,66,o),
(1326,78,o),
(1372,82,c),
(1461,735,l),
(871,735,l),
(855,593,l),
(1093,577,l),
(1042,174,l),
(978,148,o),
(904,130,o),
(812,130,cs),
(537,130,o),
(441,357,o),
(441,674,cs),
(441,1056,o),
(566,1379,o),
(965,1379,cs),
(1061,1379,o),
(1124,1363,o),
(1179,1336,c),
(1203,1113,l),
(1433,1113,l),
(1497,1436,l),
(1464,1436,o),
(1430,1443,o),
(1408,1448,cs),
(1314,1468,o),
(1228,1504,o),
(963,1504,cs),
(390,1504,o),
(68,1168,o),
(68,656,cs),
(68,245,o),
(305,-16,o),
(715,-16,cs)
);
}
);
width = 1536;
},
{
anchors = (
{
name = bottom;
pos = (701,0);
},
{
name = hook;
pos = (1326,1146);
},
{
name = strokebar;
pos = (1144,385);
},
{
name = top;
pos = (925,1486);
}
);
color = 4;
layerId = "AB43ED1F-BEAA-4517-9B18-06741265F15E";
shapes = (
{
closed = 1;
nodes = (
(881,-16,o),
(1002,29,o),
(1110,59,cs),
(1170,75,o),
(1201,91,o),
(1244,91,c),
(1327,708,l),
(858,708,l),
(848,615,l),
(1152,600,l),
(1095,173,l),
(1012,110,o),
(882,82,o),
(734,82,cs),
(406,82,o),
(274,361,o),
(274,629,cs),
(274,1038,o),
(469,1408,o),
(892,1408,cs),
(1072,1408,o),
(1153,1379,o),
(1212,1344,c),
(1219,1146,l),
(1322,1146,l),
(1381,1436,l),
(1367,1440,o),
(1353,1444,o),
(1339,1448,c),
(1260,1468,o),
(1122,1502,o),
(903,1502,cs),
(428,1502,o),
(101,1150,o),
(101,613,cs),
(101,308,o),
(262,-16,o),
(705,-16,cs)
);
}
);
width = 1454;
},
{
anchors = (
{
name = bottom;
pos = (651,0);
},
{
name = hook;
pos = (1264,1086);
},
{
name = strokebar;
pos = (1082,397);
},
{
name = top;
pos = (884,1486);
}
);
color = 4;
layerId = "0E81F995-ADCA-4265-BF48-502C19DBCB17";
shapes = (
{
closed = 1;
nodes = (
(799,-23,o),
(932,21,o),
(1041,48,cs),
(1093,61,o),
(1142,72,o),
(1191,72,c),
(1292,725,l),
(777,725,l),
(772,689,l),
(932,647,l),
(846,81,l),
(796,53,o),
(724,34,o),
(664,34,cs),
(467,34,o),
(440,352,o),
(440,546,cs),
(440,1043,o),
(603,1447,o),
(832,1447,cs),
(925,1447,o),
(992,1413,o),
(1009,1390,c),
(1042,1090,l),
(1264,1090,l),
(1320,1450,l),
(1285,1450,o),
(1255,1454,o),
(1225,1460,cs),
(1143,1476,o),
(1049,1506,o),
(841,1506,cs),
(319,1506,o),
(61,1069,o),
(61,596,cs),
(61,290,o),
(189,-23,o),
(627,-23,cs)
);
}
);
width = 1368;
},
{
anchors = (
{
name = bottom;
pos = (663,0);
},
{
name = hook;
pos = (1178,1086);
},
{
name = strokebar;
pos = (1067,397);
},
{
name = top;
pos = (840,1486);
}
);
color = 4;
layerId = "10D406F4-E64B-40B9-806E-EB589F33F511";
shapes = (
{
closed = 1;
nodes = (
(771,-16,o),
(883,27,o),
(961,53,cs),
(1034,77,o),
(1071,87,o),
(1109,91,c),
(1197,708,l),
(798,708,l),
(791,645,l),
(1037,630,l),
(973,157,l),
(900,94,o),
(771,37,o),
(659,37,cs),
(374,37,o),
(271,321,o),
(271,629,cs),
(271,1008,o),
(420,1449,o),
(816,1449,cs),
(994,1449,o),
(1061,1404,o),
(1114,1369,c),
(1119,1146,l),
(1188,1146,l),
(1242,1442,l),
(1221,1442,o),
(1210,1446,o),
(1196,1449,cs),
(1125,1464,o),
(1017,1502,o),
(835,1502,cs),
(418,1502,o),
(92,1150,o),
(92,613,cs),
(92,308,o),
(219,-16,o),
(651,-16,cs)
);
}
);
width = 1284;
},
{
anchors = (
{
name = bottom;
pos = (685,0);
},
{
name = hook;
pos = (1361,1090);
},
{
name = strokebar;
pos = (1152,397);
},
{
name = top;
pos = (898,1486);
}
);
color = 4;
layerId = "2795BD5C-FE1E-44B5-B1D3-799347E852FC";
shapes = (
{
closed = 1;
nodes = (
(860,-23,o),
(1001,21,o),
(1117,48,cs),
(1172,61,o),
(1224,72,o),
(1276,72,c),
(1383,725,l),
(837,725,l),
(832,689,l),
(998,647,l),
(907,81,l),
(854,53,o),
(781,34,o),
(700,34,cs),
(494,34,o),
(467,320,o),
(467,567,cs),
(467,1095,o),
(639,1447,o),
(895,1447,cs),
(994,1447,o),
(1066,1413,o),
(1084,1390,c),
(1119,1090,l),
(1361,1090,l),
(1420,1450,l),
(1383,1450,o),
(1351,1454,o),
(1319,1460,cs),
(1232,1476,o),
(1132,1506,o),
(905,1506,cs),
(333,1506,o),
(52,1066,o),
(52,609,cs),
(52,289,o),
(200,-23,o),
(693,-23,cs)
);
}
);
width = 1443;
},
{
anchors = (
{
name = bottom;
pos = (673,0);
},
{
name = hook;
pos = (1252,1149);
},
{
name = strokebar;
pos = (1107,397);
},
{
name = top;
pos = (875,1486);
}
);
layerId = "95CCB04D-97EC-4126-A206-216E0B8EC505";
shapes = (
{
closed = 1;
nodes = (
(816,-16,o),
(936,27,o),
(1019,53,cs),
(1099,78,o),
(1138,88,o),
(1178,92,c),
(1267,707,l),
(842,707,l),
(835,643,l),
(1109,629,l),
(1045,161,l),
(965,96,o),
(820,37,o),
(697,37,cs),
(391,37,o),
(254,319,o),
(254,647,cs),
(254,1005,o),
(422,1449,o),
(861,1449,cs),
(1048,1449,o),
(1123,1404,o),
(1183,1368,c),
(1189,1149,l),
(1252,1149,l),
(1308,1442,l),
(1298,1443,o),
(1284,1446,o),
(1246,1454,cs),
(1194,1465,o),
(1066,1502,o),
(881,1502,cs),
(431,1502,o),
(82,1155,o),
(82,620,cs),
(82,309,o),
(226,-16,o),
(690,-16,cs)
);
}
);
width = 1369;
},
{
anchors = (
{
name = bottom;
pos = (668,0);
},
{
name = hook;
pos = (1071,1086);
},
{
name = strokebar;
pos = (934,385);
},
{
name = top;
pos = (825,1486);
}
);
color = 4;
layerId = "8587C386-9485-4E77-8679-63F1A494C2C0";
shapes = (
{
closed = 1;
nodes = (
(693,-16,o),
(796,30,o),
(873,60,cs),
(919,78,o),
(956,92,o),
(989,92,c),
(1071,706,l),
(690,706,l),
(679,616,l),
(903,601,l),
(845,174,l),
(792,108,o),
(693,78,o),
(570,78,cs),
(362,78,o),
(269,294,o),
(269,626,cs),
(269,1070,o),
(442,1407,o),
(742,1408,cs),
(874,1408,o),
(933,1380,o),
(977,1344,c),
(977,1148,l),
(1078,1148,l),
(1133,1436,l),
(1122,1440,o),
(1110,1444,o),
(1098,1448,c),
(1036,1468,o),
(934,1502,o),
(757,1502,cs),
(346,1502,o),
(102,1110,o),
(102,604,cs),
(102,256,o),
(234,-16,o),
(546,-16,cs)
);
}
);
width = 1168;
},
{
anchors = (
{
name = bottom;
pos = (652,0);
},
{
name = hook;
pos = (1172,1086);
},
{
name = strokebar;
pos = (984,377);
},
{
name = top;
pos = (835,1486);
}
);
color = 4;
layerId = "F8806197-5953-4DD8-B2B5-EF301301BB43";
shapes = (
{
closed = 1;
nodes = (
(732,-16,o),
(825,21,o),
(925,51,cs),
(977,67,o),
(1048,83,o),
(1095,83,c),
(1185,733,l),
(701,733,l),
(681,594,l),
(842,578,l),
(789,161,l),
(741,135,o),
(692,127,o),
(642,127,cs),
(459,127,o),
(413,358,o),
(413,641,cs),
(413,1015,o),
(504,1381,o),
(817,1381,cs),
(862,1381,o),
(909,1364,o),
(949,1337,c),
(954,1115,l),
(1174,1115,l),
(1236,1436,l),
(1218,1440,o),
(1201,1444,o),
(1182,1448,cs),
(1107,1468,o),
(1030,1504,o),
(812,1504,cs),
(313,1504,o),
(66,1148,o),
(66,612,cs),
(66,283,o),
(217,-16,o),
(572,-16,cs)
);
}
);
width = 1260;
},
{
anchors = (
{
name = bottom;
pos = (591,0);
},
{
name = hook;
pos = (1078,1086);
},
{
name = strokebar;
pos = (937,397);
},
{
name = top;
pos = (768,1486);
}
);
color = 4;
layerId = "F318CEA5-7792-49D8-B68D-92025E304353";
shapes = (
{
closed = 1;
nodes = (
(698,-17,o),
(793,20,o),
(866,47,cs),
(929,70,o),
(964,80,o),
(999,83,c),
(1087,709,l),
(721,709,l),
(714,649,l),
(929,631,l),
(863,144,l),
(799,84,o),
(693,37,o),
(591,37,cs),
(339,37,o),
(257,324,o),
(257,622,cs),
(257,1005,o),
(406,1449,o),
(752,1449,cs),
(904,1449,o),
(965,1405,o),
(1010,1371,c),
(1013,1141,l),
(1085,1141,l),
(1137,1443,l),
(1117,1445,o),
(1105,1447,o),
(1092,1450,cs),
(1028,1467,o),
(934,1502,o),
(769,1502,cs),
(383,1502,o),
(88,1143,o),
(88,612,cs),
(88,306,o),
(192,-17,o),
(580,-17,cs)
);
}
);
width = 1154;
},
{
anchors = (
{
name = bottom;
pos = (609,0);
},
{
name = hook;
pos = (1186,1086);
},
{
name = strokebar;
pos = (1042,397);
},
{
name = top;
pos = (822,1486);
}
);
color = 4;
layerId = "7A2136B0-3E1D-476B-B826-4714342A6FC2";
shapes = (
{
closed = 1;
nodes = (
(768,-23,o),
(881,21,o),
(990,48,cs),
(1042,61,o),
(1071,72,o),
(1120,72,c),
(1209,725,l),
(714,725,l),
(709,689,l),
(870,647,l),
(796,81,l),
(746,53,o),
(694,34,o),
(623,34,cs),
(425,34,o),
(422,352,o),
(422,546,cs),
(422,1043,o),
(563,1447,o),
(811,1447,cs),
(874,1447,o),
(917,1413,o),
(934,1390,c),
(967,1090,l),
(1186,1090,l),
(1242,1450,l),
(1207,1450,o),
(1177,1454,o),
(1147,1460,cs),
(1065,1476,o),
(978,1506,o),
(820,1506,cs),
(289,1506,o),
(55,1049,o),
(55,596,cs),
(55,302,o),
(177,-23,o),
(586,-23,cs)
);
}
);
width = 1253;
}
);
unicode = 71;
userData = {
KernOnName = G;
};
}
{
glyphname = I;
kernLeft = KO_I;
kernRight = KO_I;
layers = (
{
anchors = (
{
name = bottom;
pos = (231,0);
},
{
name = center;
pos = (333,764);
},
{
name = ogonek;
pos = (317,0);
},
{
name = top;
pos = (434,1486);
},
{
name = topleft;
pos = (144,1486);
}
);
layerId = "0C3FD5EE-D923-4A4A-8FDE-164881635915";
shapes = (
{
closed = 1;
nodes = (
(477,0,l),
(483,70,l),
(330,94,l),
(492,1386,l),
(644,1406,l),
(652,1486,l),
(205,1486,l),
(195,1406,l),
(334,1386,l),
(170,94,l),
(21,70,l),
(15,0,l)
);
}
);
width = 630;
},
{
anchors = (
{
name = bottom;
pos = (314,0);
},
{
name = center;
pos = (416,764);
},
{
name = ogonek;
pos = (445,0);
},
{
name = top;
pos = (516,1486);
},
{
name = topleft;
pos = (183,1486);
}
);
layerId = "27298932-82AF-4578-9425-6304FDB19058";
shapes = (
{
closed = 1;
nodes = (
(658,0,l),
(666,102,l),
(496,130,l),
(663,1355,l),
(838,1379,l),
(850,1486,l),
(173,1486,l),
(159,1379,l),
(325,1355,l),
(158,130,l),
(-8,102,l),
(-18,0,l)
);
}
);
width = 779;
},
{
anchors = (
{
name = bottom;
pos = (324,0);
},
{
name = center;
pos = (433,764);
},
{
name = ogonek;
pos = (415,0);
},
{
name = top;
pos = (522,1486);
},
{
name = topleft;
pos = (161,1486);
}
);
color = 4;
layerId = "9079322E-D2EB-4437-A6B9-48C6726F1892";
shapes = (
{
closed = 1;
nodes = (
(687,0,l),
(702,103,l),
(513,131,l),
(674,1355,l),
(859,1379,l),
(870,1486,l),
(177,1486,l),
(167,1379,l),
(326,1355,l),
(165,131,l),
(1,103,l),
(-14,0,l)
);
}
);
width = 818;
},
{
anchors = (
{
name = bottom;
pos = (252,0);
},
{
name = center;
pos = (364,764);
},
{
name = ogonek;
pos = (338,0);
},
{
name = top;
pos = (469,1486);
},
{
name = topleft;
pos = (130,1486);
}
);
color = 4;
layerId = "AB43ED1F-BEAA-4517-9B18-06741265F15E";
shapes = (
{
closed = 1;
nodes = (
(527,0,l),
(537,80,l),
(362,104,l),
(535,1386,l),
(707,1406,l),
(717,1486,l),
(213,1486,l),
(203,1406,l),
(374,1386,l),
(201,104,l),
(26,80,l),
(16,0,l)
);
}
);
width = 688;
},
{
anchors = (
{
name = bottom;
pos = (277,0);
},
{
name = center;
pos = (374,754);
},
{
name = ogonek;
pos = (360,0);
},
{
name = top;
pos = (478,1486);
},
{
name = topleft;
pos = (179,1486);
}
);
color = 4;
layerId = "0E81F995-ADCA-4265-BF48-502C19DBCB17";
shapes = (
{
closed = 1;
nodes = (
(586,0,l),
(591,39,l),
(471,72,l),
(655,1413,l),
(796,1450,l),
(800,1486,l),
(158,1486,l),
(153,1450,l),
(280,1413,l),
(97,72,l),
(-43,39,l),
(-48,0,l)
);
}
);
width = 686;
},
{
anchors = (
{
name = bottom;
pos = (191,0);
},
{
name = center;
pos = (301,764);
},
{
name = ogonek;
pos = (266,0);
},
{
name = top;
pos = (397,1486);
},
{
name = topleft;
pos = (170,1486);
}
);
color = 4;
layerId = "10D406F4-E64B-40B9-806E-EB589F33F511";
shapes = (
{
closed = 1;
nodes = (
(428,0,l),
(433,36,l),
(284,67,l),
(470,1420,l),
(607,1450,l),
(612,1486,l),
(182,1486,l),
(177,1450,l),
(314,1420,l),
(128,67,l),
(-19,36,l),
(-24,0,l)
);
}
);
width = 542;
},
{
anchors = (
{
name = bottom;
pos = (322,0);
},
{
name = center;
pos = (386,754);
},
{
name = ogonek;
pos = (412,0);
},
{
name = top;
pos = (496,1486);
},
{
name = topleft;
pos = (193,1486);
}
);
color = 4;
layerId = "2795BD5C-FE1E-44B5-B1D3-799347E852FC";
shapes = (
{
closed = 1;
nodes = (
(629,0,l),
(634,39,l),
(494,72,l),
(677,1413,l),
(817,1450,l),
(821,1486,l),
(170,1486,l),
(165,1450,l),
(283,1413,l),
(100,72,l),
(-31,39,l),
(-36,0,l)
);
}
);
width = 730;
},
{
anchors = (
{
name = bottom;
pos = (200,0);
},
{
name = center;
pos = (312,764);
},
{
name = ogonek;
pos = (273,0);
},
{
name = top;
pos = (409,1486);
},
{
name = topleft;
pos = (154,1486);
}
);
layerId = "95CCB04D-97EC-4126-A206-216E0B8EC505";
shapes = (
{
closed = 1;
nodes = (
(448,0,l),
(454,36,l),
(295,67,l),
(482,1420,l),
(636,1450,l),
(641,1486,l),
(185,1486,l),
(180,1450,l),
(326,1420,l),
(139,67,l),
(-28,36,l),
(-33,0,l)
);
}
);
width = 554;
},
{
anchors = (
{
name = bottom;
pos = (227,0);
},
{
name = center;
pos = (336,764);
},
{
name = ogonek;
pos = (267,0);
},
{
name = top;
pos = (425,1486);
},
{
name = topleft;
pos = (172,1486);
}
);
color = 4;
layerId = "8587C386-9485-4E77-8679-63F1A494C2C0";
shapes = (
{
closed = 1;
nodes = (
(439,0,l),
(449,78,l),
(316,98,l),
(490,1388,l),
(617,1408,l),
(624,1486,l),
(214,1486,l),
(204,1408,l),
(336,1388,l),
(162,98,l),
(26,78,l),
(15,0,l)
);
}
);
width = 598;
},
{
anchors = (
{
name = bottom;
pos = (287,0);
},
{
name = center;
pos = (392,764);
},
{
name = ogonek;
pos = (385,0);
},
{
name = top;
pos = (492,1486);
},
{
name = topleft;
pos = (202,1486);
}
);
color = 4;
layerId = "F8806197-5953-4DD8-B2B5-EF301301BB43";
shapes = (
{
closed = 1;
nodes = (
(601,0,l),
(613,102,l),
(461,128,l),
(631,1357,l),
(781,1384,l),
(793,1486,l),
(175,1486,l),
(163,1384,l),
(309,1357,l),
(139,128,l),
(-2,102,l),
(-14,0,l)
);
}
);
width = 717;
},
{
anchors = (
{
name = bottom;
pos = (205,0);
},
{
name = center;
pos = (299,764);
},
{
name = ogonek;
pos = (260,0);
},
{
name = top;
pos = (410,1486);
},
{
name = topleft;
pos = (204,1486);
}
);
color = 4;
layerId = "F318CEA5-7792-49D8-B68D-92025E304353";
shapes = (
{
closed = 1;
nodes = (
(417,0,l),
(422,36,l),
(289,67,l),
(475,1420,l),
(610,1450,l),
(615,1486,l),
(197,1486,l),
(192,1450,l),
(325,1420,l),
(139,67,l),
(2,36,l),
(-3,0,l)
);
}
);
width = 548;
},
{
anchors = (
{
name = bottom;
pos = (264,0);
},
{
name = center;
pos = (360,754);
},
{
name = ogonek;
pos = (355,0);
},
{
name = top;
pos = (468,1486);
},
{
name = topleft;
pos = (192,1486);
}
);
color = 4;
layerId = "7A2136B0-3E1D-476B-B826-4714342A6FC2";
shapes = (
{
closed = 1;
nodes = (
(584,0,l),
(591,38,l),
(444,72,l),
(628,1413,l),
(770,1450,l),
(774,1486,l),
(160,1486,l),
(155,1450,l),
(283,1413,l),
(99,72,l),
(-41,38,l),
(-46,0,l)
);
}
);
width = 678;
}
);
unicode = 73;
userData = {
KernOnName = I;
};
}
{
glyphname = J;
layers = (
{
anchors = (
{
name = btm;
pos = (262,-164);
},
{
name = center;
pos = (356,764);
},
{
name = top;
pos = (458,1486);
}
);
layerId = "0C3FD5EE-D923-4A4A-8FDE-164881635915";
shapes = (
{
closed = 1;
nodes = (
(51,-302,o),
(255,-189,o),
(335,74,cs),
(364,166,o),
(430,738,o),
(502,1388,c),
(668,1406,l),
(677,1486,l),
(213,1486,l),
(202,1406,l),
(348,1388,l),
(300,962,o),
(248,406,o),
(182,88,cs),
(149,-70,o),
(-2,-219,o),
(-180,-266,c),
(-151,-336,l)
);
}
);
width = 648;
},
{
anchors = (
{
name = btm;
pos = (264,-164);
},
{
name = center;
pos = (384,764);
},
{
name = top;
pos = (493,1486);
}
);
layerId = "27298932-82AF-4578-9425-6304FDB19058";
shapes = (
{
closed = 1;
nodes = (
(158,-298,o),
(368,-148,o),
(448,74,cs),
(481,166,o),
(556,804,o),
(624,1355,c),
(761,1379,l),
(777,1486,l),
(162,1486,l),
(148,1379,l),
(290,1353,l),
(240,929,o),
(180,462,o),
(122,84,cs),
(102,-45,o),
(4,-168,o),
(-182,-233,c),
(-131,-336,l)
);
}
);
width = 702;
},
{
anchors = (
{
name = btm;
pos = (289,-164);
},
{
name = center;
pos = (434,764);
},
{
name = top;
pos = (518,1486);
}
);
color = 1;
layerId = "9079322E-D2EB-4437-A6B9-48C6726F1892";
shapes = (
{
closed = 1;
nodes = (
(191,-292,o),
(380,-182,o),
(474,9,cs),
(541,137,o),
(580,572,o),
(678,1355,c),
(837,1379,l),
(849,1486,l),
(184,1486,l),
(173,1379,l),
(334,1353,l),
(288,955,o),
(234,517,o),
(177,153,cs),
(143,-63,o),
(48,-161,o),
(-182,-233,c),
(-127,-336,l)
);
}
);
width = 769;
},
{
anchors = (
{
name = btm;
pos = (302,-164);
},
{
name = center;
pos = (390,764);
},
{
name = top;
pos = (498,1486);
}
);
color = 4;
layerId = "AB43ED1F-BEAA-4517-9B18-06741265F15E";
shapes = (
{
closed = 1;
nodes = (
(61,-302,o),
(287,-234,o),
(374,74,cs),
(418,230,o),
(471,738,o),
(544,1388,c),
(721,1406,l),
(730,1486,l),
(230,1486,l),
(220,1406,l),
(388,1388,l),
(340,962,o),
(283,407,o),
(218,88,cs),
(172,-138,o),
(10,-219,o),
(-188,-266,c),
(-157,-336,l)
);
}
);
width = 690;
},
{
anchors = (
{
name = btm;
pos = (212,-164);
},
{
name = center;
pos = (362,764);
},
{
name = top;
pos = (441,1486);
}
);
color = 4;
layerId = "0E81F995-ADCA-4265-BF48-502C19DBCB17";
shapes = (
{
closed = 1;
nodes = (
(223,-250,o),
(393,-78,o),
(450,140,cs),
(517,396,o),
(547,781,o),
(625,1413,c),
(758,1450,l),
(762,1486,l),
(128,1486,l),
(123,1450,l),
(259,1413,l),
(220,989,o),
(164,518,o),
(103,146,cs),
(74,-31,o),
(0,-198,o),
(-186,-263,c),
(-152,-312,l)
);
}
);
width = 648;
},
{
anchors = (
{
name = btm;
pos = (315,-164);
},
{
name = center;
pos = (344,764);
},
{
name = top;
pos = (511,1486);
}
);
color = 4;
layerId = "10D406F4-E64B-40B9-806E-EB589F33F511";
shapes = (
{
closed = 1;
nodes = (
(43,-275,o),
(273,-164,o),
(327,74,cs),
(365,241,o),
(435,766,o),
(507,1420,c),
(643,1450,l),
(648,1486,l),
(216,1486,l),
(211,1450,l),
(352,1420,l),
(304,994,o),
(240,406,o),
(174,88,cs),
(141,-70,o),
(38,-209,o),
(-180,-266,c),
(-159,-309,l)
);
}
);
width = 548;
},
{
anchors = (
{
name = btm;
pos = (248,-164);
},
{
name = center;
pos = (372,764);
},
{
name = top;
pos = (477,1486);
}
);
color = 4;
layerId = "2795BD5C-FE1E-44B5-B1D3-799347E852FC";
shapes = (
{
closed = 1;
nodes = (
(216,-282,o),
(393,-129,o),
(448,89,cs),
(512,345,o),
(563,781,o),
(649,1413,c),
(789,1450,l),
(793,1486,l),
(142,1486,l),
(137,1450,l),
(256,1413,l),
(201,986,o),
(141,518,o),
(85,146,cs),
(58,-31,o),
(11,-192,o),
(-186,-263,c),
(-152,-312,l)
);
}
);
width = 672;
},
{
anchors = (
{
name = btm;
pos = (342,-164);
},
{
name = center;
pos = (354,764);
},
{
name = top;
pos = (469,1486);
}
);
layerId = "95CCB04D-97EC-4126-A206-216E0B8EC505";
shapes = (
{
closed = 1;
nodes = (
(11,-276,o),
(260,-169,o),
(315,70,cs),
(353,232,o),
(436,764,o),
(516,1419,c),
(670,1450,l),
(676,1486,l),
(215,1486,l),
(210,1450,l),
(361,1419,l),
(303,993,o),
(231,400,o),
(163,85,cs),
(129,-72,o),
(18,-210,o),
(-219,-266,c),
(-197,-309,l)
);
}
);
width = 566;
},
{
anchors = (
{
name = btm;
pos = (268,-164);
},
{
name = center;
pos = (305,764);
},
{
name = top;
pos = (464,1486);
}
);
color = 4;
layerId = "8587C386-9485-4E77-8679-63F1A494C2C0";
shapes = (
{
closed = 1;
nodes = (
(29,-302,o),
(208,-192,o),
(283,74,cs),
(309,166,o),
(380,734,o),
(456,1390,c),
(598,1408,l),
(606,1486,l),
(176,1486,l),
(168,1408,l),
(306,1390,l),
(255,964,o),
(197,403,o),
(134,88,cs),
(102,-71,o),
(-25,-222,o),
(-181,-268,c),
(-155,-336,l)
);
}
);
width = 578;
},
{
anchors = (
{
name = btm;
pos = (198,-164);
},
{
name = center;
pos = (336,764);
},
{
name = top;
pos = (427,1486);
}
);
color = 4;
layerId = "F8806197-5953-4DD8-B2B5-EF301301BB43";
shapes = (
{
closed = 1;
nodes = (
(129,-298,o),
(336,-137,o),
(389,74,cs),
(447,304,o),
(501,800,o),
(571,1357,c),
(699,1383,l),
(712,1486,l),
(134,1486,l),
(121,1383,l),
(253,1355,l),
(202,931,o),
(141,456,o),
(86,121,cs),
(57,-55,o),
(-18,-171,o),
(-182,-235,c),
(-136,-336,l)
);
}
);
width = 639;
},
{
anchors = (
{
name = btm;
pos = (237,-164);
},
{
name = center;
pos = (311,764);
},
{
name = top;
pos = (438,1486);
}
);
color = 4;
layerId = "F318CEA5-7792-49D8-B68D-92025E304353";
shapes = (
{
closed = 1;
nodes = (
(37,-273,o),
(238,-157,o),
(290,80,cs),
(329,254,o),
(393,763,o),
(467,1415,c),
(609,1450,l),
(614,1486,l),
(183,1486,l),
(178,1450,l),
(316,1420,l),
(268,995,o),
(210,416,o),
(147,93,cs),
(115,-67,o),
(17,-208,o),
(-176,-266,c),
(-157,-309,l)
);
}
);
width = 507;
},
{
anchors = (
{
name = btm;
pos = (210,-164);
},
{
name = center;
pos = (362,764);
},
{
name = top;
pos = (439,1486);
}
);
color = 4;
layerId = "7A2136B0-3E1D-476B-B826-4714342A6FC2";
shapes = (
{
closed = 1;
nodes = (
(232,-238,o),
(384,-78,o),
(441,140,cs),
(508,396,o),
(544,781,o),
(616,1413,c),
(755,1450,l),
(759,1486,l),
(149,1486,l),
(144,1450,l),
(270,1413,l),
(231,989,o),
(175,518,o),
(114,146,cs),
(85,-31,o),
(11,-188,o),
(-155,-263,c),
(-123,-310,l)
);
}
);
width = 651;
}
);
unicode = 74;
userData = {
KernOnName = J;
};
}
{
glyphname = K;
layers = (
{
anchors = (
{
name = bottom;
pos = (644,0);
},
{
name = center;
pos = (367,1110);
},
{
name = top;
pos = (804,1486);
}
);
layerId = "0C3FD5EE-D923-4A4A-8FDE-164881635915";
shapes = (
{
closed = 1;
nodes = (
(456,0,l),
(462,70,l),
(310,94,l),
(486,1386,l),
(634,1406,l),
(644,1486,l),
(204,1486,l),
(194,1406,l),
(328,1386,l),
(152,94,l),
(6,70,l),
(-4,0,l)
);
},
{
closed = 1;
nodes = (
(1224,1388,l),
(1340,1406,l),
(1354,1486,l),
(948,1486,l),
(938,1406,l),
(1072,1386,l),
(370,616,l),
(350,462,l)
);
},
{
closed = 1;
nodes = (
(1234,76,l),
(1114,108,l),
(1072,132,o),
(1030,216,o),
(912,410,cs),
(844,516,o),
(736,713,o),
(671,821,c),
(571,714,l),
(626,616,o),
(708,458,o),
(772,348,cs),
(853,209,o),
(944,4,o),
(990,0,c),
(1222,0,l)
);
}
);
width = 1294;
},
{
anchors = (
{
name = bottom;
pos = (743,0);
},
{
name = center;
pos = (449,1110);
},
{
name = top;
pos = (911,1486);
}
);
layerId = "27298932-82AF-4578-9425-6304FDB19058";
shapes = (
{
closed = 1;
nodes = (
(647,0,l),
(656,103,l),
(481,131,l),
(641,1355,l),
(816,1379,l),
(828,1486,l),
(181,1486,l),
(169,1379,l),
(309,1355,l),
(149,131,l),
(7,103,l),
(-7,0,l)
);
},
{
closed = 1;
nodes = (
(1403,1355,l),
(1526,1379,l),
(1538,1486,l),
(1051,1486,l),
(1041,1381,l),
(1173,1355,l),
(524,672,l),
(498,456,l)
);
},
{
closed = 1;
nodes = (
(1473,110,l),
(1361,140,l),
(1317,168,o),
(1269,287,o),
(1189,484,cs),
(1144,597,o),
(1047,886,o),
(1003,992,c),
(759,748,l),
(812,588,o),
(865,356,o),
(907,218,cs),
(959,52,o),
(976,6,o),
(1034,0,c),
(1454,0,l)
);
}
);
width = 1484;
},
{
anchors = (
{
name = bottom;
pos = (793,0);
},
{
name = center;
pos = (445,1110);
},
{
name = top;
pos = (946,1486);
}
);
color = 1;
layerId = "9079322E-D2EB-4437-A6B9-48C6726F1892";
shapes = (
{
closed = 1;
nodes = (
(-14,0,l),
(678,0,l),
(690,106,l),
(498,132,l),
(665,1354,l),
(856,1380,l),
(868,1486,l),
(177,1486,l),
(165,1380,l),
(317,1354,l),
(150,132,l),
(-2,106,l)
);
},
{
closed = 1;
nodes = (
(1500,1354,l),
(1637,1378,l),
(1649,1486,l),
(1117,1486,l),
(1105,1380,l),
(1255,1354,l),
(535,672,l),
(511,456,l)
);
},
{
closed = 1;
nodes = (
(1564,111,l),
(1447,141,l),
(1397,168,o),
(1346,282,o),
(1254,475,cs),
(1201,585,o),
(1096,848,o),
(1036,952,c),
(780,739,l),
(848,556,o),
(918,349,o),
(967,214,cs),
(1027,51,o),
(1058,6,o),
(1121,0,c),
(1540,0,l)
);
}
);
width = 1589;
},
{
anchors = (
{
name = bottom;
pos = (683,0);
},
{
name = center;
pos = (365,1110);
},
{
name = top;
pos = (837,1486);
}
);
color = 4;
layerId = "AB43ED1F-BEAA-4517-9B18-06741265F15E";
shapes = (
{
closed = 1;
nodes = (
(491,0,l),
(501,80,l),
(326,104,l),
(497,1386,l),
(669,1406,l),
(679,1486,l),
(198,1486,l),
(188,1406,l),
(336,1386,l),
(165,104,l),
(8,80,l),
(-2,0,l)
);
},
{
closed = 1;
nodes = (
(1331,1388,l),
(1460,1406,l),
(1470,1486,l),
(1028,1486,l),
(1018,1406,l),
(1168,1386,l),
(386,616,l),
(366,462,l)
);
},
{
closed = 1;
nodes = (
(1352,76,l),
(1217,108,l),
(1170,132,o),
(1123,216,o),
(986,410,cs),
(907,516,o),
(785,713,o),
(710,821,c),
(611,714,l),
(672,616,o),
(768,458,o),
(842,348,cs),
(936,209,o),
(1047,4,o),
(1097,0,c),
(1340,0,l)
);
}
);
width = 1412;
},
{
anchors = (
{
name = bottom;
pos = (692,0);
},
{
name = center;
pos = (417,1110);
},
{
name = top;
pos = (919,1486);
}
);
color = 4;
layerId = "0E81F995-ADCA-4265-BF48-502C19DBCB17";
shapes = (
{
closed = 1;
nodes = (
(589,0,l),
(596,38,l),
(464,72,l),
(648,1413,l),
(799,1450,l),
(803,1486,l),
(161,1486,l),
(156,1450,l),
(274,1413,l),
(90,72,l),
(-40,38,l),
(-45,0,l)
);
},
{
closed = 1;
nodes = (
(1360,1417,l),
(1497,1452,l),
(1502,1486,l),
(1077,1486,l),
(1072,1452,l),
(1227,1417,l),
(475,622,l),
(496,554,l)
);
},
{
closed = 1;
nodes = (
(1436,40,l),
(1355,66,l),
(1277,110,o),
(1173,360,o),
(1080,569,cs),
(989,774,o),
(946,875,o),
(895,985,c),
(638,744,l),
(679,655,o),
(782,340,o),
(849,200,cs),
(910,72,o),
(922,0,o),
(986,0,c),
(1430,0,l)
);
}
);
width = 1477;
},
{
anchors = (
{
name = bottom;
pos = (614,0);
},
{
name = center;
pos = (347,1110);
},
{
name = top;
pos = (811,1486);
}
);
color = 4;
layerId = "10D406F4-E64B-40B9-806E-EB589F33F511";
shapes = (
{
closed = 1;
nodes = (
(427,0,l),
(432,36,l),
(282,67,l),
(468,1420,l),
(604,1450,l),
(609,1486,l),
(181,1486,l),
(176,1450,l),
(312,1420,l),
(126,67,l),
(-20,36,l),
(-25,0,l)
);
},
{
closed = 1;
nodes = (
(1190,1425,l),
(1325,1450,l),
(1332,1486,l),
(934,1486,l),
(930,1450,l),
(1086,1423,l),
(339,583,l),
(326,486,l)
);
},
{
closed = 1;
nodes = (
(1205,36,l),
(1092,68,l),
(1056,95,o),
(990,217,o),
(887,404,cs),
(827,513,o),
(697,739,o),
(643,841,c),
(546,739,l),
(595,647,o),
(692,454,o),
(752,342,cs),
(827,203,o),
(922,4,o),
(968,0,c),
(1200,0,l)
);
}
);
width = 1299;
},
{
anchors = (
{
name = bottom;
pos = (700,0);
},
{
name = center;
pos = (407,1110);
},
{
name = top;
pos = (905,1486);
}
);
color = 4;
layerId = "2795BD5C-FE1E-44B5-B1D3-799347E852FC";
shapes = (
{
closed = 1;
nodes = (
(599,0,l),
(606,38,l),
(474,72,l),
(658,1413,l),
(809,1450,l),
(813,1486,l),
(153,1486,l),
(148,1450,l),
(266,1413,l),
(82,72,l),
(-48,38,l),
(-53,0,l)
);
},
{
closed = 1;
nodes = (
(1412,1409,l),
(1562,1450,l),
(1567,1486,l),
(1118,1486,l),
(1113,1450,l),
(1270,1410,l),
(483,622,l),
(508,553,l)
);
},
{
closed = 1;
nodes = (
(1510,40,l),
(1424,66,l),
(1341,110,o),
(1230,359,o),
(1131,568,c),
(1034,772,o),
(987,874,o),
(932,984,c),
(652,744,l),
(696,655,o),
(807,341,o),
(878,201,c),
(944,73,o),
(957,0,o),
(1025,0,c),
(1504,0,l)
);
}
);
width = 1549;
},
{
anchors = (
{
name = bottom;
pos = (597,0);
},
{
name = center;
pos = (338,1110);
},
{
name = top;
pos = (788,1486);
}
);
layerId = "95CCB04D-97EC-4126-A206-216E0B8EC505";
shapes = (
{
closed = 1;
nodes = (
(408,0,l),
(413,36,l),
(254,67,l),
(441,1420,l),
(594,1450,l),
(599,1486,l),
(164,1486,l),
(159,1450,l),
(285,1420,l),
(99,67,l),
(-37,36,l),
(-42,0,l)
);
},
{
closed = 1;
nodes = (
(1222,1426,l),
(1367,1450,l),
(1372,1486,l),
(947,1486,l),
(942,1450,l),
(1106,1424,l),
(308,581,l),
(293,482,l)
);
},
{
closed = 1;
nodes = (
(1249,36,l),
(1132,68,l),
(1095,94,o),
(1025,209,o),
(911,395,cs),
(847,499,o),
(693,749,o),
(634,851,c),
(538,738,l),
(592,646,o),
(699,460,o),
(764,350,cs),
(848,210,o),
(957,4,o),
(1006,0,c),
(1244,0,l)
);
}
);
width = 1351;
},
{
anchors = (
{
name = bottom;
pos = (588,0);
},
{
name = center;
pos = (355,1110);
},
{
name = top;
pos = (812,1486);
}
);
color = 4;
layerId = "8587C386-9485-4E77-8679-63F1A494C2C0";
shapes = (
{
closed = 1;
nodes = (
(421,0,l),
(428,68,l),
(295,92,l),
(468,1388,l),
(595,1408,l),
(603,1486,l),
(202,1486,l),
(194,1408,l),
(314,1388,l),
(140,98,l),
(14,78,l),
(5,0,l)
);
},
{
closed = 1;
nodes = (
(1114,1390,l),
(1215,1408,l),
(1229,1486,l),
(870,1486,l),
(860,1407,l),
(975,1388,l),
(356,613,l),
(335,462,l)
);
},
{
closed = 1;
nodes = (
(1101,74,l),
(998,107,l),
(962,131,o),
(926,214,o),
(830,408,cs),
(775,519,o),
(686,708,o),
(632,832,c),
(531,716,l),
(578,614,o),
(642,459,o),
(689,354,cs),
(752,214,o),
(833,0,o),
(879,0,c),
(1089,0,l)
);
}
);
width = 1181;
},
{
anchors = (
{
name = bottom;
pos = (697,0);
},
{
name = center;
pos = (428,1110);
},
{
name = top;
pos = (860,1486);
}
);
color = 4;
layerId = "F8806197-5953-4DD8-B2B5-EF301301BB43";
shapes = (
{
closed = 1;
nodes = (
(582,0,l),
(594,102,l),
(447,128,l),
(617,1357,l),
(767,1384,l),
(779,1486,l),
(183,1486,l),
(171,1384,l),
(295,1357,l),
(125,128,l),
(9,102,l),
(-3,0,l)
);
},
{
closed = 1;
nodes = (
(1272,1357,l),
(1380,1381,l),
(1393,1486,l),
(958,1486,l),
(947,1384,l),
(1061,1357,l),
(493,668,l),
(464,456,l)
);
},
{
closed = 1;
nodes = (
(1326,101,l),
(1229,130,l),
(1189,155,o),
(1141,265,o),
(1069,449,cs),
(1028,554,o),
(933,821,o),
(877,963,c),
(665,700,l),
(717,554,o),
(778,340,o),
(818,213,cs),
(866,59,o),
(872,6,o),
(924,0,c),
(1314,0,l)
);
}
);
width = 1321;
},
{
anchors = (
{
name = bottom;
pos = (550,0);
},
{
name = center;
pos = (343,1110);
},
{
name = top;
pos = (748,1486);
}
);
color = 4;
layerId = "F318CEA5-7792-49D8-B68D-92025E304353";
shapes = (
{
closed = 1;
nodes = (
(408,0,l),
(413,36,l),
(279,67,l),
(465,1420,l),
(605,1450,l),
(610,1486,l),
(199,1486,l),
(194,1450,l),
(315,1420,l),
(129,67,l),
(-2,36,l),
(-7,0,l)
);
},
{
closed = 1;
nodes = (
(1108,1424,l),
(1229,1450,l),
(1234,1486,l),
(879,1486,l),
(874,1450,l),
(1012,1422,l),
(332,586,l),
(322,482,l)
);
},
{
closed = 1;
nodes = (
(1107,36,l),
(1009,68,l),
(974,96,o),
(914,229,o),
(825,418,cs),
(770,535,o),
(664,751,o),
(618,854,c),
(516,740,l),
(558,648,o),
(643,444,o),
(695,330,cs),
(758,192,o),
(835,4,o),
(878,0,c),
(1102,0,l)
);
}
);
width = 1179;
},
{
anchors = (
{
name = bottom;
pos = (659,0);
},
{
name = center;
pos = (405,1110);
},
{
name = top;
pos = (873,1486);
}
);
color = 4;
layerId = "7A2136B0-3E1D-476B-B826-4714342A6FC2";
shapes = (
{
closed = 1;
nodes = (
(583,0,l),
(590,38,l),
(443,72,l),
(627,1413,l),
(769,1450,l),
(773,1486,l),
(157,1486,l),
(152,1450,l),
(280,1413,l),
(96,72,l),
(-44,38,l),
(-49,0,l)
);
},
{
closed = 1;
nodes = (
(1259,1411,l),
(1407,1450,l),
(1412,1486,l),
(981,1486,l),
(976,1450,l),
(1136,1411,l),
(455,625,l),
(473,561,l)
);
},
{
closed = 1;
nodes = (
(1320,40,l),
(1251,66,l),
(1192,111,o),
(1103,373,o),
(1021,584,cs),
(938,797,o),
(904,888,o),
(860,998,c),
(609,745,l),
(647,647,o),
(735,359,o),
(767,275,cs),
(839,87,o),
(843,0,o),
(902,0,c),
(1314,0,l)
);
}
);
width = 1355;
}
);
metricLeft = H;
unicode = 75;
userData = {
KernOnName = K;
};
}
{
glyphname = L;
layers = (
{
anchors = (
{
name = belt;
pos = (253,834);
},
{
name = bottom;
pos = (521,0);
},
{
name = car;
pos = (912,1133);
},
{
name = center;
pos = (370,743);
},
{
name = period;
pos = (1197,743);
},
{
name = top;
pos = (427,1486);
},
{
name = topright;
pos = (1253,1486);
}
);
layerId = "0C3FD5EE-D923-4A4A-8FDE-164881635915";
shapes = (
{
closed = 1;
nodes = (
(956,0,l),
(1064,428,l),
(972,446,l),
(830,102,l),
(310,94,l),
(486,1386,l),
(660,1406,l),
(666,1486,l),
(204,1486,l),
(194,1406,l),
(328,1386,l),
(152,94,l),
(6,70,l),
(0,0,l)
);
}
);
width = 1134;
},
{
anchors = (
{
name = belt;
pos = (239,821);
},
{
name = bottom;
pos = (609,0);
},
{
name = car;
pos = (1054,1133);
},
{
name = center;
pos = (422,743);
},
{
name = period;
pos = (1389,783);
},
{
name = top;
pos = (512,1486);
},
{
name = topright;
pos = (1382,1486);
}
);
layerId = "27298932-82AF-4578-9425-6304FDB19058";
shapes = (
{
closed = 1;
nodes = (
(1118,0,l),
(1219,560,l),
(1046,582,l),
(842,145,l),
(485,125,l),
(647,1355,l),
(825,1379,l),
(837,1486,l),
(181,1486,l),
(167,1379,l),
(309,1355,l),
(149,131,l),
(15,103,l),
(3,0,l)
);
}
);
width = 1251;
},
{
anchors = (
{
name = belt;
pos = (245,821);
},
{
name = bottom;
pos = (624,0);
},
{
name = car;
pos = (1130,1133);
},
{
name = center;
pos = (428,743);
},
{
name = period;
pos = (1395,783);
},
{
name = top;
pos = (517,1486);
},
{
name = topright;
pos = (1472.148,1486);
}
);
color = 1;
layerId = "9079322E-D2EB-4437-A6B9-48C6726F1892";
shapes = (
{
closed = 1;
nodes = (
(1196,0,l),
(1300,560,l),
(1119,582,l),
(910,145,l),
(497,125,l),
(665,1354,l),
(876,1380,l),
(888,1486,l),
(177,1486,l),
(165,1380,l),
(317,1354,l),
(150,132,l),
(-2,106,l),
(-14,0,l)
);
}
);
width = 1332;
},
{
anchors = (
{
name = belt;
pos = (263,834);
},
{
name = bottom;
pos = (569,0);
},
{
name = car;
pos = (1000,1134);
},
{
name = center;
pos = (357,743);
},
{
name = period;
pos = (1195,743);
},
{
name = top;
pos = (450,1486);
},
{
name = topright;
pos = (1363.837,1486);
}
);
color = 4;
layerId = "AB43ED1F-BEAA-4517-9B18-06741265F15E";
shapes = (
{
closed = 1;
nodes = (
(1050,0,l),
(1154,428,l),
(1058,446,l),
(921,102,l),
(324,94,l),
(497,1386,l),
(689,1406,l),
(699,1486,l),
(198,1486,l),
(188,1406,l),
(336,1386,l),
(165,104,l),
(8,80,l),
(-2,0,l)
);
}
);
width = 1234;
},
{
anchors = (
{
name = belt;
pos = (188,782);
},
{
name = bottom;
pos = (549,0);
},
{
name = car;
pos = (982,1135);
},
{
name = center;
pos = (373,743);
},
{
name = period;
pos = (1287,783);
},
{
name = top;
pos = (512,1486);
},
{
name = topright;
pos = (1371,1486);
}
);
color = 4;
layerId = "0E81F995-ADCA-4265-BF48-502C19DBCB17";
shapes = (
{
closed = 1;
nodes = (
(1054,0,l),
(1175,524,l),
(1002,543,l),
(802,84,l),
(462,53,l),
(649,1413,l),
(799,1450,l),
(803,1486,l),
(161,1486,l),
(156,1450,l),
(274,1413,l),
(90,72,l),
(-40,38,l),
(-45,0,l)
);
}
);
width = 1192;
},
{
anchors = (
{
name = belt;
pos = (220,749);
},
{
name = bottom;
pos = (510,0);
},
{
name = car;
pos = (909,1133);
},
{
name = center;
pos = (342,743);
},
{
name = period;
pos = (1114,743);
},
{
name = top;
pos = (404,1486);
},
{
name = topright;
pos = (1237,1486);
}
);
color = 4;
layerId = "10D406F4-E64B-40B9-806E-EB589F33F511";
shapes = (
{
closed = 1;
nodes = (
(915,0,l),
(1022,428,l),
(958,441,l),
(802,94,l),
(282,67,l),
(468,1420,l),
(626,1450,l),
(631,1486,l),
(181,1486,l),
(176,1450,l),
(312,1420,l),
(126,67,l),
(-20,36,l),
(-25,0,l)
);
}
);
width = 1080;
},
{
anchors = (
{
name = belt;
pos = (180,782);
},
{
name = bottom;
pos = (538,0);
},
{
name = car;
pos = (1002,1135);
},
{
name = center;
pos = (357,743);
},
{
name = period;
pos = (1237,783);
},
{
name = top;
pos = (475,1486);
},
{
name = topright;
pos = (1319,1486);
}
);
color = 4;
layerId = "2795BD5C-FE1E-44B5-B1D3-799347E852FC";
shapes = (
{
closed = 1;
nodes = (
(1066,0,l),
(1187,524,l),
(1014,543,l),
(805,84,l),
(471,53,l),
(658,1413,l),
(799,1450,l),
(803,1486,l),
(153,1486,l),
(148,1450,l),
(266,1413,l),
(82,72,l),
(-48,38,l),
(-53,0,l)
);
}
);
width = 1214;
},
{
anchors = (
{
name = belt;
pos = (193,749);
},
{
name = bottom;
pos = (527,0);
},
{
name = car;
pos = (960,1133);
},
{
name = center;
pos = (294,743);
},
{
name = period;
pos = (1105,743);
},
{
name = top;
pos = (392,1486);
},
{
name = topright;
pos = (1279.841,1486);
}
);
layerId = "95CCB04D-97EC-4126-A206-216E0B8EC505";
shapes = (
{
closed = 1;
nodes = (
(942,0,l),
(1041,423,l),
(978,435,l),
(838,95,l),
(257,68,l),
(441,1420,l),
(606,1450,l),
(611,1486,l),
(164,1486,l),
(159,1450,l),
(285,1420,l),
(99,67,l),
(-37,36,l),
(-42,0,l)
);
}
);
width = 1158;
},
{
anchors = (
{
name = belt;
pos = (251,834);
},
{
name = bottom;
pos = (459,0);
},
{
name = car;
pos = (910,1133);
},
{
name = center;
pos = (325,743);
},
{
name = period;
pos = (1195,743);
},
{
name = top;
pos = (435,1486);
},
{
name = topright;
pos = (1129.531,1486);
}
);
color = 4;
layerId = "8587C386-9485-4E77-8679-63F1A494C2C0";
shapes = (
{
closed = 1;
nodes = (
(864,0,l),
(962,428,l),
(870,446,l),
(738,102,l),
(292,98,l),
(468,1388,l),
(595,1408,l),
(603,1486,l),
(202,1486,l),
(194,1408,l),
(314,1388,l),
(140,98,l),
(14,78,l),
(5,0,l)
);
}
);
width = 1022;
},
{
anchors = (
{
name = belt;
pos = (222,834);
},
{
name = bottom;
pos = (563,0);
},
{
name = car;
pos = (990,1133);
},
{
name = center;
pos = (418,743);
},
{
name = period;
pos = (1195,743);
},
{
name = top;
pos = (511,1486);
},
{
name = topright;
pos = (1244.474,1486);
}
);
color = 4;
layerId = "F8806197-5953-4DD8-B2B5-EF301301BB43";
shapes = (
{
closed = 1;
nodes = (
(993,0,l),
(1093,552,l),
(931,573,l),
(733,142,l),
(450,123,l),
(617,1357,l),
(767,1384,l),
(779,1486,l),
(183,1486,l),
(171,1384,l),
(295,1357,l),
(125,128,l),
(9,102,l),
(-3,0,l)
);
}
);
width = 1126;
},
{
anchors = (
{
name = belt;
pos = (233,834);
},
{
name = bottom;
pos = (479,0);
},
{
name = car;
pos = (885,1133);
},
{
name = center;
pos = (332,743);
},
{
name = period;
pos = (1200,743);
},
{
name = top;
pos = (410,1486);
},
{
name = topright;
pos = (1126,1486);
}
);
color = 4;
layerId = "F318CEA5-7792-49D8-B68D-92025E304353";
shapes = (
{
closed = 1;
nodes = (
(839,0,l),
(934,436,l),
(868,450,l),
(746,93,l),
(279,64,l),
(465,1420,l),
(605,1450,l),
(610,1486,l),
(199,1486,l),
(194,1450,l),
(315,1420,l),
(129,67,l),
(-2,36,l),
(-7,0,l)
);
}
);
width = 1019;
},
{
anchors = (
{
name = belt;
pos = (200,834);
},
{
name = bottom;
pos = (544,0);
},
{
name = car;
pos = (922,1135);
},
{
name = center;
pos = (367,743);
},
{
name = period;
pos = (1197,743);
},
{
name = top;
pos = (472,1486);
},
{
name = topright;
pos = (1239,1486);
}
);
color = 4;
layerId = "7A2136B0-3E1D-476B-B826-4714342A6FC2";
shapes = (
{
closed = 1;
nodes = (
(988,0,l),
(1109,504,l),
(940,523,l),
(749,79,l),
(442,53,l),
(629,1413,l),
(771,1450,l),
(775,1486,l),
(159,1486,l),
(154,1450,l),
(282,1413,l),
(98,72,l),
(-42,38,l),
(-47,0,l)
);
}
);
width = 1119;
}
);
metricLeft = H;
unicode = 76;
userData = {
KernOnName = L;
};
}
{
glyphname = M;
kernLeft = KO_M;
kernRight = KO_M;
layers = (
{
anchors = (
{
name = bottom;
pos = (823,0);
},
{
name = bottomright;
pos = (1749,0);
},
{
name = top;
pos = (1019,1486);
}
);
layerId = "0C3FD5EE-D923-4A4A-8FDE-164881635915";
shapes = (
{
closed = 1;
nodes = (
(427,0,l),
(434,70,l),
(242,94,l),
(450,1008,l),
(532,1401,l),
(597,1016,l),
(774,0,l),
(869,0,l),
(1338,1040,l),
(1491,1403,l),
(1462,992,l),
(1432,92,l),
(1250,70,l),
(1242,0,l),
(1750,0,l),
(1756,70,l),
(1590,94,l),
(1618,1386,l),
(1796,1406,l),
(1804,1486,l),
(1424,1486,l),
(967,461,l),
(870,218,l),
(838,445,l),
(672,1486,l),
(258,1486,l),
(248,1406,l),
(430,1386,l),
(110,94,l),
(-57,70,l),
(-65,0,l)
);
}
);
width = 1816;
},
{
anchors = (
{
name = bottom;
pos = (867,0);
},
{
name = bottomright;
pos = (1930.064,0);
},
{
name = top;
pos = (1131,1486);
}
);
layerId = "27298932-82AF-4578-9425-6304FDB19058";
shapes = (
{
closed = 1;
nodes = (
(511,0,l),
(521,103,l),
(302,131,l),
(506,979,l),
(590,1355,l),
(644,989,l),
(778,0,l),
(942,-2,l),
(1371,1013,l),
(1511,1356,l),
(1491,965,l),
(1436,131,l),
(1252,105,l),
(1244,0,l),
(1934,0,l),
(1942,103,l),
(1766,131,l),
(1804,1355,l),
(1976,1379,l),
(1990,1486,l),
(1395,1486,l),
(1071,639,l),
(1015,471,l),
(995,639,l),
(904,1486,l),
(229,1486,l),
(213,1379,l),
(403,1355,l),
(85,131,l),
(-73,103,l),
(-85,0,l)
);
}
);
width = 2004;
},
{
anchors = (
{
name = bottom;
pos = (964,0);
},
{
name = bottomright;
pos = (2149,0);
},
{
name = top;
pos = (1210,1486);
}
);
color = 1;
layerId = "9079322E-D2EB-4437-A6B9-48C6726F1892";
shapes = (
{
closed = 1;
nodes = (
(565,0,l),
(576,106,l),
(334,134,l),
(557,979,l),
(652,1355,l),
(709,989,l),
(880,0,l),
(1057,-2,l),
(1539,1013,l),
(1697,1356,l),
(1669,965,l),
(1615,134,l),
(1409,108,l),
(1400,0,l),
(2150,0,l),
(2159,106,l),
(1962,134,l),
(2005,1355,l),
(2201,1379,l),
(2215,1486,l),
(1577,1486,l),
(1198,638,l),
(1127,470,l),
(1102,638,l),
(966,1486,l),
(256,1486,l),
(244,1379,l),
(457,1355,l),
(105,134,l),
(-74,106,l),
(-85,0,l)
);
}
);
width = 2223;
},
{
anchors = (
{
name = bottom;
pos = (899,0);
},
{
name = bottomright;
pos = (1919,0);
},
{
name = top;
pos = (1111,1486);
}
);
color = 4;
layerId = "AB43ED1F-BEAA-4517-9B18-06741265F15E";
shapes = (
{
closed = 1;
nodes = (
(465,0,l),
(472,80,l),
(260,104,l),
(481,1008,l),
(568,1391,l),
(637,1016,l),
(851,0,l),
(951,0,l),
(1458,1040,l),
(1617,1383,l),
(1597,992,l),
(1577,102,l),
(1372,80,l),
(1366,0,l),
(1918,0,l),
(1923,80,l),
(1738,104,l),
(1753,1386,l),
(1952,1406,l),
(1960,1486,l),
(1554,1486,l),
(1054,451,l),
(945,228,l),
(905,455,l),
(703,1486,l),
(268,1486,l),
(259,1406,l),
(462,1386,l),
(120,104,l),
(-68,80,l),
(-76,0,l)
);
}
);
width = 1972;
},
{
anchors = (
{
name = bottom;
pos = (782,0);
},
{
name = bottomright;
pos = (1789,0);
},
{
name = top;
pos = (1036,1486);
}
);
color = 4;
layerId = "0E81F995-ADCA-4265-BF48-502C19DBCB17";
shapes = (
{
closed = 1;
nodes = (
(339,0,l),
(344,36,l),
(173,72,l),
(377,1045,l),
(443,1366,l),
(461,1047,l),
(553,0,l),
(859,0,l),
(1217,1046,l),
(1325,1381,l),
(1304,1044,l),
(1252,72,l),
(1093,38,l),
(1088,0,l),
(1787,0,l),
(1792,36,l),
(1624,72,l),
(1678,1413,l),
(1854,1451,l),
(1859,1486,l),
(1288,1486,l),
(958,524,l),
(868,236,l),
(851,524,l),
(781,1486,l),
(224,1486,l),
(218,1450,l),
(386,1413,l),
(59,72,l),
(-94,36,l),
(-99,0,l)
);
}
);
width = 1826;
},
{
anchors = (
{
name = bottom;
pos = (769,0);
},
{
name = bottomright;
pos = (1697,0);
},
{
name = top;
pos = (975,1486);
}
);
color = 4;
layerId = "10D406F4-E64B-40B9-806E-EB589F33F511";
shapes = (
{
closed = 1;
nodes = (
(358,0,l),
(362,36,l),
(188,67,l),
(403,1037,l),
(484,1416,l),
(549,1016,l),
(715,0,l),
(805,0,l),
(1280,1040,l),
(1428,1386,l),
(1408,992,l),
(1378,67,l),
(1193,36,l),
(1188,0,l),
(1696,0,l),
(1699,36,l),
(1536,69,l),
(1564,1426,l),
(1722,1450,l),
(1727,1486,l),
(1396,1486,l),
(929,461,l),
(826,218,l),
(784,455,l),
(628,1486,l),
(256,1486,l),
(251,1451,l),
(408,1419,l),
(84,67,l),
(-62,36,l),
(-67,0,l)
);
}
);
width = 1762;
},
{
anchors = (
{
name = bottom;
pos = (774,0);
},
{
name = bottomright;
pos = (1908,0);
},
{
name = top;
pos = (1061,1486);
}
);
color = 4;
layerId = "2795BD5C-FE1E-44B5-B1D3-799347E852FC";
shapes = (
{
closed = 1;
nodes = (
(322,0,l),
(327,36,l),
(141,72,l),
(387,1045,l),
(464,1367,l),
(479,1047,l),
(570,0,l),
(914,0,l),
(1280,1046,l),
(1384,1367,l),
(1368,1044,l),
(1346,72,l),
(1187,38,l),
(1182,0,l),
(1903,0,l),
(1908,36,l),
(1740,72,l),
(1764,1413,l),
(1938,1451,l),
(1943,1486,l),
(1349,1486,l),
(984,441,l),
(911,220,l),
(894,524,l),
(812,1486,l),
(242,1486,l),
(236,1450,l),
(415,1413,l),
(32,72,l),
(-94,36,l),
(-96,0,l)
);
}
);
width = 1929;
},
{
anchors = (
{
name = bottom;
pos = (829,0);
},
{
name = bottomright;
pos = (1821,0);
},
{
name = top;
pos = (1028,1486);
}
);
layerId = "95CCB04D-97EC-4126-A206-216E0B8EC505";
shapes = (
{
closed = 1;
nodes = (
(393,0,l),
(398,36,l),
(206,71,l),
(425,1037,l),
(505,1419,l),
(575,1024,l),
(777,0,l),
(857,0,l),
(1367,1040,l),
(1521,1392,l),
(1504,989,l),
(1487,67,l),
(1286,36,l),
(1281,0,l),
(1818,0,l),
(1823,36,l),
(1645,69,l),
(1659,1427,l),
(1829,1450,l),
(1834,1486,l),
(1490,1486,l),
(988,458,l),
(870,229,l),
(832,453,l),
(643,1486,l),
(267,1486,l),
(264,1451,l),
(432,1419,l),
(101,71,l),
(-62,36,l),
(-67,0,l)
);
}
);
width = 1884;
},
{
anchors = (
{
name = bottom;
pos = (714,0);
},
{
name = bottomright;
pos = (1547,-1);
},
{
name = top;
pos = (942,1486);
}
);
color = 4;
layerId = "8587C386-9485-4E77-8679-63F1A494C2C0";
shapes = (
{
closed = 1;
nodes = (
(371,0,l),
(379,78,l),
(212,102,l),
(410,1010,l),
(490,1384,l),
(529,1018,l),
(664,0,l),
(767,0,l),
(1172,1042,l),
(1310,1396,l),
(1278,994,l),
(1235,100,l),
(1077,78,l),
(1069,0,l),
(1525,0,l),
(1533,78,l),
(1388,102,l),
(1436,1388,l),
(1590,1408,l),
(1598,1486,l),
(1250,1486,l),
(845,449,l),
(764,218,l),
(725,584,l),
(618,1486,l),
(244,1486,l),
(235,1408,l),
(393,1388,l),
(89,102,l),
(-56,78,l),
(-64,0,l)
);
}
);
width = 1591;
},
{
anchors = (
{
name = bottom;
pos = (744,0);
},
{
name = bottomright;
pos = (1697,0);
},
{
name = top;
pos = (1026,1486);
}
);
color = 4;
layerId = "F8806197-5953-4DD8-B2B5-EF301301BB43";
shapes = (
{
closed = 1;
nodes = (
(446,0,l),
(458,102,l),
(265,129,l),
(459,981,l),
(541,1358,l),
(565,991,l),
(659,0,l),
(819,-2,l),
(1201,1015,l),
(1325,1359,l),
(1295,986,l),
(1235,109,l),
(1077,84,l),
(1067,0,l),
(1694,0,l),
(1703,102,l),
(1550,129,l),
(1612,1357,l),
(1760,1381,l),
(1772,1486,l),
(1229,1486,l),
(953,691,l),
(895,495,l),
(877,711,l),
(837,1486,l),
(217,1486,l),
(205,1381,l),
(365,1357,l),
(63,129,l),
(-73,102,l),
(-86,0,l)
);
}
);
width = 1764;
},
{
anchors = (
{
name = bottom;
pos = (684,0);
},
{
name = bottomright;
pos = (1523.633,0);
},
{
name = top;
pos = (891,1486);
}
);
color = 4;
layerId = "F318CEA5-7792-49D8-B68D-92025E304353";
shapes = (
{
closed = 1;
nodes = (
(313,0,l),
(318,36,l),
(159,69,l),
(362,1038,l),
(439,1412,l),
(488,1019,l),
(622,0,l),
(716,0,l),
(1146,1041,l),
(1284,1399,l),
(1257,996,l),
(1216,67,l),
(1051,36,l),
(1046,0,l),
(1516,0,l),
(1521,36,l),
(1371,69,l),
(1419,1423,l),
(1562,1450,l),
(1567,1486,l),
(1253,1486,l),
(832,466,l),
(734,218,l),
(706,460,l),
(580,1486,l),
(243,1486,l),
(238,1451,l),
(378,1418,l),
(70,67,l),
(-62,36,l),
(-67,0,l)
);
}
);
width = 1582;
},
{
anchors = (
{
name = bottom;
pos = (616,0);
},
{
name = bottomright;
pos = (1579,0);
},
{
name = top;
pos = (927,1486);
}
);
color = 4;
layerId = "7A2136B0-3E1D-476B-B826-4714342A6FC2";
shapes = (
{
closed = 1;
nodes = (
(300,0,l),
(305,36,l),
(139,72,l),
(334,1059,l),
(393,1362,l),
(406,957,l),
(458,0,l),
(747,0,l),
(1078,1047,l),
(1168,1361,l),
(1140,1049,l),
(1083,74,l),
(943,38,l),
(938,0,l),
(1574,0,l),
(1579,38,l),
(1430,74,l),
(1500,1411,l),
(1658,1450,l),
(1663,1486,l),
(1145,1486,l),
(841,530,l),
(757,221,l),
(746,519,l),
(710,1486,l),
(198,1486,l),
(192,1450,l),
(342,1412,l),
(29,72,l),
(-109,38,l),
(-114,0,l)
);
}
);
width = 1598;
}
);
unicode = 77;
userData = {
KernOnName = M;
};
}
{
glyphname = N;
kernLeft = KO_E;
kernRight = KO_N;
layers = (
{
anchors = (
{
name = bottom;
pos = (661,0);
},
{
name = top;
pos = (853,1486);
}
);
layerId = "0C3FD5EE-D923-4A4A-8FDE-164881635915";
shapes = (
{
closed = 1;
nodes = (
(447,0,l),
(453,70,l),
(285,94,l),
(427,1329,l),
(505,1102,l),
(997,0,l),
(1153,0,l),
(1343,1386,l),
(1495,1406,l),
(1501,1486,l),
(1075,1486,l),
(1065,1406,l),
(1221,1388,l),
(1075,152,l),
(997,376,l),
(501,1486,l),
(199,1486,l),
(187,1406,l),
(329,1386,l),
(155,92,l),
(19,70,l),
(13,0,l)
);
}
);
width = 1443;
},
{
anchors = (
{
name = bottom;
pos = (714,0);
},
{
name = top;
pos = (917,1486);
}
);
layerId = "27298932-82AF-4578-9425-6304FDB19058";
shapes = (
{
closed = 1;
nodes = (
(510,0,l),
(520,102,l),
(346,130,l),
(470,1247,l),
(550,960,l),
(920,0,l),
(1278,0,l),
(1470,1356,l),
(1616,1378,l),
(1626,1486,l),
(1138,1486,l),
(1128,1378,l),
(1276,1356,l),
(1134,274,l),
(1062,518,l),
(710,1486,l),
(178,1486,l),
(162,1378,l),
(308,1356,l),
(144,130,l),
(2,102,l),
(-6,0,l)
);
}
);
width = 1544;
},
{
anchors = (
{
name = bottom;
pos = (773,0);
},
{
name = top;
pos = (990,1486);
}
);
color = 1;
layerId = "9079322E-D2EB-4437-A6B9-48C6726F1892";
shapes = (
{
closed = 1;
nodes = (
(552,0,l),
(560,106,l),
(365,134,l),
(488,1249,l),
(589,960,l),
(1033,0,l),
(1405,0,l),
(1599,1358,l),
(1764,1380,l),
(1776,1486,l),
(1234,1486,l),
(1222,1380,l),
(1393,1358,l),
(1252,274,l),
(1152,561,l),
(724,1486,l),
(177,1486,l),
(165,1380,l),
(317,1354,l),
(150,132,l),
(-2,106,l),
(-14,0,l)
);
}
);
width = 1692;
},
{
anchors = (
{
name = bottom;
pos = (718,0);
},
{
name = top;
pos = (913,1486);
}
);
color = 4;
layerId = "AB43ED1F-BEAA-4517-9B18-06741265F15E";
shapes = (
{
closed = 1;
nodes = (
(484,0,l),
(492,80,l),
(302,104,l),
(444,1338,l),
(537,1102,l),
(1113,0,l),
(1269,0,l),
(1458,1382,l),
(1615,1406,l),
(1625,1486,l),
(1139,1486,l),
(1131,1406,l),
(1321,1382,l),
(1181,161,l),
(1095,376,l),
(512,1486,l),
(198,1486,l),
(188,1406,l),
(340,1386,l),
(165,104,l),
(8,80,l),
(-2,0,l)
);
}
);
width = 1563;
},
{
anchors = (
{
name = bottom;
pos = (610,0);
},
{
name = top;
pos = (849,1486);
}
);
color = 4;
layerId = "0E81F995-ADCA-4265-BF48-502C19DBCB17";
shapes = (
{
closed = 1;
nodes = (
(394,0,l),
(399,36,l),
(205,72,l),
(344,1295,l),
(425,1058,l),
(896,0,l),
(1127,0,l),
(1333,1411,l),
(1492,1450,l),
(1494,1486,l),
(1046,1486,l),
(1041,1450,l),
(1223,1411,l),
(1111,352,l),
(1033,590,l),
(632,1486,l),
(157,1486,l),
(151,1447,l),
(294,1411,l),
(93,72,l),
(-52,36,l),
(-54,0,l)
);
}
);
width = 1410;
},
{
anchors = (
{
name = bottom;
pos = (590,0);
},
{
name = top;
pos = (792,1486);
}
);
color = 4;
layerId = "10D406F4-E64B-40B9-806E-EB589F33F511";
shapes = (
{
closed = 1;
nodes = (
(365,0,l),
(370,36,l),
(212,67,l),
(360,1356,l),
(448,1102,l),
(936,0,l),
(1063,0,l),
(1260,1419,l),
(1404,1450,l),
(1409,1486,l),
(1010,1486,l),
(1005,1450,l),
(1163,1419,l),
(1023,142,l),
(940,376,l),
(450,1486,l),
(172,1486,l),
(167,1450,l),
(303,1420,l),
(115,67,l),
(-29,36,l),
(-34,0,l)
);
}
);
width = 1346;
},
{
anchors = (
{
name = bottom;
pos = (619,0);
},
{
name = top;
pos = (840,1486);
}
);
color = 4;
layerId = "2795BD5C-FE1E-44B5-B1D3-799347E852FC";
shapes = (
{
closed = 1;
nodes = (
(356,0,l),
(361,36,l),
(181,72,l),
(321,1330,l),
(398,1097,l),
(924,0,l),
(1167,0,l),
(1357,1411,l),
(1482,1450,l),
(1484,1486,l),
(1086,1486,l),
(1081,1450,l),
(1248,1411,l),
(1147,349,l),
(1064,590,l),
(630,1486,l),
(159,1486,l),
(153,1447,l),
(266,1411,l),
(72,72,l),
(-50,36,l),
(-52,0,l)
);
}
);
width = 1400;
},
{
anchors = (
{
name = bottom;
pos = (633,0);
},
{
name = top;
pos = (838,1486);
}
);
layerId = "95CCB04D-97EC-4126-A206-216E0B8EC505";
shapes = (
{
closed = 1;
nodes = (
(375,0,l),
(380,36,l),
(224,65,l),
(371,1361,l),
(472,1104,l),
(1012,0,l),
(1140,0,l),
(1338,1421,l),
(1493,1450,l),
(1498,1486,l),
(1081,1486,l),
(1076,1450,l),
(1233,1421,l),
(1085,134,l),
(997,365,l),
(451,1486,l),
(166,1486,l),
(161,1450,l),
(308,1420,l),
(119,65,l),
(-36,36,l),
(-42,0,l)
);
}
);
width = 1383;
},
{
anchors = (
{
name = bottom;
pos = (565,0);
},
{
name = top;
pos = (773,1486);
}
);
color = 4;
layerId = "8587C386-9485-4E77-8679-63F1A494C2C0";
shapes = (
{
closed = 1;
nodes = (
(397,0,l),
(406,76,l),
(258,100,l),
(407,1324,l),
(469,1110,l),
(859,0,l),
(1013,0,l),
(1202,1388,l),
(1328,1408,l),
(1337,1486,l),
(945,1486,l),
(936,1410,l),
(1084,1386,l),
(936,174,l),
(881,368,l),
(489,1486,l),
(202,1486,l),
(194,1408,l),
(314,1388,l),
(140,98,l),
(14,78,l),
(5,0,l)
);
}
);
width = 1282;
},
{
anchors = (
{
name = bottom;
pos = (625,0);
},
{
name = top;
pos = (841,1486);
}
);
color = 4;
layerId = "F8806197-5953-4DD8-B2B5-EF301301BB43";
shapes = (
{
closed = 1;
nodes = (
(452,0,l),
(463,100,l),
(312,128,l),
(442,1243,l),
(505,969,l),
(787,0,l),
(1128,0,l),
(1323,1358,l),
(1440,1384,l),
(1452,1486,l),
(997,1486,l),
(986,1386,l),
(1137,1358,l),
(1002,255,l),
(944,509,l),
(669,1486,l),
(183,1486,l),
(171,1384,l),
(295,1357,l),
(126,128,l),
(9,102,l),
(-3,0,l)
);
}
);
width = 1367;
},
{
anchors = (
{
name = bottom;
pos = (548,0);
},
{
name = top;
pos = (775,1486);
}
);
color = 4;
layerId = "F318CEA5-7792-49D8-B68D-92025E304353";
shapes = (
{
closed = 1;
nodes = (
(358,0,l),
(363,36,l),
(226,69,l),
(373,1328,l),
(452,1098,l),
(873,0,l),
(982,0,l),
(1181,1419,l),
(1303,1450,l),
(1308,1486,l),
(958,1486,l),
(953,1450,l),
(1090,1417,l),
(948,192,l),
(878,395,l),
(460,1486,l),
(194,1486,l),
(189,1450,l),
(325,1420,l),
(135,67,l),
(-7,36,l),
(-12,0,l)
);
}
);
width = 1245;
},
{
anchors = (
{
name = bottom;
pos = (598,0);
},
{
name = top;
pos = (826,1486);
}
);
color = 4;
layerId = "7A2136B0-3E1D-476B-B826-4714342A6FC2";
shapes = (
{
closed = 1;
nodes = (
(400,0,l),
(405,36,l),
(215,72,l),
(363,1321,l),
(430,1108,l),
(849,0,l),
(1089,0,l),
(1304,1411,l),
(1438,1450,l),
(1440,1486,l),
(1026,1486,l),
(1021,1450,l),
(1197,1411,l),
(1077,363,l),
(1000,590,l),
(661,1486,l),
(173,1486,l),
(167,1447,l),
(310,1411,l),
(108,72,l),
(-36,36,l),
(-38,0,l)
);
}
);
width = 1323;
}
);
unicode = 78;
userData = {
KernOnName = N;
};
}
{
glyphname = O;
layers = (
{
anchors = (
{
name = bottom;
pos = (615,0);
},
{
name = center;
pos = (712,743);
},
{
name = ogonek;
pos = (729,0);
},
{
name = top;
pos = (817,1486);
},
{
name = topleft;
pos = (193,1486);
},
{
name = topright;
pos = (948,1486);
}
);
layerId = "0C3FD5EE-D923-4A4A-8FDE-164881635915";
shapes = (
{
closed = 1;
nodes = (
(1021,-20,o),
(1308,374,o),
(1299,885,cs),
(1293,1223,o),
(1137,1506,o),
(808,1506,cs),
(414,1506,o),
(119,1121,o),
(127,605,cs),
(132,256,o),
(298,-20,o),
(621,-20,cs)
);
},
{
closed = 1;
nodes = (
(420,76,o),
(299,299,o),
(295,626,cs),
(289,1080,o),
(499,1407,o),
(784,1407,cs),
(1012,1407,o),
(1126,1184,o),
(1132,862,cs),
(1140,408,o),
(927,76,o),
(643,76,cs)
);
}
);
width = 1374;
},
{
anchors = (
{
name = bottom;
pos = (672,0);
},
{
name = center;
pos = (774,744);
},
{
name = ogonek;
pos = (778,0);
},
{
name = top;
pos = (870,1486);
},
{
name = topleft;
pos = (206,1486);
},
{
name = topright;
pos = (1036,1486);
}
);
layerId = "27298932-82AF-4578-9425-6304FDB19058";
shapes = (
{
closed = 1;
nodes = (
(1190,-20,o),
(1432,428,o),
(1432,872,cs),
(1432,1208,o),
(1268,1506,o),
(868,1506,cs),
(343,1506,o),
(100,1056,o),
(100,622,cs),
(100,278,o),
(264,-20,o),
(662,-20,cs)
);
},
{
closed = 1;
nodes = (
(530,101,o),
(464,279,o),
(464,634,cs),
(464,1007,o),
(585,1384,o),
(840,1384,cs),
(1004,1384,o),
(1066,1208,o),
(1066,860,cs),
(1066,478,o),
(946,101,o),
(690,101,cs)
);
}
);
width = 1480;
},
{
anchors = (
{
name = bottom;
pos = (703,0);
},
{
name = center;
pos = (813,744);
},
{
name = ogonek;
pos = (846,0);
},
{
name = top;
pos = (903,1486);
},
{
name = topleft;
pos = (167,1486);
},
{
name = topright;
pos = (1077,1486);
}
);
color = 4;
layerId = "9079322E-D2EB-4437-A6B9-48C6726F1892";
shapes = (
{
closed = 1;
nodes = (
(1277,-20,o),
(1533,413,o),
(1533,849,cs),
(1533,1194,o),
(1358,1506,o),
(894,1506,cs),
(346,1506,o),
(69,1089,o),
(69,643,cs),
(69,268,o),
(254,-20,o),
(700,-20,cs)
);
},
{
closed = 1;
nodes = (
(502,100,o),
(442,398,o),
(442,658,cs),
(442,1029,o),
(601,1384,o),
(875,1384,cs),
(1071,1384,o),
(1154,1188,o),
(1160,860,cs),
(1160,462,o),
(1041,100,o),
(729,100,cs)
);
}
);
width = 1550;
},
{
anchors = (
{
name = bottom;
pos = (667,0);
},
{
name = center;
pos = (786,744);
},
{
name = ogonek;
pos = (780,0);
},
{
name = top;
pos = (867,1486);
},
{
name = topleft;
pos = (180,1486);
},
{
name = topright;
pos = (1006,1486);
}
);
color = 4;
layerId = "AB43ED1F-BEAA-4517-9B18-06741265F15E";
shapes = (
{
closed = 1;
nodes = (
(1123,-20,o),
(1421,354,o),
(1421,847,cs),
(1421,1223,o),
(1227,1506,o),
(849,1506,cs),
(407,1506,o),
(109,1132,o),
(109,639,cs),
(109,263,o),
(303,-20,o),
(681,-20,cs)
);
},
{
closed = 1;
nodes = (
(408,76,o),
(282,342,o),
(282,664,cs),
(282,1097,o),
(510,1410,o),
(835,1410,cs),
(1122,1410,o),
(1248,1144,o),
(1248,822,cs),
(1248,389,o),
(1020,76,o),
(695,76,cs)
);
}
);
width = 1478;
},
{
anchors = (
{
name = bottom;
pos = (629,0);
},
{
name = center;
pos = (730,739);
},
{
name = ogonek;
pos = (736,0);
},
{
name = top;
pos = (830,1486);
},
{
name = topleft;
pos = (165,1486);
},
{
name = topright;
pos = (1013,1486);
}
);
color = 4;
layerId = "0E81F995-ADCA-4265-BF48-502C19DBCB17";
shapes = (
{
closed = 1;
nodes = (
(1146,-24,o),
(1391,418,o),
(1391,905,cs),
(1391,1188,o),
(1283,1505,o),
(838,1505,cs),
(304,1505,o),
(59,1064,o),
(59,580,cs),
(59,296,o),
(169,-24,o),
(617,-24,cs)
);
},
{
closed = 1;
nodes = (
(451,34,o),
(438,316,o),
(438,543,cs),
(438,1018,o),
(567,1446,o),
(818,1447,cs),
(1010,1448,o),
(1012,1164,o),
(1012,944,cs),
(1012,460,o),
(881,34,o),
(631,34,cs)
);
}
);
width = 1384;
},
{
anchors = (
{
name = bottom;
pos = (577,0);
},
{
name = center;
pos = (679,743);
},
{
name = ogonek;
pos = (707,0);
},
{
name = top;
pos = (781,1486);
},
{
name = topleft;
pos = (154,1486);
},
{
name = topright;
pos = (915,1486);
}
);
color = 4;
layerId = "10D406F4-E64B-40B9-806E-EB589F33F511";
shapes = (
{
closed = 1;
nodes = (
(987,-22,o),
(1266,374,o),
(1266,885,cs),
(1266,1263,o),
(1103,1503,o),
(774,1503,cs),
(380,1503,o),
(93,1121,o),
(93,605,cs),
(93,216,o),
(264,-22,o),
(587,-22,cs)
);
},
{
closed = 1;
nodes = (
(388,29,o),
(257,246,o),
(257,613,cs),
(257,1091,o),
(467,1452,o),
(752,1452,cs),
(980,1452,o),
(1102,1249,o),
(1102,874,cs),
(1102,420,o),
(895,29,o),
(611,29,cs)
);
}
);
width = 1292;
},
{
anchors = (
{
name = bottom;
pos = (703,0);
},
{
name = center;
pos = (798,743);
},
{
name = ogonek;
pos = (867,0);
},
{
name = top;
pos = (906,1486);
},
{
name = topleft;
pos = (184,1486);
},
{
name = topright;
pos = (1100,1486);
}
);
color = 4;
layerId = "2795BD5C-FE1E-44B5-B1D3-799347E852FC";
shapes = (
{
closed = 1;
nodes = (
(1261,-24,o),
(1542,418,o),
(1542,875,cs),
(1542,1196,o),
(1394,1505,o),
(912,1505,cs),
(354,1505,o),
(73,1063,o),
(73,609,cs),
(73,287,o),
(221,-24,o),
(718,-24,cs)
);
},
{
closed = 1;
nodes = (
(514,34,o),
(488,320,o),
(488,567,cs),
(488,1052,o),
(636,1446,o),
(897,1447,cs),
(1100,1448,o),
(1127,1154,o),
(1127,914,cs),
(1127,428,o),
(979,34,o),
(719,34,cs)
);
}
);
width = 1549;
},
{
anchors = (
{
name = bottom;
pos = (659,0);
},
{
name = center;
pos = (772,744);
},
{
name = ogonek;
pos = (806,0);
},
{
name = top;
pos = (861,1486);
},
{
name = topleft;
pos = (236,1486);
},
{
name = topright;
pos = (1004,1486);
}
);
layerId = "95CCB04D-97EC-4126-A206-216E0B8EC505";
shapes = (
{
closed = 1;
nodes = (
(1114,-22,o),
(1433,352,o),
(1433,878,cs),
(1433,1267,o),
(1192,1503,o),
(860,1503,cs),
(399,1503,o),
(80,1129,o),
(80,603,cs),
(80,214,o),
(321,-22,o),
(653,-22,cs)
);
},
{
closed = 1;
nodes = (
(437,29,o),
(247,244,o),
(247,611,cs),
(247,1099,o),
(505,1452,o),
(837,1452,cs),
(1076,1452,o),
(1266,1237,o),
(1266,870,cs),
(1266,382,o),
(1008,29,o),
(676,29,cs)
);
}
);
width = 1448;
},
{
anchors = (
{
name = bottom;
pos = (538,0);
},
{
name = center;
pos = (651,744);
},
{
name = ogonek;
pos = (656,0);
},
{
name = top;
pos = (739,1486);
},
{
name = topleft;
pos = (200,1486);
},
{
name = topright;
pos = (855,1486);
}
);
color = 4;
layerId = "8587C386-9485-4E77-8679-63F1A494C2C0";
shapes = (
{
closed = 1;
nodes = (
(907,-20,o),
(1161,362,o),
(1161,882,cs),
(1161,1230,o),
(1027,1506,o),
(725,1506,cs),
(367,1506,o),
(113,1124,o),
(113,604,cs),
(113,256,o),
(245,-20,o),
(549,-20,cs)
);
},
{
closed = 1;
nodes = (
(373,75,o),
(280,294,o),
(280,626,cs),
(280,1104,o),
(462,1411,o),
(713,1411,cs),
(901,1411,o),
(994,1192,o),
(994,860,cs),
(994,382,o),
(812,75,o),
(561,75,cs)
);
}
);
width = 1222;
},
{
anchors = (
{
name = bottom;
pos = (593,0);
},
{
name = center;
pos = (710,744);
},
{
name = ogonek;
pos = (721,0);
},
{
name = top;
pos = (797,1486);
},
{
name = topleft;
pos = (230,1486);
},
{
name = topright;
pos = (953,1486);
}
);
color = 4;
layerId = "F8806197-5953-4DD8-B2B5-EF301301BB43";
shapes = (
{
closed = 1;
nodes = (
(1042,-20,o),
(1283,385,o),
(1283,899,cs),
(1283,1245,o),
(1150,1506,o),
(799,1506,cs),
(342,1506,o),
(101,1101,o),
(101,587,cs),
(101,241,o),
(234,-20,o),
(585,-20,cs)
);
},
{
closed = 1;
nodes = (
(473,98,o),
(448,311,o),
(448,537,cs),
(448,922,o),
(536,1388,o),
(772,1388,cs),
(911,1388,o),
(936,1175,o),
(936,949,cs),
(936,564,o),
(847,98,o),
(612,98,cs)
);
}
);
width = 1332;
},
{
anchors = (
{
name = bottom;
pos = (542,0);
},
{
name = center;
pos = (644,743);
},
{
name = ogonek;
pos = (666,0);
},
{
name = top;
pos = (746,1486);
},
{
name = topleft;
pos = (153,1486);
},
{
name = topright;
pos = (867,1486);
}
);
color = 4;
layerId = "F318CEA5-7792-49D8-B68D-92025E304353";
shapes = (
{
closed = 1;
nodes = (
(924,-22,o),
(1176,379,o),
(1183,885,cs),
(1188,1257,o),
(1051,1503,o),
(739,1503,cs),
(363,1503,o),
(111,1102,o),
(104,596,cs),
(99,224,o),
(236,-22,o),
(548,-22,cs)
);
},
{
closed = 1;
nodes = (
(356,29,o),
(259,243,o),
(264,601,cs),
(270,1057,o),
(456,1452,o),
(718,1452,cs),
(931,1452,o),
(1028,1238,o),
(1023,880,cs),
(1017,424,o),
(831,29,o),
(569,29,cs)
);
}
);
width = 1222;
},
{
anchors = (
{
name = bottom;
pos = (596,0);
},
{
name = center;
pos = (706,744);
},
{
name = ogonek;
pos = (717,0);
},
{
name = top;
pos = (798,1486);
},
{
name = topleft;
pos = (160,1486);
},
{
name = topright;
pos = (950,1486);
}
);
color = 4;
layerId = "7A2136B0-3E1D-476B-B826-4714342A6FC2";
shapes = (
{
closed = 1;
nodes = (
(1074,-24,o),
(1294,433,o),
(1302,885,cs),
(1307,1181,o),
(1200,1505,o),
(806,1505,cs),
(291,1505,o),
(92,1048,o),
(84,600,cs),
(79,303,o),
(187,-24,o),
(584,-24,cs)
);
},
{
closed = 1;
nodes = (
(448,34,o),
(447,366,o),
(450,537,cs),
(458,1041,o),
(584,1444,o),
(787,1447,cs),
(948,1449,o),
(938,1113,o),
(936,950,cs),
(930,434,o),
(807,34,o),
(597,34,cs)
);
}
);
width = 1320;
}
);
unicode = 79;
userData = {
KernOnName = O;
};
}
